<?xml version="1.0" encoding="UTF-8"?>
<svg width="24px" height="22px" viewBox="0 0 24 22" version="1.1" xmlns="http://www.w3.org/2000/svg" xmlns:xlink="http://www.w3.org/1999/xlink">
    <title>16</title>
    <g id="Page-1" stroke="none" stroke-width="1" fill="none" fill-rule="evenodd">
        <g id="01_28" transform="translate(-922.000000, -516.000000)">
            <g id="16" transform="translate(923.000000, 516.000000)">
                <path d="M15.7594999,21.6106774 C18.0427512,21.6106774 21.12,16.5506513 21.12,12.9544932 C21.12,9.00889069 19.5889638,5.31497204 16.5249705,3.72414297 C12.6766674,1.72609929 6.3939893,0.86426773 3.62629033,2.6565914 C1.77942416,3.85259646 1.0607006,7.88940579 0.897094573,10.3427917 C0.649671834,14.0530674 3.10408597,17.7046035 7.22082777,20.281629 C10.666288,22.4384411 14.719214,21.6106774 15.7594999,21.6106774 Z" id="Oval" fill="#AFEEF7"></path>
                <path d="M10.2192699,12.2405689 C10.6752674,11.3038876 11.4178453,12.144046 11.5614319,12.2890654 C11.930207,12.6615203 11.8001598,14.3243251 10.7845748,14.3462466 C10.3739802,14.3551093 9.81487895,14.4839935 9.29316518,13.3436082 C7.84976058,10.1885501 13.8481614,8.477746 13.3097854,13.8964312 C13.2403189,14.5956027 13.090167,15.8330855 12.1647055,16.1618746 C10.6275854,16.7079679 7.97841948,15.9487873 7.55236225,14.8813285 C4.84392257,8.09550807 12.9059954,5.55873905 16.3350437,10.3606139 C16.6939842,10.8632569 16.8879076,11.4910331 16.9877947,12.096321 C17.123441,12.9183002 17.1887213,13.7764241 17.0300093,14.5719138 C15.8953812,20.2588505 0.909430098,18.5051157 2.65297315,9.82013094 C3.73247193,4.44290184 12.348227,2.50913043 16.198449,6.409593 C19.0083451,9.25615469 20.3030454,12.7673704 19.1937759,16.4158571" id="Path-25" stroke="#0B0B0B" transform="translate(11.050683, 11.107358) rotate(29.000000) translate(-11.050683, -11.107358) "></path>
            </g>
        </g>
    </g>
</svg>