<?xml version="1.0" encoding="UTF-8"?>
<svg width="16px" height="17px" viewBox="0 0 16 17" version="1.1" xmlns="http://www.w3.org/2000/svg" xmlns:xlink="http://www.w3.org/1999/xlink">
    <title>21</title>
    <g id="Page-1" stroke="none" stroke-width="1" fill="none" fill-rule="evenodd" stroke-linecap="square">
        <g id="01_28" transform="translate(-926.000000, -431.000000)" stroke="#FF642C" stroke-width="2">
            <g id="21" transform="translate(928.000000, 433.000000)">
                <g id="Group-3">
                    <line x1="8.2889251e-13" y1="3.45048339e-13" x2="5.20710676" y2="5.20710676" id="Line" transform="translate(2.603553, 2.603553) scale(-1, 1) translate(-2.603553, -2.603553) "></line>
                    <line x1="-8.06021916e-14" y1="3.45048339e-13" x2="5.20710676" y2="5.20710676" id="Line"></line>
                </g>
                <g id="Group-3" transform="translate(0.000000, 8.000000)">
                    <line x1="8.2889251e-13" y1="3.45048339e-13" x2="5.20710676" y2="5.20710676" id="Line" transform="translate(2.603553, 2.603553) scale(-1, 1) translate(-2.603553, -2.603553) "></line>
                    <line x1="-8.06021916e-14" y1="3.45048339e-13" x2="5.20710676" y2="5.20710676" id="Line"></line>
                </g>
                <g id="Group-3" transform="translate(7.000000, 0.000000)">
                    <line x1="8.2889251e-13" y1="3.45048339e-13" x2="5.20710676" y2="5.20710676" id="Line" transform="translate(2.603553, 2.603553) scale(-1, 1) translate(-2.603553, -2.603553) "></line>
                    <line x1="-8.06021916e-14" y1="3.45048339e-13" x2="5.20710676" y2="5.20710676" id="Line"></line>
                </g>
                <g id="Group-3" transform="translate(7.000000, 8.000000)">
                    <line x1="8.2889251e-13" y1="3.45048339e-13" x2="5.20710676" y2="5.20710676" id="Line" transform="translate(2.603553, 2.603553) scale(-1, 1) translate(-2.603553, -2.603553) "></line>
                    <line x1="-8.06021916e-14" y1="3.45048339e-13" x2="5.20710676" y2="5.20710676" id="Line"></line>
                </g>
            </g>
        </g>
    </g>
</svg>