<?xml version="1.0" encoding="UTF-8"?>
<svg width="22px" height="22px" viewBox="0 0 22 22" version="1.1" xmlns="http://www.w3.org/2000/svg" xmlns:xlink="http://www.w3.org/1999/xlink">
    <title>26</title>
    <g id="Page-1" stroke="none" stroke-width="1" fill="none" fill-rule="evenodd">
        <g id="01_28" transform="translate(-923.000000, -346.000000)">
            <g id="26" transform="translate(923.000000, 346.000000)">
                <g fill="#AFEEF7" id="Oval">
                    <path d="M15.7594999,20.6106774 C18.0427512,20.6106774 21.12,15.5506513 21.12,11.9544932 C21.12,8.00889069 19.5889638,4.31497204 16.5249705,2.72414297 C12.6766674,0.726099287 6.3939893,-0.13573227 3.62629033,1.6565914 C1.77942416,2.85259646 1.0607006,6.88940579 0.897094573,9.34279166 C0.649671834,13.0530674 3.10408597,16.7046035 7.22082777,19.281629 C10.666288,21.4384411 14.719214,20.6106774 15.7594999,20.6106774 Z"></path>
                </g>
                <g id="Group" transform="translate(11.114400, 11.644514) scale(1, -1) rotate(-171.000000) translate(-11.114400, -11.644514) translate(4.614400, 3.144514)" stroke="#030303">
                    <path d="M12.0179714,8.23900858 C12.877268,6.13995738 10.4134241,3.55756774 8.84485807,2.25574599 C7.40293989,1.05903484 5.4266278,0.46068201 4.72462544,0.389102846 C3.70564193,0.285202929 3.32006249,2.70998485 3.22049725,3.06212758 C3.11801544,3.42458562 2.76009018,5.25049231 2.7818445,5.56159363 C2.85332381,6.58379534 4.18002338,7.81011219 5.30636247,8.70832999 C5.96232811,9.23144069 6.40927111,9.40145854 7.1592219,9.675425 C7.6621424,9.85914819 11.1586749,10.3380598 12.0179714,8.23900858 Z" id="Path-3" transform="translate(7.487991, 5.120497) scale(-1, -1) rotate(94.000000) translate(-7.487991, -5.120497) "></path>
                    <path d="M5.15752416,16.1806446 C5.38946508,15.540854 6.21471308,14.0044931 6.15841905,12.6089043 C6.10212501,11.2133155 5.4195616,11.0265431 4.70614093,10.7046459 C3.99272027,10.3827487 2.74181435,10.2368192 1.78447446,10.9839918 C0.614609009,11.8970338 0.50150963,14.7539281 0.50150963,14.9532869 C0.50150963,15.0742004 1.70399181,15.4864389 2.85064686,15.7889282 C3.30245553,15.908116 5.03732926,16.5121927 5.15752416,16.1806446 Z" id="Oval" transform="translate(3.331337, 13.360364) scale(-1, -1) rotate(7.000000) translate(-3.331337, -13.360364) "></path>
                </g>
            </g>
        </g>
    </g>
</svg>