<?xml version="1.0" encoding="UTF-8"?>
<svg width="241px" height="135px" viewBox="0 0 241 135" version="1.1" xmlns="http://www.w3.org/2000/svg" xmlns:xlink="http://www.w3.org/1999/xlink">
    <!-- Generator: Sketch 62 (91390) - https://sketch.com -->
    <title>7plates</title>
    <desc>Created with Sketch.</desc>
    <g id="Page-1" stroke="none" stroke-width="1" fill="none" fill-rule="evenodd">
        <g id="01_28" transform="translate(-518.000000, -1034.000000)">
            <g id="7plates" transform="translate(519.000000, 1035.000000)">
                <g id="plate">
                    <circle id="Oval" stroke="#000000" cx="19.5" cy="19.5" r="19.5"></circle>
                    <circle id="Oval" stroke="#000000" fill="#FCE21E" cx="19.5" cy="19.5" r="15.5"></circle>
                    <circle id="Oval" fill="#060505" cx="17.671875" cy="10.359375" r="1"></circle>
                    <circle id="Oval" fill="#060505" cx="21.328125" cy="15.234375" r="1"></circle>
                    <circle id="Oval" fill="#060505" cx="27.421875" cy="16.453125" r="1"></circle>
                    <circle id="Oval" fill="#060505" cx="22.546875" cy="11.578125" r="1"></circle>
                    <circle id="Oval" fill="#060505" cx="17.671875" cy="23.765625" r="1"></circle>
                    <circle id="Oval" fill="#060505" cx="14.015625" cy="18.890625" r="1"></circle>
                    <circle id="Oval" fill="#060505" cx="10.359375" cy="27.421875" r="1"></circle>
                    <circle id="Oval" fill="#060505" cx="24.984375" cy="31.078125" r="1"></circle>
                </g>
                <g id="plate" transform="translate(0.000000, 47.000000)">
                    <circle id="Oval" stroke="#000000" cx="19.5" cy="19.5" r="19.5"></circle>
                    <circle id="Oval" stroke="#000000" fill="#FCE21E" cx="19.5" cy="19.5" r="15.5"></circle>
                    <circle id="Oval" fill="#060505" cx="17.671875" cy="10.359375" r="1"></circle>
                    <circle id="Oval" fill="#060505" cx="21.328125" cy="15.234375" r="1"></circle>
                    <circle id="Oval" fill="#060505" cx="27.421875" cy="16.453125" r="1"></circle>
                    <circle id="Oval" fill="#060505" cx="22.546875" cy="11.578125" r="1"></circle>
                    <circle id="Oval" fill="#060505" cx="17.671875" cy="23.765625" r="1"></circle>
                    <circle id="Oval" fill="#060505" cx="14.015625" cy="18.890625" r="1"></circle>
                    <circle id="Oval" fill="#060505" cx="10.359375" cy="27.421875" r="1"></circle>
                    <circle id="Oval" fill="#060505" cx="24.984375" cy="31.078125" r="1"></circle>
                </g>
                <g id="plate" transform="translate(0.000000, 94.000000)">
                    <circle id="Oval" stroke="#000000" cx="19.5" cy="19.5" r="19.5"></circle>
                    <circle id="Oval" stroke="#000000" fill="#FCE21E" cx="19.5" cy="19.5" r="15.5"></circle>
                    <circle id="Oval" fill="#060505" cx="17.671875" cy="10.359375" r="1"></circle>
                    <circle id="Oval" fill="#060505" cx="21.328125" cy="15.234375" r="1"></circle>
                    <circle id="Oval" fill="#060505" cx="27.421875" cy="16.453125" r="1"></circle>
                    <circle id="Oval" fill="#060505" cx="22.546875" cy="11.578125" r="1"></circle>
                    <circle id="Oval" fill="#060505" cx="17.671875" cy="23.765625" r="1"></circle>
                    <circle id="Oval" fill="#060505" cx="14.015625" cy="18.890625" r="1"></circle>
                    <circle id="Oval" fill="#060505" cx="10.359375" cy="27.421875" r="1"></circle>
                    <circle id="Oval" fill="#060505" cx="24.984375" cy="31.078125" r="1"></circle>
                </g>
                <g id="plate" transform="translate(42.000000, 23.000000)">
                    <circle id="Oval" stroke="#000000" cx="19.5" cy="19.5" r="19.5"></circle>
                    <circle id="Oval" stroke="#000000" fill="#FCE21E" cx="19.5" cy="19.5" r="15.5"></circle>
                    <circle id="Oval" fill="#060505" cx="17.671875" cy="10.359375" r="1"></circle>
                    <circle id="Oval" fill="#060505" cx="21.328125" cy="15.234375" r="1"></circle>
                    <circle id="Oval" fill="#060505" cx="27.421875" cy="16.453125" r="1"></circle>
                    <circle id="Oval" fill="#060505" cx="22.546875" cy="11.578125" r="1"></circle>
                    <circle id="Oval" fill="#060505" cx="17.671875" cy="23.765625" r="1"></circle>
                    <circle id="Oval" fill="#060505" cx="14.015625" cy="18.890625" r="1"></circle>
                    <circle id="Oval" fill="#060505" cx="10.359375" cy="27.421875" r="1"></circle>
                    <circle id="Oval" fill="#060505" cx="24.984375" cy="31.078125" r="1"></circle>
                </g>
                <g id="plate" transform="translate(84.000000, 47.000000)">
                    <circle id="Oval" stroke="#000000" cx="19.5" cy="19.5" r="19.5"></circle>
                    <circle id="Oval" stroke="#000000" fill="#FCE21E" cx="19.5" cy="19.5" r="15.5"></circle>
                    <circle id="Oval" fill="#060505" cx="17.671875" cy="10.359375" r="1"></circle>
                    <circle id="Oval" fill="#060505" cx="21.328125" cy="15.234375" r="1"></circle>
                    <circle id="Oval" fill="#060505" cx="27.421875" cy="16.453125" r="1"></circle>
                    <circle id="Oval" fill="#060505" cx="22.546875" cy="11.578125" r="1"></circle>
                    <circle id="Oval" fill="#060505" cx="17.671875" cy="23.765625" r="1"></circle>
                    <circle id="Oval" fill="#060505" cx="14.015625" cy="18.890625" r="1"></circle>
                    <circle id="Oval" fill="#060505" cx="10.359375" cy="27.421875" r="1"></circle>
                    <circle id="Oval" fill="#060505" cx="24.984375" cy="31.078125" r="1"></circle>
                </g>
                <g id="plate" transform="translate(130.000000, 51.000000)">
                    <circle id="Oval" stroke="#000000" cx="15.5" cy="15.5" r="15.5"></circle>
                    <circle id="Oval" stroke="#000000" fill="#FCE21E" cx="15.5" cy="15.5" r="12.3205128"></circle>
                    <circle id="Oval" fill="#060505" cx="14.046875" cy="8.234375" r="1"></circle>
                    <circle id="Oval" fill="#060505" cx="16.953125" cy="12.109375" r="1"></circle>
                    <circle id="Oval" fill="#060505" cx="21.796875" cy="13.078125" r="1"></circle>
                    <circle id="Oval" fill="#060505" cx="17.921875" cy="9.203125" r="1"></circle>
                    <circle id="Oval" fill="#060505" cx="14.046875" cy="18.890625" r="1"></circle>
                    <circle id="Oval" fill="#060505" cx="11.140625" cy="15.015625" r="1"></circle>
                    <circle id="Oval" fill="#060505" cx="8.234375" cy="21.796875" r="1"></circle>
                    <circle id="Oval" fill="#060505" cx="19.859375" cy="24.703125" r="1"></circle>
                </g>
                <g id="plate" transform="translate(42.000000, 70.000000)">
                    <circle id="Oval" stroke="#000000" cx="19.5" cy="19.5" r="19.5"></circle>
                    <circle id="Oval" stroke="#000000" fill="#FCE21E" cx="19.5" cy="19.5" r="15.5"></circle>
                    <circle id="Oval" fill="#060505" cx="17.671875" cy="10.359375" r="1"></circle>
                    <circle id="Oval" fill="#060505" cx="21.328125" cy="15.234375" r="1"></circle>
                    <circle id="Oval" fill="#060505" cx="27.421875" cy="16.453125" r="1"></circle>
                    <circle id="Oval" fill="#060505" cx="22.546875" cy="11.578125" r="1"></circle>
                    <circle id="Oval" fill="#060505" cx="17.671875" cy="23.765625" r="1"></circle>
                    <circle id="Oval" fill="#060505" cx="14.015625" cy="18.890625" r="1"></circle>
                    <circle id="Oval" fill="#060505" cx="10.359375" cy="27.421875" r="1"></circle>
                    <circle id="Oval" fill="#060505" cx="24.984375" cy="31.078125" r="1"></circle>
                </g>
                <text id="7-portions-of-biryan" font-family="Menlo-Regular, Menlo" font-size="12" font-weight="normal" fill="#000000">
                    <tspan x="88" y="109">7 portions of biryani</tspan>
                </text>
            </g>
        </g>
    </g>
</svg>