<?xml version="1.0" encoding="UTF-8"?>
<svg width="114px" height="170px" viewBox="0 0 114 170" version="1.1" xmlns="http://www.w3.org/2000/svg" xmlns:xlink="http://www.w3.org/1999/xlink">
    <!-- Generator: Sketch 62 (91390) - https://sketch.com -->
    <title>apt</title>
    <desc>Created with Sketch.</desc>
    <g id="Page-1" stroke="none" stroke-width="1" fill="none" fill-rule="evenodd">
        <g id="01_28" transform="translate(-342.000000, -241.000000)">
            <g id="apt" transform="translate(342.000000, 241.706437)">
                <g>
                    <path d="M63.748558,1.5361814 C67.1836835,2.31927604 62.6925224,25.3957449 67.1836835,28.6086906 C69.3432458,30.1536266 98.2482405,28.131205 101.671665,30.6331791 C101.884751,30.7889108 100.178087,50.4318712 103.030579,53.8873927 C104.739322,55.9573717 110.325321,57.6046787 112.867169,62.9882901 C114.231784,65.8785341 113.545083,71.5230902 113.545083,75.12282 C113.545083,86.9687118 112.867169,97.2122308 112.867169,107.23471 C112.867169,112.993933 108.283087,118.657032 103.030579,122.649729 C99.7024757,125.179588 101.070018,141.043946 97.7135186,143.888791 C95.3273584,145.911213 88.2642341,143.888791 87.1004533,145.911213 C85.9366726,147.933635 88.2642341,169 82.5385827,169 C75.4255557,169 6.74055397,165.700017 4.78164547,165.700017 C-0.548310309,165.700017 0.317824083,152.214773 0.317824083,148.587054 C0.317824083,111.618303 0.262557447,100.980261 0.553513852,69.1105386 C0.75915343,46.5859397 5.82645043e-13,24.5773622 5.82645043e-13,1.5361814 C5.82645043e-13,-0.297477887 53.8692112,-0.715981938 63.748558,1.5361814 Z" id="Path-10" fill="#FCE21E" transform="translate(56.858931, 84.500000) scale(-1, 1) translate(-56.858931, -84.500000) "></path>
                    <path d="M87.9851238,56.1379483 C92.4624942,53.5923429 106.215473,46.0467374 110.692844,43.5011319 L87.9851238,56.1379483 Z" id="Path-16" stroke="#090909"></path>
                    <path d="M97.2607325,56.1379483 C101.738103,53.5923429 106.215473,51.0467374 110.692844,48.5011319" id="Path-16" stroke="#090909"></path>
                    <path d="M78.9514679,56.1379483 C83.4288382,53.5923429 106.215473,41.0467374 110.692844,38.5011319 L78.9514679,56.1379483 Z" id="Path-16" stroke="#090909"></path>
                    <path d="M69.9514679,56.1379483 C74.4288382,53.5923429 97.2154732,41.0467374 101.692844,38.5011319 L69.9514679,56.1379483 Z" id="Path-16" stroke="#090909"></path>
                    <path d="M59.9514679,56.1379483 C64.4288382,53.5923429 87.2154732,41.0467374 91.6928435,38.5011319 L59.9514679,56.1379483 Z" id="Path-16" stroke="#090909"></path>
                    <path d="M49.9514679,56.1379483 C54.4288382,53.5923429 77.2154732,41.0467374 81.6928435,38.5011319 L49.9514679,56.1379483 Z" id="Path-16" stroke="#090909"></path>
                    <path d="M52.7743746,48.5011319 C57.251745,45.9555264 67.2154732,41.0467374 71.6928435,38.5011319 L52.7743746,48.5011319 Z" id="Path-16" stroke="#090909"></path>
                    <path d="M52.7743746,42.5011319 C57.251745,39.9555264 58.3389616,40.1612497 62.816332,37.6156442 L52.7743746,42.5011319 Z" id="Path-16" stroke="#090909"></path>
                    <path d="M97.2607325,66.1379483 C101.738103,63.5923429 106.215473,61.0467374 110.692844,58.5011319" id="Path-16" stroke="#090909"></path>
                    <path d="M97.2607325,71.1379483 C101.738103,68.5923429 106.215473,66.0467374 110.692844,63.5011319" id="Path-16" stroke="#090909"></path>
                    <path d="M97.2607325,61.1379483 C101.738103,58.5923429 106.215473,56.0467374 110.692844,53.5011319" id="Path-16" stroke="#090909"></path>
                    <path d="M97.2607325,81.1379483 C101.738103,78.5923429 106.215473,76.0467374 110.692844,73.5011319" id="Path-16" stroke="#090909"></path>
                    <path d="M97.2607325,86.1379483 C101.738103,83.5923429 106.215473,81.0467374 110.692844,78.5011319" id="Path-16" stroke="#090909"></path>
                    <path d="M97.2607325,76.1379483 C101.738103,73.5923429 106.215473,71.0467374 110.692844,68.5011319" id="Path-16" stroke="#090909"></path>
                    <path d="M97.2607325,96.1379483 C101.738103,93.5923429 106.215473,91.0467374 110.692844,88.5011319" id="Path-16" stroke="#090909"></path>
                    <path d="M97.2607325,101.137948 C101.738103,98.5923429 106.215473,96.0467374 110.692844,93.5011319" id="Path-16" stroke="#090909"></path>
                    <path d="M97.2607325,91.1379483 C101.738103,88.5923429 106.215473,86.0467374 110.692844,83.5011319" id="Path-16" stroke="#090909"></path>
                    <path d="M97.2607325,111.137948 C101.738103,108.592343 106.215473,106.046737 110.692844,103.501132" id="Path-16" stroke="#090909"></path>
                    <path d="M97.2607325,116.137948 C101.738103,113.592343 106.215473,111.046737 110.692844,108.501132" id="Path-16" stroke="#090909"></path>
                    <path d="M97.2607325,106.137948 C101.738103,103.592343 106.215473,101.046737 110.692844,98.5011319" id="Path-16" stroke="#090909"></path>
                    <path d="M75,138.870573 C79.4773703,136.324968 106.215473,121.046737 110.692844,118.501132 L75,138.870573 Z" id="Path-16" stroke="#090909"></path>
                    <path d="M83.9616807,138.870573 C88.439051,136.324968 106.215473,126.046737 110.692844,123.501132 L83.9616807,138.870573 Z" id="Path-16" stroke="#090909"></path>
                    <path d="M97.2607325,121.137948 C101.738103,118.592343 106.215473,116.046737 110.692844,113.501132" id="Path-16" stroke="#090909"></path>
                    <path d="M92.2670446,138.870573 C96.7444149,136.324968 106.215473,131.046737 110.692844,128.501132 L92.2670446,138.870573 Z" id="Path-16" stroke="#090909"></path>
                    <path d="M66.2670446,138.870573 C70.7444149,136.324968 80.2154732,131.046737 84.6928435,128.501132 L66.2670446,138.870573 Z" id="Path-16" stroke="#090909"></path>
                    <path d="M60.3316107,137.31954 C64.808981,134.773935 72.2154732,131.046737 76.6928435,128.501132 L60.3316107,137.31954 Z" id="Path-16" stroke="#090909"></path>
                    <path d="M60.3316107,132.650687 C64.808981,130.105081 63.2154732,131.046737 67.6928435,128.501132 L60.3316107,132.650687 Z" id="Path-16" stroke="#090909"></path>
                    <path d="M97.2607325,141.137948 C101.738103,138.592343 106.215473,136.046737 110.692844,133.501132" id="Path-16" stroke="#090909"></path>
                    <path d="M97.2607325,151.137948 C101.738103,148.592343 106.215473,146.046737 110.692844,143.501132" id="Path-16" stroke="#090909"></path>
                    <path d="M97.2607325,156.137948 C101.738103,153.592343 106.215473,151.046737 110.692844,148.501132" id="Path-16" stroke="#090909"></path>
                    <path d="M97.2607325,146.137948 C101.738103,143.592343 106.215473,141.046737 110.692844,138.501132" id="Path-16" stroke="#090909"></path>
                    <path d="M15.2412023,32.9279645 C15.1832392,39.0375644 13.0475106,53.9577248 16.2526209,53.9577248 C23.1615116,53.9577248 46.8016243,53.8493426 49.0158744,52.2935633 C50.8709208,50.9901682 51.5875937,35.0620037 50.2510317,32.9279645 C49.8338566,32.2618764 38.1639134,32.2618764 15.2412023,32.9279645 Z" id="Path-11" stroke="#030304"></path>
                    <path d="M52.7743746,5.400823 C52.7743746,7.24704239 55.0122984,27.1441678 55.0122984,34.1123474 C55.0122984,35.2935633 111.086755,35.3923361 111.086755,32.0604764 C111.086755,30.2935633 109.570578,9.07141097 109.570578,5.400823 C109.570578,3.29356331 94.4350523,4.36002438 86.8560291,4.38610262 C75.0162677,4.42684139 52.7743746,3.55460362 52.7743746,5.400823 Z" id="Path-12" stroke="#000000"></path>
                    <path d="M14.4906686,59.9387918 C14.4906686,62.0520531 15.4693397,95.0181935 16.1711792,111.553562 C16.5055812,119.432087 16.6183978,134.794895 18.4609123,136.841902 C21.2016273,139.886795 44.8969396,138.601033 48.6202203,138.601033 C51.9861908,138.601033 57.9180516,138.581443 58.2545611,135.191485 C60.6777994,110.780055 56.261439,88.5595958 56.261439,61.6242565 C56.261439,58.4714197 41.8234125,58.8868935 34.5817439,58.4714197 C28.7852024,58.1388567 14.4906686,57.8255304 14.4906686,59.9387918 Z" id="Path-13" stroke="#060606"></path>
                    <path d="M30.4730137,143.418451 C31.2338361,142.868164 55.3733969,141.904682 67.325413,140.997375 C74.9181188,140.420994 91.9102035,140.997375 93.3358749,143.418451 C94.446979,145.305329 96.3568353,157.62764 91.216527,160.809181 C91.0269912,160.926492 90.8349413,161.042476 90.5649311,161.116793 C87.5041942,161.95922 70.6889126,163.608136 62.1116966,163.771026 C49.2029651,164.016175 39.2592076,164.469335 36.5972647,163.771026 C27.5253554,161.391186 31.1075916,160.822061 30.4730137,147.212061 L30.4730137,143.418451 Z" id="Path-14" stroke="#0E0E0E"></path>
                    <path d="M58.9809355,58.4503067 C58.5208996,77.9009089 62.4554331,105.249774 62.4554331,124.760488 C62.4554331,126.325091 91.4329861,125.504158 93.4509445,124.760488 C94.815746,124.257524 93.9571327,94.5280371 93.4509445,81.6325021 C93.1511024,73.9937923 92.9121781,62.9617421 92.0650004,58.4503067 C91.8651057,57.3858165 80.837084,57.3858165 58.9809355,58.4503067 Z" id="Path-15" stroke="#060606"></path>
                    <path d="M2.26073254,72.1379483 C4.73810303,69.5923429 7.21547352,67.0467374 9.69284401,64.5011319" id="Path-16" stroke="#090909"></path>
                    <path d="M2.26073254,77.1379483 C4.73810303,74.5923429 7.21547352,72.0467374 9.69284401,69.5011319" id="Path-16" stroke="#090909"></path>
                    <path d="M2.26073254,67.1379483 C4.73810303,64.5923429 7.21547352,62.0467374 9.69284401,59.5011319" id="Path-16" stroke="#090909"></path>
                    <path d="M2.26073254,87.1379483 C4.73810303,84.5923429 7.21547352,82.0467374 9.69284401,79.5011319" id="Path-16" stroke="#090909"></path>
                    <path d="M2.26073254,92.1379483 C4.73810303,89.5923429 7.21547352,87.0467374 9.69284401,84.5011319" id="Path-16" stroke="#090909"></path>
                    <path d="M2.26073254,82.1379483 C4.73810303,79.5923429 7.21547352,77.0467374 9.69284401,74.5011319" id="Path-16" stroke="#090909"></path>
                    <path d="M2.26073254,102.137948 C4.73810303,99.5923429 7.21547352,97.0467374 9.69284401,94.5011319" id="Path-16" stroke="#090909"></path>
                    <path d="M2.26073254,107.137948 C4.73810303,104.592343 7.21547352,102.046737 9.69284401,99.5011319" id="Path-16" stroke="#090909"></path>
                    <path d="M3.69284401,111.501132 C5.69284401,109.501132 7.69284401,107.501132 9.69284401,105.501132" id="Path-16" stroke="#090909"></path>
                    <path d="M5.69284401,115.501132 C7.02617734,114.167799 8.35951067,112.834465 9.69284401,111.501132" id="Path-16" stroke="#090909"></path>
                    <path d="M2.26073254,97.1379483 C4.73810303,94.5923429 7.21547352,92.0467374 9.69284401,89.5011319" id="Path-16" stroke="#090909"></path>
                </g>
                <path d="M108.207925,154.195651 C108.20032,157.216442 108.192716,160.237233 108.185111,163.258024" id="Path-18" stroke="#060606"></path>
                <path d="M107.696518,154.739232 C103.239072,155.132081 98.9744802,160.045095 99.1133591,163.904064" id="Path-19" stroke="#060606"></path>
                <g id="Group-6" transform="translate(74.110057, 116.195651)" stroke="#060606">
                    <path d="M9.09786791,0 C9.09026307,3.02079107 9.08265823,6.04158159 9.07505339,9.06237266" id="Path-18"></path>
                    <path d="M8.58646065,0.54358081 C4.12901509,0.936430138 -0.135577176,5.84944394 0.00330172563,9.70841311" id="Path-19"></path>
                </g>
                <g id="Group-6" transform="translate(97.110057, 24.195651)" stroke="#060606">
                    <path d="M9.09786791,0 C9.09026307,3.02079107 9.08265823,6.04158159 9.07505339,9.06237266" id="Path-18"></path>
                    <path d="M8.58646065,0.54358081 C4.12901509,0.936430138 -0.135577176,5.84944394 0.00330172563,9.70841311" id="Path-19"></path>
                </g>
                <g id="Group-6" transform="translate(54.110057, 130.195651) rotate(270.000000) translate(-54.110057, -130.195651) translate(49.110057, 125.195651)" stroke="#060606">
                    <path d="M9.09786791,0 C9.09026307,3.02079107 9.08265823,6.04158159 9.07505339,9.06237266" id="Path-18"></path>
                    <path d="M8.58646065,0.54358081 C4.12901509,0.936430138 -0.135577176,5.84944394 0.00330172563,9.70841311" id="Path-19"></path>
                </g>
                <g id="Group-6" transform="translate(46.110057, 39.195651) rotate(270.000000) translate(-46.110057, -39.195651) translate(41.110057, 34.195651)" stroke="#060606">
                    <path d="M9.09786791,0 C9.09026307,3.02079107 9.08265823,6.04158159 9.07505339,9.06237266" id="Path-18"></path>
                    <path d="M8.58646065,0.54358081 C4.12901509,0.936430138 -0.135577176,5.84944394 0.00330172563,9.70841311" id="Path-19"></path>
                </g>
                <path d="M37.735802,66.2054133 C34.9204046,66.2054133 31.4424398,67.7050733 29.9669109,70.3237803 C23.8840675,81.119356 48.0359869,86.110293 44.5583421,71.4326014 C43.522891,67.0623935 41.3974551,67.1658046 38.1904076,66.2054133 L37.735802,66.2054133 Z" id="Path-20" stroke="#070707" stroke-linecap="round"></path>
                <path d="M60.3303352,10.8182511 C58.9552978,34.7101301 53.7990255,27.4449093 81.0213715,27.7361764" id="Path-21" stroke="#070707"></path>
                <path d="M60.0616095,11.0103184 C78.9894577,11.6926545 89.1670467,7.36111654 81.1561555,27.9493036" id="Path-22" stroke="#070707"></path>
                <path d="M31.6405664,93.3313607 C31.657976,100.462279 31.6405664,108.501132 31.6927953,114.724116 C31.7114196,116.943181 34.7120942,115.75265 37.740557,115.501132 C40.6381221,115.260485 43.569646,116.050517 43.569646,114.090857 C43.569646,94.2469526 46.458919,92.1379483 33.3659356,93.3195401 L31.6405664,93.3313607 Z" id="Path-23" stroke="#070707" stroke-linecap="round"></path>
                <path d="M26.7943083,98.3133161 C30.4808395,99.6661341 28.5519224,92.0390454 26.5525395,98.2813049" id="Path-24" stroke="#070707" stroke-linecap="round"></path>
                <path d="M26.7943083,105.313316 C30.4808395,106.666134 28.5519224,99.0390454 26.5525395,105.281305" id="Path-24" stroke="#070707" stroke-linecap="round"></path>
                <path d="M26.7943083,112.313316 C30.4808395,113.666134 28.5519224,106.039045 26.5525395,112.281305" id="Path-24" stroke="#070707" stroke-linecap="round"></path>
                <path d="M46.7943083,98.3133161 C50.4808395,99.6661341 48.5519224,92.0390454 46.5525395,98.2813049" id="Path-24" stroke="#070707" stroke-linecap="round"></path>
                <path d="M46.7943083,105.313316 C50.4808395,106.666134 48.5519224,99.0390454 46.5525395,105.281305" id="Path-24" stroke="#070707" stroke-linecap="round"></path>
                <path d="M46.7943083,112.313316 C50.4808395,113.666134 48.5519224,106.039045 46.5525395,112.281305" id="Path-24" stroke="#070707" stroke-linecap="round"></path>
            </g>
        </g>
    </g>
</svg>