<?xml version="1.0" encoding="UTF-8"?>
<svg width="147px" height="92px" viewBox="0 0 147 92" version="1.1" xmlns="http://www.w3.org/2000/svg" xmlns:xlink="http://www.w3.org/1999/xlink">
    <title>clock</title>
    <g id="Page-1" stroke="none" stroke-width="1" fill="none" fill-rule="evenodd">
        <g id="01_28" transform="translate(-495.000000, -808.000000)">
            <g id="clock" transform="translate(496.741746, 808.956783)">
                <g>
                    <path d="M44.7582536,78.0432168 C62.707508,78.0432168 77.2582536,63.4924712 77.2582536,45.5432168 C77.2582536,27.5939625 62.707508,13.0432168 44.7582536,13.0432168 C26.8089992,13.0432168 12.2582536,27.5939625 12.2582536,45.5432168 C12.2582536,63.4924712 26.8089992,78.0432168 44.7582536,78.0432168 Z" id="Oval" stroke="#000000" fill="#AFEEF7" stroke-dasharray="1,16" transform="translate(44.758254, 45.543217) rotate(31.000000) translate(-44.758254, -45.543217) "></path>
                    <g id="Clock" transform="translate(44.000000, 46.000000) rotate(3.000000) translate(-44.000000, -46.000000) translate(8.000000, 10.000000)" stroke="#0A0909" stroke-linecap="round">
                        <path d="M45.3741619,9.56869671 C43.2075402,9.05603422 41.6495529,8.73296237 40.7002,8.59948115 C38.0758182,8.23048698 36.0561769,7.97845756 33.569413,8.32515489 C31.0826491,8.67185221 25.7948581,10.3249105 21.2652051,14.2274835 C16.7355521,18.1300565 12.2582536,25.689961 12.2582536,36.0432168 C12.2582536,49.2980508 23.0034196,60.0432168 36.2582536,60.0432168 C49.5130876,60.0432168 60.2582536,49.2980508 60.2582536,36.0432168 C60.2582536,22.7883828 49.5130876,12.0432168 36.2582536,12.0432168" id="Path"></path>
                        <path d="M27.2727652,13.999602 C25.6378088,14.7275315 23.6539831,16.0357274 22.4330898,17.2383964 C21.2121966,18.4410655 19.977493,20.1020009 19.200433,21.4641188 C18.4219257,22.8287737 18.0455163,23.8479035 17.5103262,25.5657141 C17.3133229,26.1980397 16.9469321,28.5022897 16.6923411,30.2546009 C16.4503111,31.9204566 16.4817341,34.426852 16.6926373,36.0658411 C18.1010872,47.0113042 25.6469423,56.0658411 36.6926373,56.0658411 C47.7383323,56.0658411 56.534898,47.084443 56.534898,36.038748 C56.534898,24.993053 47.7664488,15.7095709 36.7207538,15.7095709 C33.8753443,15.7095709 31.0615212,16.8430898 28.6109969,17.9141794" id="Path" transform="translate(36.528665, 35.032722) rotate(24.000000) translate(-36.528665, -35.032722) "></path>
                        <path d="M17.3526912,58.3319687 C22.3509017,62.8105054 28.8960155,65.5651037 36.0035771,65.5651037 C51.4675501,65.5651037 64.0035771,53.0290767 64.0035771,37.5651037 C64.0035771,22.1011307 51.4675501,9.56510374 36.0035771,9.56510374" id="Path" transform="translate(40.678134, 37.565104) rotate(19.000000) translate(-40.678134, -37.565104) "></path>
                    </g>
                </g>
                <path d="M83.0022573,15.0932819 C79.6162065,15.3299799 75.1391435,15.5011244 69.5710684,15.6067157 C68.7285458,15.622693 70.0638761,11.545275 69.5361655,12.1781647 C68.1391486,13.8536243 66.4694644,15.596581 66.3849725,16.2873398 C66.3118766,16.8849304 68.2350777,17.279041 71.4283143,18.2774091" id="Path-26" stroke="#070707" stroke-linecap="round"></path>
                <text id="1-hour" font-family="Menlo-Regular, Menlo" font-size="12" font-weight="normal" fill="#000000">
                    <tspan x="86.9512863" y="18.0432168">1 hour</tspan>
                </text>
            </g>
        </g>
    </g>
</svg>