<?xml version="1.0" encoding="UTF-8"?>
<svg width="89px" height="66px" viewBox="0 0 89 66" version="1.1" xmlns="http://www.w3.org/2000/svg" xmlns:xlink="http://www.w3.org/1999/xlink">
    <!-- Generator: Sketch 62 (91390) - https://sketch.com -->
    <title>coffee</title>
    <desc>Created with Sketch.</desc>
    <g id="Page-1" stroke="none" stroke-width="1" fill="none" fill-rule="evenodd">
        <g id="01_28" transform="translate(-334.000000, -1081.000000)">
            <g id="coffee" transform="translate(333.000000, 1082.000000)">
                <g id="plate" transform="translate(42.000000, 0.000000)">
                    <circle id="Oval" fill="#FCE21E" cx="25.5" cy="22.5" r="22.5"></circle>
                    <circle id="Oval" stroke="#000000" fill="#FFFFFF" cx="19.5" cy="19.5" r="19.5"></circle>
                    <circle id="Oval" stroke="#000000" cx="19.5" cy="19.5" r="13.5"></circle>
                </g>
                <text id="1-coffee-cup" font-family="Menlo-Regular, Menlo" font-size="12" font-weight="normal" fill="#000000">
                    <tspan x="0" y="62">1 coffee cup</tspan>
                </text>
                <path d="M50.2414551,12.1101074 C52.4064295,10.8052037 59.7956573,6.16014769 59.5725098,6.53955078 C58.7385254,7.95751953 42.4191895,23.090332 50.2414551,17.6975098 C58.0637207,12.3046875 64.5960951,6.80874931 65.2111816,7.24926758 C65.7390585,7.62732725 49.0379829,22.2685492 49.4338379,22.6962891 C51.4343262,24.8579102 62.3828125,11.9350586 69.314209,9.64648438 C70.958034,9.10373435 51.8833008,24.3464605 51.8833008,26.9094238 C51.8833008,27.6225586 69.2865893,12.4750326 72.0761719,12.1101074 C73.6090185,11.9095848 52.3730676,30.9145492 54.5463867,29.9130859 C57.4549921,28.5728036 72.9315383,16.2118504 73.6394043,16.6396484 C74.2572272,17.013029 62.0153809,27.1838379 58.5969238,31.130127 C55.1784668,35.076416 72.9678539,20.5612793 74.173584,20.5612793 C75.3793141,20.5612793 63.4996426,30.6085372 63.0891113,31.8510742 C62.8154238,32.6794322 66.510248,30.209787 74.173584,24.4421387" id="Path-34" stroke="#010101"></path>
            </g>
        </g>
    </g>
</svg>