<?xml version="1.0" encoding="UTF-8"?>
<svg width="171px" height="443px" viewBox="0 0 171 443" version="1.1" xmlns="http://www.w3.org/2000/svg" xmlns:xlink="http://www.w3.org/1999/xlink">
    <!-- Generator: Sketch 62 (91390) - https://sketch.com -->
    <title>complaints</title>
    <desc>Created with Sketch.</desc>
    <g id="Page-1" stroke="none" stroke-width="1" fill="none" fill-rule="evenodd">
        <g id="01_28" transform="translate(-302.000000, -383.000000)">
            <g id="complaints" transform="translate(211.693033, 385.000000)">
                <g>
                    <g id="helicopter" transform="translate(254.099861, 0.000000)" stroke="#FF642C" stroke-linecap="square" stroke-width="2">
                        <g id="Group-3">
                            <line x1="8.2889251e-13" y1="3.45048339e-13" x2="5.20710676" y2="5.20710676" id="Line" transform="translate(2.603553, 2.603553) scale(-1, 1) translate(-2.603553, -2.603553) "></line>
                            <line x1="-8.06021916e-14" y1="3.45048339e-13" x2="5.20710676" y2="5.20710676" id="Line"></line>
                        </g>
                        <g id="Group-3" transform="translate(0.000000, 197.000000)">
                            <line x1="8.2889251e-13" y1="3.45048339e-13" x2="5.20710676" y2="5.20710676" id="Line" transform="translate(2.603553, 2.603553) scale(-1, 1) translate(-2.603553, -2.603553) "></line>
                            <line x1="-8.06021916e-14" y1="3.45048339e-13" x2="5.20710676" y2="5.20710676" id="Line"></line>
                        </g>
                        <g id="Group-3" transform="translate(0.000000, 205.000000)">
                            <line x1="8.2889251e-13" y1="3.45048339e-13" x2="5.20710676" y2="5.20710676" id="Line" transform="translate(2.603553, 2.603553) scale(-1, 1) translate(-2.603553, -2.603553) "></line>
                            <line x1="-8.06021916e-14" y1="3.45048339e-13" x2="5.20710676" y2="5.20710676" id="Line"></line>
                        </g>
                        <g id="Group-3" transform="translate(0.000000, 213.000000)">
                            <line x1="8.2889251e-13" y1="3.45048339e-13" x2="5.20710676" y2="5.20710676" id="Line" transform="translate(2.603553, 2.603553) scale(-1, 1) translate(-2.603553, -2.603553) "></line>
                            <line x1="-8.06021916e-14" y1="3.45048339e-13" x2="5.20710676" y2="5.20710676" id="Line"></line>
                        </g>
                        <g id="Group-3" transform="translate(0.000000, 221.000000)">
                            <line x1="8.2889251e-13" y1="3.45048339e-13" x2="5.20710676" y2="5.20710676" id="Line" transform="translate(2.603553, 2.603553) scale(-1, 1) translate(-2.603553, -2.603553) "></line>
                            <line x1="-8.06021916e-14" y1="3.45048339e-13" x2="5.20710676" y2="5.20710676" id="Line"></line>
                        </g>
                        <g id="Group-3" transform="translate(0.000000, 255.000000)">
                            <line x1="8.2889251e-13" y1="3.45048339e-13" x2="5.20710676" y2="5.20710676" id="Line" transform="translate(2.603553, 2.603553) scale(-1, 1) translate(-2.603553, -2.603553) "></line>
                            <line x1="-8.06021916e-14" y1="3.45048339e-13" x2="5.20710676" y2="5.20710676" id="Line"></line>
                        </g>
                        <g id="Group-3" transform="translate(0.000000, 263.000000)">
                            <line x1="8.2889251e-13" y1="3.45048339e-13" x2="5.20710676" y2="5.20710676" id="Line" transform="translate(2.603553, 2.603553) scale(-1, 1) translate(-2.603553, -2.603553) "></line>
                            <line x1="-8.06021916e-14" y1="3.45048339e-13" x2="5.20710676" y2="5.20710676" id="Line"></line>
                        </g>
                        <g id="Group-3" transform="translate(0.000000, 393.000000)">
                            <line x1="8.2889251e-13" y1="3.45048339e-13" x2="5.20710676" y2="5.20710676" id="Line" transform="translate(2.603553, 2.603553) scale(-1, 1) translate(-2.603553, -2.603553) "></line>
                            <line x1="-8.06021916e-14" y1="3.45048339e-13" x2="5.20710676" y2="5.20710676" id="Line"></line>
                        </g>
                        <g id="Group-3" transform="translate(0.000000, 401.000000)">
                            <line x1="8.2889251e-13" y1="3.45048339e-13" x2="5.20710676" y2="5.20710676" id="Line" transform="translate(2.603553, 2.603553) scale(-1, 1) translate(-2.603553, -2.603553) "></line>
                            <line x1="-8.06021916e-14" y1="3.45048339e-13" x2="5.20710676" y2="5.20710676" id="Line"></line>
                        </g>
                        <g id="Group-3" transform="translate(0.000000, 426.000000)">
                            <line x1="8.2889251e-13" y1="3.45048339e-13" x2="5.20710676" y2="5.20710676" id="Line" transform="translate(2.603553, 2.603553) scale(-1, 1) translate(-2.603553, -2.603553) "></line>
                            <line x1="-8.06021916e-14" y1="3.45048339e-13" x2="5.20710676" y2="5.20710676" id="Line"></line>
                        </g>
                        <g id="Group-3" transform="translate(0.000000, 434.000000)">
                            <line x1="8.2889251e-13" y1="3.45048339e-13" x2="5.20710676" y2="5.20710676" id="Line" transform="translate(2.603553, 2.603553) scale(-1, 1) translate(-2.603553, -2.603553) "></line>
                            <line x1="-8.06021916e-14" y1="3.45048339e-13" x2="5.20710676" y2="5.20710676" id="Line"></line>
                        </g>
                        <g id="Group-3" transform="translate(0.000000, 271.000000)">
                            <line x1="8.2889251e-13" y1="3.45048339e-13" x2="5.20710676" y2="5.20710676" id="Line" transform="translate(2.603553, 2.603553) scale(-1, 1) translate(-2.603553, -2.603553) "></line>
                            <line x1="-8.06021916e-14" y1="3.45048339e-13" x2="5.20710676" y2="5.20710676" id="Line"></line>
                        </g>
                        <g id="Group-3" transform="translate(0.000000, 279.000000)">
                            <line x1="8.2889251e-13" y1="3.45048339e-13" x2="5.20710676" y2="5.20710676" id="Line" transform="translate(2.603553, 2.603553) scale(-1, 1) translate(-2.603553, -2.603553) "></line>
                            <line x1="-8.06021916e-14" y1="3.45048339e-13" x2="5.20710676" y2="5.20710676" id="Line"></line>
                        </g>
                        <g id="Group-3" transform="translate(0.000000, 287.000000)">
                            <line x1="8.2889251e-13" y1="3.45048339e-13" x2="5.20710676" y2="5.20710676" id="Line" transform="translate(2.603553, 2.603553) scale(-1, 1) translate(-2.603553, -2.603553) "></line>
                            <line x1="-8.06021916e-14" y1="3.45048339e-13" x2="5.20710676" y2="5.20710676" id="Line"></line>
                        </g>
                        <g id="Group-3" transform="translate(0.000000, 295.000000)">
                            <line x1="8.2889251e-13" y1="3.45048339e-13" x2="5.20710676" y2="5.20710676" id="Line" transform="translate(2.603553, 2.603553) scale(-1, 1) translate(-2.603553, -2.603553) "></line>
                            <line x1="-8.06021916e-14" y1="3.45048339e-13" x2="5.20710676" y2="5.20710676" id="Line"></line>
                        </g>
                        <g id="Group-3" transform="translate(0.000000, 304.000000)">
                            <line x1="8.2889251e-13" y1="3.45048339e-13" x2="5.20710676" y2="5.20710676" id="Line" transform="translate(2.603553, 2.603553) scale(-1, 1) translate(-2.603553, -2.603553) "></line>
                            <line x1="-8.06021916e-14" y1="3.45048339e-13" x2="5.20710676" y2="5.20710676" id="Line"></line>
                        </g>
                        <g id="Group-3" transform="translate(0.000000, 39.000000)">
                            <line x1="8.2889251e-13" y1="3.45048339e-13" x2="5.20710676" y2="5.20710676" id="Line" transform="translate(2.603553, 2.603553) scale(-1, 1) translate(-2.603553, -2.603553) "></line>
                            <line x1="-8.06021916e-14" y1="3.45048339e-13" x2="5.20710676" y2="5.20710676" id="Line"></line>
                        </g>
                        <g id="Group-3" transform="translate(0.000000, 61.000000)">
                            <line x1="8.2889251e-13" y1="3.45048339e-13" x2="5.20710676" y2="5.20710676" id="Line" transform="translate(2.603553, 2.603553) scale(-1, 1) translate(-2.603553, -2.603553) "></line>
                            <line x1="-8.06021916e-14" y1="3.45048339e-13" x2="5.20710676" y2="5.20710676" id="Line"></line>
                        </g>
                        <g id="Group-3" transform="translate(0.000000, 118.000000)">
                            <line x1="8.2889251e-13" y1="3.45048339e-13" x2="5.20710676" y2="5.20710676" id="Line" transform="translate(2.603553, 2.603553) scale(-1, 1) translate(-2.603553, -2.603553) "></line>
                            <line x1="-8.06021916e-14" y1="3.45048339e-13" x2="5.20710676" y2="5.20710676" id="Line"></line>
                        </g>
                        <g id="Group-3" transform="translate(0.000000, 126.000000)">
                            <line x1="8.2889251e-13" y1="3.45048339e-13" x2="5.20710676" y2="5.20710676" id="Line" transform="translate(2.603553, 2.603553) scale(-1, 1) translate(-2.603553, -2.603553) "></line>
                            <line x1="-8.06021916e-14" y1="3.45048339e-13" x2="5.20710676" y2="5.20710676" id="Line"></line>
                        </g>
                        <g id="Group-3" transform="translate(0.000000, 144.000000)">
                            <line x1="8.2889251e-13" y1="3.45048339e-13" x2="5.20710676" y2="5.20710676" id="Line" transform="translate(2.603553, 2.603553) scale(-1, 1) translate(-2.603553, -2.603553) "></line>
                            <line x1="-8.06021916e-14" y1="3.45048339e-13" x2="5.20710676" y2="5.20710676" id="Line"></line>
                        </g>
                        <g id="Group-3" transform="translate(0.000000, 157.000000)">
                            <line x1="8.2889251e-13" y1="3.45048339e-13" x2="5.20710676" y2="5.20710676" id="Line" transform="translate(2.603553, 2.603553) scale(-1, 1) translate(-2.603553, -2.603553) "></line>
                            <line x1="-8.06021916e-14" y1="3.45048339e-13" x2="5.20710676" y2="5.20710676" id="Line"></line>
                        </g>
                        <g id="Group-3" transform="translate(0.000000, 172.000000)">
                            <line x1="8.2889251e-13" y1="3.45048339e-13" x2="5.20710676" y2="5.20710676" id="Line" transform="translate(2.603553, 2.603553) scale(-1, 1) translate(-2.603553, -2.603553) "></line>
                            <line x1="-8.06021916e-14" y1="3.45048339e-13" x2="5.20710676" y2="5.20710676" id="Line"></line>
                        </g>
                    </g>
                    <text id="--noise-complaint" font-family="Menlo-Regular, Menlo" font-size="12" font-weight="normal" fill="#000000">
                        <tspan x="110.181641" y="258">- noise complaint</tspan>
                    </text>
                </g>
                <g id="cross" transform="translate(91.306967, 250.000000)" stroke="#000000">
                    <path d="M0.6,1.04438153 C2.73333333,3.17771487 4.86666667,5.3110482 7,7.44438153" id="Path-27"></path>
                    <path d="M0.0137987826,9.6 C1.66298521,5.51301424 4.76461236,4.08698576 6.41379878,0" id="Path-28"></path>
                </g>
            </g>
        </g>
    </g>
</svg>