<?xml version="1.0" encoding="UTF-8"?>
<svg width="256px" height="105px" viewBox="0 0 256 105" version="1.1" xmlns="http://www.w3.org/2000/svg" xmlns:xlink="http://www.w3.org/1999/xlink">
    <!-- Generator: Sketch 62 (91390) - https://sketch.com -->
    <title>densthl</title>
    <desc>Created with Sketch.</desc>
    <g id="Page-1" stroke="none" stroke-width="1" fill="none" fill-rule="evenodd">
        <g id="01_28" transform="translate(-191.000000, -446.000000)">
            <g id="densthl" transform="translate(191.000000, 459.000000)">
                <g id="Group-2" transform="translate(172.000000, 0.000000)">
                    <path d="M1.78834664,14.0393003 C16.1902417,-5.20197182 -0.46510205,14.8120689 0.0424878659,31.0359799 C0.263313605,38.0941523 5.08693343,19.928733 7.93358178,14.8931418 C9.60533106,11.9358935 13.5942516,3.0143895 13.5372252,7.16440433 C13.4441185,13.9401169 9.41654418,18.7043628 7.79654125,24.8660756 C6.04191991,31.5398122 -0.757766142,45.0969273 3.44691247,45.5431063 C8.18501756,46.0458898 8.75333829,31.809067 11.6655896,25.2766392 C15.800691,16.0012542 34.6474858,-23.9161226 17.0777517,21.0777675 C13.9377012,29.1190439 10.9791303,37.3815247 8.17856519,45.7950059 C6.09941951,52.0411928 4.36594052,57.0437071 3.44691247,66.6225641 C3.37389828,67.3835773 4.60776305,70.2745785 4.92713789,69.7401885 C8.23831529,64.1998012 7.37715225,67.503687 10.1816096,61.1706953 C15.9526605,48.1385778 20.6238221,33.6996478 26.3946303,20.6672038 C28.1321747,16.7432388 32.9294748,6.50546573 35.390443,4.0207703 C35.9883732,3.4170752 33.2273017,12.9845752 32.9284598,14.0703788 C29.5333546,26.406058 25.1841822,37.8896615 21.7052161,50.1541774 C20.6785543,53.7735027 19.9865477,57.6822955 19.4440474,61.6074303 C19.0781244,64.2549814 17.457926,70.2000484 18.9981964,69.7401885 C32.1712031,65.807283 31.9664883,24.0950213 41.6624468,14.7344778 C42.9028889,13.5369466 48.4294559,4.69597791 48.362243,7.16440433 C47.9133028,23.6519471 37.3165517,62.3421533 34.1411746,77.6243186 C33.7184052,79.6589845 37.2059715,71.9528237 37.0402308,74.0974051 C37.0039722,74.5665687 39.237484,79.100272 39.4316462,78.7691808 C47.5680653,64.8947131 50.4984299,54.492261 54.4241113,35.2479373 C55.7453464,28.7710297 55.5441927,21.5301642 56.9274475,15.0926986 C57.260093,13.5446147 65.4362521,9.26844852 66.2234366,10.1908343 C76.5726402,22.3175443 45.0804988,83.4880503 56.9274475,74.0974051 C58.2513963,73.0479591 61.7224284,62.0048385 62.5367228,59.9046545 C64.5973196,54.5900744 68.6854534,14.5908261 70.2429058,35.5456368 C70.6657654,41.2350193 71.0145628,47.0929782 70.4728711,52.7516875 C69.684616,60.9860874 67.6920122,68.7293187 66.3015827,76.7181343" id="Path-8" stroke="#97FDB8" stroke-width="26" stroke-linecap="round" transform="translate(35.390443, 39.434888) scale(-1, 1) translate(-35.390443, -39.434888) "></path>
                    <circle id="Oval" fill="#060606" cx="2.9224537" cy="22.890625" r="2.5"></circle>
                    <circle id="Oval" fill="#060606" cx="2.9224537" cy="48.5" r="2.5"></circle>
                    <circle id="Oval" fill="#060606" cx="52.6875" cy="72.72432" r="2.5"></circle>
                    <circle id="Oval" fill="#060606" cx="18.8489583" cy="6.41297743" r="2.5"></circle>
                    <circle id="Oval" fill="#060606" cx="27.2980324" cy="48.5" r="2.5"></circle>
                    <circle id="Oval" fill="#060606" cx="27.8333333" cy="22.5" r="2.5"></circle>
                    <line x1="3.37239583" y1="72.5703125" x2="3.37239583" y2="23.5234375" id="Line-2" stroke="#0C0B0B" stroke-width="0.7" stroke-linecap="square"></line>
                    <line x1="19.3411458" y1="57.7421875" x2="19.3411458" y2="8.6953125" id="Line-2" stroke="#0C0B0B" stroke-width="0.7" stroke-linecap="square"></line>
                    <line x1="28.4661458" y1="47.4765625" x2="28.4661458" y2="-1.5703125" id="Line-2" stroke="#0C0B0B" stroke-width="0.7" stroke-linecap="square" transform="translate(28.466146, 22.953125) rotate(90.000000) translate(-28.466146, -22.953125) "></line>
                    <line x1="43.2942708" y1="81.6953125" x2="43.2942708" y2="32.6484375" id="Line-2" stroke="#0C0B0B" stroke-width="0.7" stroke-linecap="square" transform="translate(43.294271, 57.171875) rotate(90.000000) translate(-43.294271, -57.171875) "></line>
                    <line x1="11.6755737" y1="25.6468748" x2="11.2723019" y2="2.33325281" id="Line-2" stroke="#0C0B0B" stroke-width="0.7" stroke-linecap="square" transform="translate(11.473938, 13.990064) rotate(225.990986) translate(-11.473938, -13.990064) "></line>
                    <circle id="Oval" fill="#060606" cx="67.8958333" cy="6.41297743" r="2.5"></circle>
                    <line x1="60.7224487" y1="25.6468748" x2="60.3191769" y2="2.33325281" id="Line-2" stroke="#0C0B0B" stroke-width="0.7" stroke-linecap="square" transform="translate(60.520813, 13.990064) rotate(225.990986) translate(-60.520813, -13.990064) "></line>
                    <circle id="Oval" fill="#060606" cx="67.8333333" cy="56.5" r="2.5"></circle>
                    <line x1="60.7224487" y1="75.8343748" x2="60.3191769" y2="52.5207528" id="Line-2" stroke="#0C0B0B" stroke-width="0.7" stroke-linecap="square" transform="translate(60.520813, 64.177564) rotate(225.990986) translate(-60.520813, -64.177564) "></line>
                    <circle id="Oval" fill="#060606" cx="18.8333333" cy="56.5" r="2.5"></circle>
                    <line x1="11.6755737" y1="75.8343748" x2="11.2723019" y2="52.5207528" id="Line-2" stroke="#0C0B0B" stroke-width="0.7" stroke-linecap="square" transform="translate(11.473938, 64.177564) rotate(225.990986) translate(-11.473938, -64.177564) "></line>
                    <circle id="Oval" fill="#060606" cx="40.8333333" cy="56.5" r="2.5"></circle>
                    <circle id="Oval" fill="#060606" cx="42.8020833" cy="6.41297743" r="2.5"></circle>
                    <line x1="52.9895833" y1="73.8515625" x2="52.8333333" y2="21.4999999" id="Line-2" stroke="#0C0B0B" stroke-width="0.7" stroke-linecap="square"></line>
                    <circle id="Oval" fill="#060606" cx="2.83333333" cy="72.5" r="2.5"></circle>
                    <circle id="Oval" fill="#060606" cx="52.8333333" cy="22.5" r="2.5"></circle>
                    <circle id="Oval" fill="#060606" cx="52.8333333" cy="48.5" r="2.5"></circle>
                    <circle id="Oval" fill="#060606" cx="27.8333333" cy="72.5" r="2.5"></circle>
                    <line x1="67.9583333" y1="56.6015625" x2="67.9583333" y2="7.5546875" id="Line-2" stroke="#0C0B0B" stroke-width="0.7" stroke-linecap="square"></line>
                    <line x1="44.4348958" y1="31.0234375" x2="44.4348958" y2="-18.0234375" id="Line-2" stroke="#0C0B0B" stroke-width="0.7" stroke-linecap="square" transform="translate(44.434896, 6.500000) rotate(90.000000) translate(-44.434896, -6.500000) "></line>
                    <line x1="28.3333333" y1="97.046875" x2="28.3333333" y2="48" id="Line-2" stroke="#0C0B0B" stroke-width="0.7" stroke-linecap="square" transform="translate(28.333333, 72.523438) rotate(90.000000) translate(-28.333333, -72.523438) "></line>
                </g>
                <circle id="Oval" fill="#060606" cx="2.5" cy="68.5" r="2.5"></circle>
                <text id="--100-housing-units" font-family="Menlo-Regular, Menlo" font-size="12" font-weight="normal" fill="#000000">
                    <tspan x="13.7324219" y="72">- 100 housing units</tspan>
                </text>
            </g>
        </g>
    </g>
</svg>