<?xml version="1.0" encoding="UTF-8"?>
<svg width="234px" height="92px" viewBox="0 0 234 92" version="1.1" xmlns="http://www.w3.org/2000/svg" xmlns:xlink="http://www.w3.org/1999/xlink">
    <!-- Generator: Sketch 62 (91390) - https://sketch.com -->
    <title>denstjg</title>
    <desc>Created with Sketch.</desc>
    <g id="Page-1" stroke="none" stroke-width="1" fill="none" fill-rule="evenodd">
        <g id="01_28" transform="translate(-514.000000, -456.000000)">
            <g id="denstjg" transform="translate(523.398053, 464.864940)">
                <g id="Group-5">
                    <path d="M0,63.410853 C1.01901583,56.6777338 2.80889035,52.608051 3.8770532,48.1350598 C5.93547925,39.5152865 8.44334524,31.6576487 19.5327072,16.2004653 C25.962232,7.23851207 41.463922,-6.69887135 40.3001572,4.78477788 C38.1628056,25.8754615 24.2802158,31.3983183 16.0601896,50.4661292 C14.5456486,53.9793761 6.57171169,60.1728907 9.6019475,58.3126236 C6.40955147,70.9517433 9.32162268,74.5036688 18.3381611,68.9684 C31.8629688,60.6654969 47.1108026,-1.56189432 60.9545311,3.22605174 C61.5783488,3.44180323 61.5996165,4.78379497 61.2650151,5.41938082 L51.4962103,27.8536858 C46.2254932,37.8655779 39.2985222,46.6899291 34.2055239,56.8197322 C31.6906176,61.8217964 27.792133,67.3337258 28.8096401,72.9765141 C29.3711594,76.0905316 34.6550719,71.3389819 36.3707407,68.8273738 C49.1098194,50.1783352 59.2802436,29.4166512 71.568179,10.3812775 C73.1344366,7.95497098 78.5541147,0.180962035 82.0878253,6.93960919 C83.8641293,10.3370044 85.3138172,12.2989631 83.3142762,15.5324463 C71.2190759,35.0917487 58.0408846,53.7579784 45.4041888,72.8707444" id="Path-30" stroke="#97FDB8" stroke-width="18" stroke-linecap="round"></path>
                    <circle id="Oval" fill="#060606" cx="52.1019475" cy="38.6350598" r="2.5"></circle>
                    <circle id="Oval" fill="#060606" cx="14.7090487" cy="41.0283618" r="2.5"></circle>
                    <circle id="Oval" fill="#060606" cx="41.9090487" cy="49.0950285" r="2.5"></circle>
                    <circle id="Oval" fill="#060606" cx="34.1019475" cy="28.1065914" r="2.5"></circle>
                    <circle id="Oval" fill="#060606" cx="41.9090487" cy="41.0283618" r="2.5"></circle>
                    <circle id="Oval" fill="#060606" cx="38.622382" cy="34.2483618" r="2.5"></circle>
                    <line x1="29.0421219" y1="63.238462" x2="29.2680099" y2="35.834063" id="Line-2" stroke="#0C0B0B" stroke-width="0.7" stroke-linecap="square" transform="translate(29.513143, 49.834063) rotate(89.527735) translate(-29.513143, -49.834063) "></line>
                    <line x1="46.5530826" y1="40.3369744" x2="45.9294826" y2="16.3480855" id="Line-2" stroke="#0C0B0B" stroke-width="0.7" stroke-linecap="square" transform="translate(46.241283, 28.342530) rotate(91.489089) translate(-46.241283, -28.342530) "></line>
                    <line x1="24.6317214" y1="44.0865094" x2="24.0894289" y2="18.6791938" id="Line-2" stroke="#0C0B0B" stroke-width="0.7" stroke-linecap="square" transform="translate(24.360575, 31.382852) rotate(225.990986) translate(-24.360575, -31.382852) "></line>
                    <line x1="14.8321054" y1="50.0727568" x2="14.3717896" y2="40.6260855" id="Line-2" stroke="#0C0B0B" stroke-width="0.7" stroke-linecap="square" transform="translate(14.601947, 45.349421) rotate(182.789693) translate(-14.601947, -45.349421) "></line>
                    <line x1="42.3321054" y1="50.0727568" x2="41.8717896" y2="40.6260855" id="Line-2" stroke="#0C0B0B" stroke-width="0.7" stroke-linecap="square" transform="translate(42.101947, 45.349421) rotate(182.789693) translate(-42.101947, -45.349421) "></line>
                    <line x1="61.3321054" y1="30.0727568" x2="60.8717896" y2="20.6260855" id="Line-2" stroke="#0C0B0B" stroke-width="0.7" stroke-linecap="square" transform="translate(61.101947, 25.349421) rotate(182.789693) translate(-61.101947, -25.349421) "></line>
                    <line x1="34.3321054" y1="30.0727568" x2="33.8717896" y2="20.6260855" id="Line-2" stroke="#0C0B0B" stroke-width="0.7" stroke-linecap="square" transform="translate(34.101947, 25.349421) rotate(182.789693) translate(-34.101947, -25.349421) "></line>
                    <line x1="50.968874" y1="45.3555933" x2="50.5162948" y2="19.1914573" id="Line-2" stroke="#0C0B0B" stroke-width="0.7" stroke-linecap="square" transform="translate(50.742584, 32.273525) rotate(225.990986) translate(-50.742584, -32.273525) "></line>
                    <circle id="Oval" fill="#060606" cx="47.1019475" cy="20.6350598" r="2.5"></circle>
                    <circle id="Oval" fill="#060606" cx="47.1019475" cy="27.6350598" r="2.5"></circle>
                    <line x1="52.1369247" y1="50.5951579" x2="51.7362309" y2="27.4305727" id="Line-2" stroke="#0C0B0B" stroke-width="0.7" stroke-linecap="square" transform="translate(51.936578, 39.012865) rotate(225.990986) translate(-51.936578, -39.012865) "></line>
                    <circle id="Oval" fill="#060606" cx="61.1019475" cy="20.6350598" r="2.5"></circle>
                    <line x1="24.9657377" y1="52.896609" x2="25.1554126" y2="23.4690942" id="Line-2" stroke="#0C0B0B" stroke-width="0.7" stroke-linecap="square" transform="translate(25.060575, 38.182852) rotate(224.630705) translate(-25.060575, -38.182852) "></line>
                    <circle id="Oval" fill="#060606" cx="61.1019475" cy="28.6350598" r="2.5"></circle>
                    <circle id="Oval" fill="#060606" cx="34.1019475" cy="20.6350598" r="2.5"></circle>
                    <circle id="Oval" fill="#060606" cx="14.7090487" cy="49.0950285" r="2.5"></circle>
                    <circle id="Oval" fill="#060606" cx="28.3090487" cy="41.0283618" r="2.5"></circle>
                    <circle id="Oval" fill="#060606" cx="24.4892956" cy="29.9535049" r="2.5"></circle>
                    <circle id="Oval" fill="#060606" cx="28.3090487" cy="49.0950285" r="2.5"></circle>
                    <circle id="Oval" fill="#060606" cx="76.9090487" cy="62.0950285" r="2.5"></circle>
                    <text id="--100-housing-units" font-family="Menlo-Regular, Menlo" font-size="12" font-weight="normal" fill="#000000">
                        <tspan x="88.2949802" y="66.1350598">- 100 housing units</tspan>
                    </text>
                    <line x1="29.5536593" y1="54.2628376" x2="28.9300593" y2="28.007282" id="Line-2" stroke="#0C0B0B" stroke-width="0.7" stroke-linecap="square" transform="translate(29.241859, 41.135060) rotate(91.360586) translate(-29.241859, -41.135060) "></line>
                    <line x1="46.5536593" y1="33.6701102" x2="45.9300593" y2="7.41455465" id="Line-2" stroke="#0C0B0B" stroke-width="0.7" stroke-linecap="square" transform="translate(46.241859, 20.542332) rotate(91.360586) translate(-46.241859, -20.542332) "></line>
                </g>
            </g>
        </g>
    </g>
</svg>