<?xml version="1.0" encoding="UTF-8"?>
<svg width="222px" height="128px" viewBox="0 0 222 128" version="1.1" xmlns="http://www.w3.org/2000/svg" xmlns:xlink="http://www.w3.org/1999/xlink">
    <!-- Generator: Sketch 62 (91390) - https://sketch.com -->
    <title>flower</title>
    <desc>Created with Sketch.</desc>
    <g id="Page-1" stroke="none" stroke-width="1" fill="none" fill-rule="evenodd">
        <g id="01_28" transform="translate(-215.000000, -663.000000)">
            <g id="flower" transform="translate(215.000000, 668.000000)">
                <g transform="translate(157.000000, 9.000000)">
                    <path d="M22.7066449,21.8494287 C22.8455525,15.3995701 22.3917636,2.77505613 22.3917636,1.47054767 C22.3917636,0.166039208 24.7642652,0.0676685082 24.7642652,0.0676685082 C24.8667844,0.0676685082 19.6352107,13.8999201 23.3089988,20.5234925 C23.7748696,21.3634237 24.9862155,19.4430141 25.4623191,18.6088407 C28.2274352,13.764126 28.2767312,8.31922055 31.137381,3.53029477 C31.3964646,3.09657082 33.7790706,4.55000184 33.5823521,5.01534326 C30.8701016,11.4312252 27.0781948,17.3582485 24.4235428,23.798176 C23.9604248,24.9216552 25.9146551,21.8181953 26.9306987,21.1516074 C29.9045723,19.2005609 33.4731914,18.1959445 36.2842311,16.0168249 C36.946112,15.5037345 38.8672418,14.7702189 39.7112078,13.666131 C40.9443134,12.0529656 40.9000347,10.0756499 39.7112078,10.3653147 C35.2899214,11.4425873 26.6260945,19.2718547 23.8014894,23.7443808 C23.5241361,24.1835465 24.3262496,24.7806847 24.8273851,24.9172661 C29.4390685,26.174152 41.8486569,17.8909286 44.4497248,24.8816552 C45.0624707,26.5284939 40.9301072,25.3835322 39.1861371,25.1688151 C35.1658474,24.6738383 31.3074526,23.1389987 27.2739267,22.7669765 C26.2768115,22.67501 23.7237541,23.1282269 24.4568807,23.8102988 C36.4341229,34.9534509 31.137381,23.5617805 39.7112078,33.2874232 C40.3763498,34.041921 40.0707514,37.0727789 39.1861371,36.5698695 C36.7765767,35.2000179 34.9151172,33.0307836 32.8027016,31.2362989 C16.4782431,17.368767 30.9640669,34.0912808 32.4698285,37.9703254 C33.7617046,41.2983721 34.4216974,48.2212063 32.8027016,45.0394314 C31.5649361,42.6068794 30.373693,42.7700962 29.6375596,40.4196629 C28.2226074,35.9017981 27.5491644,30.9654692 24.8667844,26.4568674 C24.0002948,25.0004532 16.4752782,57.2737436 23.8014894,43.5549143 C26.3881531,38.7112103 27.1804642,25.9189488 23.5984317,30.0808403 L23.0589651,24.5543384 C19.1039454,29.1495963 19.2777462,35.9132731 16.3221992,41.2319853 C15.7028616,42.3465263 13.0348878,43.6524789 12.1340089,43.2707842 C11.23313,42.8890896 11.0826886,40.4437013 11.5339281,39.6709404 C13.1910552,36.8330614 16.4632394,35.9724038 18.0923871,33.1183706 C19.6947236,30.311307 24.8346682,24.2706991 21.6080121,24.0815475 C17.3306283,23.8308005 15.6183527,30.2754423 12.1340089,32.7690811 C9.92102533,34.3528461 7.3051292,35.3430555 4.71331251,36.1725698 C4.22183326,36.3298684 3.5604955,36.0335806 3.27296701,35.6050692 C3.05647275,35.2824219 3.23575434,34.6646995 3.57755348,34.4799176 L9.72103797,29.0439869 C12.1044159,27.7554962 16.0849559,28.4699375 18.0817796,26.63871 C18.9912639,25.8046492 21.3657226,23.7079987 20.1403902,23.5617805 C15.2574809,22.9791056 10.3888227,25.0654844 5.47174799,25.1339619 C0.502542655,25.2031655 -1.4923869,21.0723724 3.34873479,21.5440845 C10.577463,22.2484416 14.700952,26.0739804 21.9580593,22.7525806 C41.9158667,13.6183823 14.9458353,27.7592321 5.13155065,15.4947849 C4.33699286,14.5018637 4.48341317,12.8770137 4.92697765,11.685181 C5.74157617,9.49640065 21.8151249,20.9827304 22.0148851,19.2286211 C22.544971,14.5738981 18.4579348,10.5551216 16.4406495,6.32688354 C15.9541207,5.30711723 15.4037802,4.24078812 14.52524,3.53029477 C14.1254154,3.20694842 12.7775165,3.05875468 12.982608,3.53029477 L13.0348878,6.94742166 C15.1435645,11.7956246 18.0416227,16.2607972 20.5449902,20.917485 L22.7066449,21.8494287 Z" id="Path-31" stroke="#FC94C7" stroke-width="10"></path>
                    <path d="M21.7304978,21.0455325 C21.6906293,20.797204 21.6480987,20.5468647 21.6034507,20.2946834 C20.628188,14.7862047 19.7677723,7.58420926 21.1768248,3.58542198 C21.8890536,1.56416901 23.2866722,1.7336362 24.0262616,1.9694785 C27.7358521,3.15240297 23.7829062,14.7356084 22.8096204,17.6617435 C22.377373,18.9612737 22.0176655,20.0892034 21.7304978,21.0455325 Z" id="Path-2" stroke="#000000" stroke-width="0.7" transform="translate(23.009785, 11.439003) rotate(-4.000000) translate(-23.009785, -11.439003) "></path>
                    <path d="M21.7304978,45.8731187 C21.6906293,45.6247902 21.6480987,45.3744509 21.6034507,45.1222696 C20.628188,39.6137909 19.7677723,32.4117955 21.1768248,28.4130082 C21.8890536,26.3917552 23.2866722,26.5612224 24.0262616,26.7970647 C27.7358521,27.9799892 23.7829062,39.5631947 22.8096204,42.4893297 C22.377373,43.7888599 22.0176655,44.9167896 21.7304978,45.8731187 Z" id="Path-2" stroke="#000000" stroke-width="0.7" transform="translate(23.009785, 36.266590) scale(1, -1) rotate(-4.000000) translate(-23.009785, -36.266590) "></path>
                    <path d="M9.19596166,34.0221448 C9.15609312,33.7738162 9.11356257,33.5234769 9.06891449,33.2712957 C8.09365185,27.7628169 7.23323612,20.5608215 8.64228861,16.5620342 C9.35451742,14.5407813 10.752136,14.7102484 11.4917254,14.9460907 C15.2013159,16.1290152 11.24837,27.7122207 10.2750843,30.6383557 C9.84283687,31.9378859 9.48312933,33.0658156 9.19596166,34.0221448 Z" id="Path-2" stroke="#000000" stroke-width="0.7" transform="translate(10.475249, 24.415616) scale(1, -1) rotate(-94.000000) translate(-10.475249, -24.415616) "></path>
                    <path d="M33.2476858,34.0221448 C33.2078173,33.7738162 33.1652867,33.5234769 33.1206386,33.2712957 C32.145376,27.7628169 31.2849603,20.5608215 32.6940127,16.5620342 C33.4062416,14.5407813 34.8038602,14.7102484 35.5434495,14.9460907 C39.2530401,16.1290152 35.3000941,27.7122207 34.3268084,30.6383557 C33.894561,31.9378859 33.5348535,33.0658156 33.2476858,34.0221448 Z" id="Path-2" stroke="#000000" stroke-width="0.7" transform="translate(34.526973, 24.415616) scale(-1, -1) rotate(-94.000000) translate(-34.526973, -24.415616) "></path>
                    <path d="M31.6959617,40.5090009 C31.6560931,40.2606723 31.6135626,40.010333 31.5689145,39.7581518 C30.5936519,34.249673 29.7332361,27.0476776 31.1422886,23.0488903 C31.8545174,21.0276373 33.252136,21.1971045 33.9917254,21.4329468 C37.7013159,22.6158713 33.74837,34.1990768 32.7750843,37.1252118 C32.3428369,38.424742 31.9831293,39.5526717 31.6959617,40.5090009 Z" id="Path-2" stroke="#000000" stroke-width="0.7" transform="translate(32.975249, 30.902472) scale(-1, -1) rotate(-62.000000) translate(-32.975249, -30.902472) "></path>
                    <path d="M10.7476858,40.5090009 C10.7078173,40.2606723 10.6652867,40.010333 10.6206386,39.7581518 C9.64537599,34.249673 8.78496026,27.0476776 10.1940127,23.0488903 C10.9062416,21.0276373 12.3038602,21.1971045 13.0434495,21.4329468 C16.7530401,22.6158713 12.8000941,34.1990768 11.8268084,37.1252118 C11.394561,38.424742 11.0348535,39.5526717 10.7476858,40.5090009 Z" id="Path-2" stroke="#000000" stroke-width="0.7" transform="translate(12.026973, 30.902472) scale(1, -1) rotate(-62.000000) translate(-12.026973, -30.902472) "></path>
                    <path d="M10.7476858,26.5434836 C10.7078173,26.2951551 10.6652867,26.0448158 10.6206386,25.7926345 C9.64537599,20.2841558 8.78496026,13.0821604 10.1940127,9.08337308 C10.9062416,7.06212011 12.3038602,7.23158729 13.0434495,7.4674296 C16.7530401,8.65035406 12.8000941,20.2335595 11.8268084,23.1596945 C11.394561,24.4592248 11.0348535,25.5871545 10.7476858,26.5434836 Z" id="Path-2" stroke="#000000" stroke-width="0.7" transform="translate(12.026973, 16.936954) rotate(-62.000000) translate(-12.026973, -16.936954) "></path>
                    <path d="M31.6959617,26.5434836 C31.6560931,26.2951551 31.6135626,26.0448158 31.5689145,25.7926345 C30.5936519,20.2841558 29.7332361,13.0821604 31.1422886,9.08337308 C31.8545174,7.06212011 33.252136,7.23158729 33.9917254,7.4674296 C37.7013159,8.65035406 33.74837,20.2335595 32.7750843,23.1596945 C32.3428369,24.4592248 31.9831293,25.5871545 31.6959617,26.5434836 Z" id="Path-2" stroke="#000000" stroke-width="0.7" transform="translate(32.975249, 16.936954) scale(-1, 1) rotate(-62.000000) translate(-32.975249, -16.936954) "></path>
                    <path d="M26.5777075,44.8842137 C26.537839,44.6358852 26.4953084,44.3855459 26.4506604,44.1333646 C25.4753977,38.6248859 24.614982,31.4228905 26.0240345,27.4241032 C26.7362633,25.4028502 28.1338819,25.5723174 28.8734713,25.8081597 C32.5830618,26.9910842 28.6301159,38.5742897 27.6568301,41.5004247 C27.2245827,42.7999549 26.8648752,43.9278846 26.5777075,44.8842137 Z" id="Path-2" stroke="#000000" stroke-width="0.7" transform="translate(27.856995, 35.277685) scale(-1, -1) rotate(-32.000000) translate(-27.856995, -35.277685) "></path>
                    <path d="M15.7156386,44.8842137 C15.67577,44.6358852 15.6332395,44.3855459 15.5885914,44.1333646 C14.6133287,38.6248859 13.752913,31.4228905 15.1619655,27.4241032 C15.8741943,25.4028502 17.2718129,25.5723174 18.0114023,25.8081597 C21.7209928,26.9910842 17.7680469,38.5742897 16.7947612,41.5004247 C16.3625138,42.7999549 16.0028062,43.9278846 15.7156386,44.8842137 Z" id="Path-2" stroke="#000000" stroke-width="0.7" transform="translate(16.994926, 35.277685) scale(1, -1) rotate(-32.000000) translate(-16.994926, -35.277685) "></path>
                    <path d="M15.7156386,22.3842137 C15.67577,22.1358852 15.6332395,21.8855459 15.5885914,21.6333646 C14.6133287,16.1248859 13.752913,8.92289046 15.1619655,4.92410319 C15.8741943,2.90285022 17.2718129,3.07231741 18.0114023,3.30815971 C21.7209928,4.49108418 17.7680469,16.0742897 16.7947612,19.0004247 C16.3625138,20.2999549 16.0028062,21.4278846 15.7156386,22.3842137 Z" id="Path-2" stroke="#000000" stroke-width="0.7" transform="translate(16.994926, 12.777685) rotate(-32.000000) translate(-16.994926, -12.777685) "></path>
                    <path d="M26.5777075,22.3842137 C26.537839,22.1358852 26.4953084,21.8855459 26.4506604,21.6333646 C25.4753977,16.1248859 24.614982,8.92289046 26.0240345,4.92410319 C26.7362633,2.90285022 28.1338819,3.07231741 28.8734713,3.30815971 C32.5830618,4.49108418 28.6301159,16.0742897 27.6568301,19.0004247 C27.2245827,20.2999549 26.8648752,21.4278846 26.5777075,22.3842137 Z" id="Path-2" stroke="#000000" stroke-width="0.7" transform="translate(27.856995, 12.777685) scale(-1, 1) rotate(-32.000000) translate(-27.856995, -12.777685) "></path>
                    <circle id="Oval" stroke="#030303" stroke-width="0.5" fill="#070707" cx="22.3917636" cy="23.8496288" r="2.44252874"></circle>
                </g>
                <g transform="translate(172.000000, 51.000000)">
                    <path d="M22.7066449,21.8494287 C22.8455525,15.3995701 22.3917636,2.77505613 22.3917636,1.47054767 C22.3917636,0.166039208 24.7642652,0.0676685082 24.7642652,0.0676685082 C24.8667844,0.0676685082 19.6352107,13.8999201 23.3089988,20.5234925 C23.7748696,21.3634237 24.9862155,19.4430141 25.4623191,18.6088407 C28.2274352,13.764126 28.2767312,8.31922055 31.137381,3.53029477 C31.3964646,3.09657082 33.7790706,4.55000184 33.5823521,5.01534326 C30.8701016,11.4312252 27.0781948,17.3582485 24.4235428,23.798176 C23.9604248,24.9216552 25.9146551,21.8181953 26.9306987,21.1516074 C29.9045723,19.2005609 33.4731914,18.1959445 36.2842311,16.0168249 C36.946112,15.5037345 38.8672418,14.7702189 39.7112078,13.666131 C40.9443134,12.0529656 40.9000347,10.0756499 39.7112078,10.3653147 C35.2899214,11.4425873 26.6260945,19.2718547 23.8014894,23.7443808 C23.5241361,24.1835465 24.3262496,24.7806847 24.8273851,24.9172661 C29.4390685,26.174152 41.8486569,17.8909286 44.4497248,24.8816552 C45.0624707,26.5284939 40.9301072,25.3835322 39.1861371,25.1688151 C35.1658474,24.6738383 31.3074526,23.1389987 27.2739267,22.7669765 C26.2768115,22.67501 23.7237541,23.1282269 24.4568807,23.8102988 C36.4341229,34.9534509 31.137381,23.5617805 39.7112078,33.2874232 C40.3763498,34.041921 40.0707514,37.0727789 39.1861371,36.5698695 C36.7765767,35.2000179 34.9151172,33.0307836 32.8027016,31.2362989 C16.4782431,17.368767 30.9640669,34.0912808 32.4698285,37.9703254 C33.7617046,41.2983721 34.4216974,48.2212063 32.8027016,45.0394314 C31.5649361,42.6068794 30.373693,42.7700962 29.6375596,40.4196629 C28.2226074,35.9017981 27.5491644,30.9654692 24.8667844,26.4568674 C24.0002948,25.0004532 16.4752782,57.2737436 23.8014894,43.5549143 C26.3881531,38.7112103 27.1804642,25.9189488 23.5984317,30.0808403 L23.0589651,24.5543384 C19.1039454,29.1495963 19.2777462,35.9132731 16.3221992,41.2319853 C15.7028616,42.3465263 13.0348878,43.6524789 12.1340089,43.2707842 C11.23313,42.8890896 11.0826886,40.4437013 11.5339281,39.6709404 C13.1910552,36.8330614 16.4632394,35.9724038 18.0923871,33.1183706 C19.6947236,30.311307 24.8346682,24.2706991 21.6080121,24.0815475 C17.3306283,23.8308005 15.6183527,30.2754423 12.1340089,32.7690811 C9.92102533,34.3528461 7.3051292,35.3430555 4.71331251,36.1725698 C4.22183326,36.3298684 3.5604955,36.0335806 3.27296701,35.6050692 C3.05647275,35.2824219 3.23575434,34.6646995 3.57755348,34.4799176 L9.72103797,29.0439869 C12.1044159,27.7554962 16.0849559,28.4699375 18.0817796,26.63871 C18.9912639,25.8046492 21.3657226,23.7079987 20.1403902,23.5617805 C15.2574809,22.9791056 10.3888227,25.0654844 5.47174799,25.1339619 C0.502542655,25.2031655 -1.4923869,21.0723724 3.34873479,21.5440845 C10.577463,22.2484416 14.700952,26.0739804 21.9580593,22.7525806 C41.9158667,13.6183823 14.9458353,27.7592321 5.13155065,15.4947849 C4.33699286,14.5018637 4.48341317,12.8770137 4.92697765,11.685181 C5.74157617,9.49640065 21.8151249,20.9827304 22.0148851,19.2286211 C22.544971,14.5738981 18.4579348,10.5551216 16.4406495,6.32688354 C15.9541207,5.30711723 15.4037802,4.24078812 14.52524,3.53029477 C14.1254154,3.20694842 12.7775165,3.05875468 12.982608,3.53029477 L13.0348878,6.94742166 C15.1435645,11.7956246 18.0416227,16.2607972 20.5449902,20.917485 L22.7066449,21.8494287 Z" id="Path-31" stroke="#FC94C7" stroke-width="10"></path>
                    <path d="M21.7304978,21.0455325 C21.6906293,20.797204 21.6480987,20.5468647 21.6034507,20.2946834 C20.628188,14.7862047 19.7677723,7.58420926 21.1768248,3.58542198 C21.8890536,1.56416901 23.2866722,1.7336362 24.0262616,1.9694785 C27.7358521,3.15240297 23.7829062,14.7356084 22.8096204,17.6617435 C22.377373,18.9612737 22.0176655,20.0892034 21.7304978,21.0455325 Z" id="Path-2" stroke="#000000" stroke-width="0.7" transform="translate(23.009785, 11.439003) rotate(-4.000000) translate(-23.009785, -11.439003) "></path>
                    <path d="M21.7304978,45.8731187 C21.6906293,45.6247902 21.6480987,45.3744509 21.6034507,45.1222696 C20.628188,39.6137909 19.7677723,32.4117955 21.1768248,28.4130082 C21.8890536,26.3917552 23.2866722,26.5612224 24.0262616,26.7970647 C27.7358521,27.9799892 23.7829062,39.5631947 22.8096204,42.4893297 C22.377373,43.7888599 22.0176655,44.9167896 21.7304978,45.8731187 Z" id="Path-2" stroke="#000000" stroke-width="0.7" transform="translate(23.009785, 36.266590) scale(1, -1) rotate(-4.000000) translate(-23.009785, -36.266590) "></path>
                    <path d="M9.19596166,34.0221448 C9.15609312,33.7738162 9.11356257,33.5234769 9.06891449,33.2712957 C8.09365185,27.7628169 7.23323612,20.5608215 8.64228861,16.5620342 C9.35451742,14.5407813 10.752136,14.7102484 11.4917254,14.9460907 C15.2013159,16.1290152 11.24837,27.7122207 10.2750843,30.6383557 C9.84283687,31.9378859 9.48312933,33.0658156 9.19596166,34.0221448 Z" id="Path-2" stroke="#000000" stroke-width="0.7" transform="translate(10.475249, 24.415616) scale(1, -1) rotate(-94.000000) translate(-10.475249, -24.415616) "></path>
                    <path d="M33.2476858,34.0221448 C33.2078173,33.7738162 33.1652867,33.5234769 33.1206386,33.2712957 C32.145376,27.7628169 31.2849603,20.5608215 32.6940127,16.5620342 C33.4062416,14.5407813 34.8038602,14.7102484 35.5434495,14.9460907 C39.2530401,16.1290152 35.3000941,27.7122207 34.3268084,30.6383557 C33.894561,31.9378859 33.5348535,33.0658156 33.2476858,34.0221448 Z" id="Path-2" stroke="#000000" stroke-width="0.7" transform="translate(34.526973, 24.415616) scale(-1, -1) rotate(-94.000000) translate(-34.526973, -24.415616) "></path>
                    <path d="M31.6959617,40.5090009 C31.6560931,40.2606723 31.6135626,40.010333 31.5689145,39.7581518 C30.5936519,34.249673 29.7332361,27.0476776 31.1422886,23.0488903 C31.8545174,21.0276373 33.252136,21.1971045 33.9917254,21.4329468 C37.7013159,22.6158713 33.74837,34.1990768 32.7750843,37.1252118 C32.3428369,38.424742 31.9831293,39.5526717 31.6959617,40.5090009 Z" id="Path-2" stroke="#000000" stroke-width="0.7" transform="translate(32.975249, 30.902472) scale(-1, -1) rotate(-62.000000) translate(-32.975249, -30.902472) "></path>
                    <path d="M10.7476858,40.5090009 C10.7078173,40.2606723 10.6652867,40.010333 10.6206386,39.7581518 C9.64537599,34.249673 8.78496026,27.0476776 10.1940127,23.0488903 C10.9062416,21.0276373 12.3038602,21.1971045 13.0434495,21.4329468 C16.7530401,22.6158713 12.8000941,34.1990768 11.8268084,37.1252118 C11.394561,38.424742 11.0348535,39.5526717 10.7476858,40.5090009 Z" id="Path-2" stroke="#000000" stroke-width="0.7" transform="translate(12.026973, 30.902472) scale(1, -1) rotate(-62.000000) translate(-12.026973, -30.902472) "></path>
                    <path d="M10.7476858,26.5434836 C10.7078173,26.2951551 10.6652867,26.0448158 10.6206386,25.7926345 C9.64537599,20.2841558 8.78496026,13.0821604 10.1940127,9.08337308 C10.9062416,7.06212011 12.3038602,7.23158729 13.0434495,7.4674296 C16.7530401,8.65035406 12.8000941,20.2335595 11.8268084,23.1596945 C11.394561,24.4592248 11.0348535,25.5871545 10.7476858,26.5434836 Z" id="Path-2" stroke="#000000" stroke-width="0.7" transform="translate(12.026973, 16.936954) rotate(-62.000000) translate(-12.026973, -16.936954) "></path>
                    <path d="M31.6959617,26.5434836 C31.6560931,26.2951551 31.6135626,26.0448158 31.5689145,25.7926345 C30.5936519,20.2841558 29.7332361,13.0821604 31.1422886,9.08337308 C31.8545174,7.06212011 33.252136,7.23158729 33.9917254,7.4674296 C37.7013159,8.65035406 33.74837,20.2335595 32.7750843,23.1596945 C32.3428369,24.4592248 31.9831293,25.5871545 31.6959617,26.5434836 Z" id="Path-2" stroke="#000000" stroke-width="0.7" transform="translate(32.975249, 16.936954) scale(-1, 1) rotate(-62.000000) translate(-32.975249, -16.936954) "></path>
                    <path d="M26.5777075,44.8842137 C26.537839,44.6358852 26.4953084,44.3855459 26.4506604,44.1333646 C25.4753977,38.6248859 24.614982,31.4228905 26.0240345,27.4241032 C26.7362633,25.4028502 28.1338819,25.5723174 28.8734713,25.8081597 C32.5830618,26.9910842 28.6301159,38.5742897 27.6568301,41.5004247 C27.2245827,42.7999549 26.8648752,43.9278846 26.5777075,44.8842137 Z" id="Path-2" stroke="#000000" stroke-width="0.7" transform="translate(27.856995, 35.277685) scale(-1, -1) rotate(-32.000000) translate(-27.856995, -35.277685) "></path>
                    <path d="M15.7156386,44.8842137 C15.67577,44.6358852 15.6332395,44.3855459 15.5885914,44.1333646 C14.6133287,38.6248859 13.752913,31.4228905 15.1619655,27.4241032 C15.8741943,25.4028502 17.2718129,25.5723174 18.0114023,25.8081597 C21.7209928,26.9910842 17.7680469,38.5742897 16.7947612,41.5004247 C16.3625138,42.7999549 16.0028062,43.9278846 15.7156386,44.8842137 Z" id="Path-2" stroke="#000000" stroke-width="0.7" transform="translate(16.994926, 35.277685) scale(1, -1) rotate(-32.000000) translate(-16.994926, -35.277685) "></path>
                    <path d="M15.7156386,22.3842137 C15.67577,22.1358852 15.6332395,21.8855459 15.5885914,21.6333646 C14.6133287,16.1248859 13.752913,8.92289046 15.1619655,4.92410319 C15.8741943,2.90285022 17.2718129,3.07231741 18.0114023,3.30815971 C21.7209928,4.49108418 17.7680469,16.0742897 16.7947612,19.0004247 C16.3625138,20.2999549 16.0028062,21.4278846 15.7156386,22.3842137 Z" id="Path-2" stroke="#000000" stroke-width="0.7" transform="translate(16.994926, 12.777685) rotate(-32.000000) translate(-16.994926, -12.777685) "></path>
                    <path d="M26.5777075,22.3842137 C26.537839,22.1358852 26.4953084,21.8855459 26.4506604,21.6333646 C25.4753977,16.1248859 24.614982,8.92289046 26.0240345,4.92410319 C26.7362633,2.90285022 28.1338819,3.07231741 28.8734713,3.30815971 C32.5830618,4.49108418 28.6301159,16.0742897 27.6568301,19.0004247 C27.2245827,20.2999549 26.8648752,21.4278846 26.5777075,22.3842137 Z" id="Path-2" stroke="#000000" stroke-width="0.7" transform="translate(27.856995, 12.777685) scale(-1, 1) rotate(-32.000000) translate(-27.856995, -12.777685) "></path>
                    <circle id="Oval" stroke="#030303" stroke-width="0.5" fill="#070707" cx="22.3917636" cy="23.8496288" r="2.44252874"></circle>
                </g>
                <g transform="translate(109.000000, 0.000000)">
                    <path d="M22.7066449,21.8494287 C22.8455525,15.3995701 22.3917636,2.77505613 22.3917636,1.47054767 C22.3917636,0.166039208 24.7642652,0.0676685082 24.7642652,0.0676685082 C24.8667844,0.0676685082 19.6352107,13.8999201 23.3089988,20.5234925 C23.7748696,21.3634237 24.9862155,19.4430141 25.4623191,18.6088407 C28.2274352,13.764126 28.2767312,8.31922055 31.137381,3.53029477 C31.3964646,3.09657082 33.7790706,4.55000184 33.5823521,5.01534326 C30.8701016,11.4312252 27.0781948,17.3582485 24.4235428,23.798176 C23.9604248,24.9216552 25.9146551,21.8181953 26.9306987,21.1516074 C29.9045723,19.2005609 33.4731914,18.1959445 36.2842311,16.0168249 C36.946112,15.5037345 38.8672418,14.7702189 39.7112078,13.666131 C40.9443134,12.0529656 40.9000347,10.0756499 39.7112078,10.3653147 C35.2899214,11.4425873 26.6260945,19.2718547 23.8014894,23.7443808 C23.5241361,24.1835465 24.3262496,24.7806847 24.8273851,24.9172661 C29.4390685,26.174152 41.8486569,17.8909286 44.4497248,24.8816552 C45.0624707,26.5284939 40.9301072,25.3835322 39.1861371,25.1688151 C35.1658474,24.6738383 31.3074526,23.1389987 27.2739267,22.7669765 C26.2768115,22.67501 23.7237541,23.1282269 24.4568807,23.8102988 C36.4341229,34.9534509 31.137381,23.5617805 39.7112078,33.2874232 C40.3763498,34.041921 40.0707514,37.0727789 39.1861371,36.5698695 C36.7765767,35.2000179 34.9151172,33.0307836 32.8027016,31.2362989 C16.4782431,17.368767 30.9640669,34.0912808 32.4698285,37.9703254 C33.7617046,41.2983721 34.4216974,48.2212063 32.8027016,45.0394314 C31.5649361,42.6068794 30.373693,42.7700962 29.6375596,40.4196629 C28.2226074,35.9017981 27.5491644,30.9654692 24.8667844,26.4568674 C24.0002948,25.0004532 16.4752782,57.2737436 23.8014894,43.5549143 C26.3881531,38.7112103 27.1804642,25.9189488 23.5984317,30.0808403 L23.0589651,24.5543384 C19.1039454,29.1495963 19.2777462,35.9132731 16.3221992,41.2319853 C15.7028616,42.3465263 13.0348878,43.6524789 12.1340089,43.2707842 C11.23313,42.8890896 11.0826886,40.4437013 11.5339281,39.6709404 C13.1910552,36.8330614 16.4632394,35.9724038 18.0923871,33.1183706 C19.6947236,30.311307 24.8346682,24.2706991 21.6080121,24.0815475 C17.3306283,23.8308005 15.6183527,30.2754423 12.1340089,32.7690811 C9.92102533,34.3528461 7.3051292,35.3430555 4.71331251,36.1725698 C4.22183326,36.3298684 3.5604955,36.0335806 3.27296701,35.6050692 C3.05647275,35.2824219 3.23575434,34.6646995 3.57755348,34.4799176 L9.72103797,29.0439869 C12.1044159,27.7554962 16.0849559,28.4699375 18.0817796,26.63871 C18.9912639,25.8046492 21.3657226,23.7079987 20.1403902,23.5617805 C15.2574809,22.9791056 10.3888227,25.0654844 5.47174799,25.1339619 C0.502542655,25.2031655 -1.4923869,21.0723724 3.34873479,21.5440845 C10.577463,22.2484416 14.700952,26.0739804 21.9580593,22.7525806 C41.9158667,13.6183823 14.9458353,27.7592321 5.13155065,15.4947849 C4.33699286,14.5018637 4.48341317,12.8770137 4.92697765,11.685181 C5.74157617,9.49640065 21.8151249,20.9827304 22.0148851,19.2286211 C22.544971,14.5738981 18.4579348,10.5551216 16.4406495,6.32688354 C15.9541207,5.30711723 15.4037802,4.24078812 14.52524,3.53029477 C14.1254154,3.20694842 12.7775165,3.05875468 12.982608,3.53029477 L13.0348878,6.94742166 C15.1435645,11.7956246 18.0416227,16.2607972 20.5449902,20.917485 L22.7066449,21.8494287 Z" id="Path-31" stroke="#FC94C7" stroke-width="10"></path>
                    <path d="M21.7304978,21.0455325 C21.6906293,20.797204 21.6480987,20.5468647 21.6034507,20.2946834 C20.628188,14.7862047 19.7677723,7.58420926 21.1768248,3.58542198 C21.8890536,1.56416901 23.2866722,1.7336362 24.0262616,1.9694785 C27.7358521,3.15240297 23.7829062,14.7356084 22.8096204,17.6617435 C22.377373,18.9612737 22.0176655,20.0892034 21.7304978,21.0455325 Z" id="Path-2" stroke="#000000" stroke-width="0.7" transform="translate(23.009785, 11.439003) rotate(-4.000000) translate(-23.009785, -11.439003) "></path>
                    <path d="M21.7304978,45.8731187 C21.6906293,45.6247902 21.6480987,45.3744509 21.6034507,45.1222696 C20.628188,39.6137909 19.7677723,32.4117955 21.1768248,28.4130082 C21.8890536,26.3917552 23.2866722,26.5612224 24.0262616,26.7970647 C27.7358521,27.9799892 23.7829062,39.5631947 22.8096204,42.4893297 C22.377373,43.7888599 22.0176655,44.9167896 21.7304978,45.8731187 Z" id="Path-2" stroke="#000000" stroke-width="0.7" transform="translate(23.009785, 36.266590) scale(1, -1) rotate(-4.000000) translate(-23.009785, -36.266590) "></path>
                    <path d="M9.19596166,34.0221448 C9.15609312,33.7738162 9.11356257,33.5234769 9.06891449,33.2712957 C8.09365185,27.7628169 7.23323612,20.5608215 8.64228861,16.5620342 C9.35451742,14.5407813 10.752136,14.7102484 11.4917254,14.9460907 C15.2013159,16.1290152 11.24837,27.7122207 10.2750843,30.6383557 C9.84283687,31.9378859 9.48312933,33.0658156 9.19596166,34.0221448 Z" id="Path-2" stroke="#000000" stroke-width="0.7" transform="translate(10.475249, 24.415616) scale(1, -1) rotate(-94.000000) translate(-10.475249, -24.415616) "></path>
                    <path d="M33.2476858,34.0221448 C33.2078173,33.7738162 33.1652867,33.5234769 33.1206386,33.2712957 C32.145376,27.7628169 31.2849603,20.5608215 32.6940127,16.5620342 C33.4062416,14.5407813 34.8038602,14.7102484 35.5434495,14.9460907 C39.2530401,16.1290152 35.3000941,27.7122207 34.3268084,30.6383557 C33.894561,31.9378859 33.5348535,33.0658156 33.2476858,34.0221448 Z" id="Path-2" stroke="#000000" stroke-width="0.7" transform="translate(34.526973, 24.415616) scale(-1, -1) rotate(-94.000000) translate(-34.526973, -24.415616) "></path>
                    <path d="M31.6959617,40.5090009 C31.6560931,40.2606723 31.6135626,40.010333 31.5689145,39.7581518 C30.5936519,34.249673 29.7332361,27.0476776 31.1422886,23.0488903 C31.8545174,21.0276373 33.252136,21.1971045 33.9917254,21.4329468 C37.7013159,22.6158713 33.74837,34.1990768 32.7750843,37.1252118 C32.3428369,38.424742 31.9831293,39.5526717 31.6959617,40.5090009 Z" id="Path-2" stroke="#000000" stroke-width="0.7" transform="translate(32.975249, 30.902472) scale(-1, -1) rotate(-62.000000) translate(-32.975249, -30.902472) "></path>
                    <path d="M10.7476858,40.5090009 C10.7078173,40.2606723 10.6652867,40.010333 10.6206386,39.7581518 C9.64537599,34.249673 8.78496026,27.0476776 10.1940127,23.0488903 C10.9062416,21.0276373 12.3038602,21.1971045 13.0434495,21.4329468 C16.7530401,22.6158713 12.8000941,34.1990768 11.8268084,37.1252118 C11.394561,38.424742 11.0348535,39.5526717 10.7476858,40.5090009 Z" id="Path-2" stroke="#000000" stroke-width="0.7" transform="translate(12.026973, 30.902472) scale(1, -1) rotate(-62.000000) translate(-12.026973, -30.902472) "></path>
                    <path d="M10.7476858,26.5434836 C10.7078173,26.2951551 10.6652867,26.0448158 10.6206386,25.7926345 C9.64537599,20.2841558 8.78496026,13.0821604 10.1940127,9.08337308 C10.9062416,7.06212011 12.3038602,7.23158729 13.0434495,7.4674296 C16.7530401,8.65035406 12.8000941,20.2335595 11.8268084,23.1596945 C11.394561,24.4592248 11.0348535,25.5871545 10.7476858,26.5434836 Z" id="Path-2" stroke="#000000" stroke-width="0.7" transform="translate(12.026973, 16.936954) rotate(-62.000000) translate(-12.026973, -16.936954) "></path>
                    <path d="M31.6959617,26.5434836 C31.6560931,26.2951551 31.6135626,26.0448158 31.5689145,25.7926345 C30.5936519,20.2841558 29.7332361,13.0821604 31.1422886,9.08337308 C31.8545174,7.06212011 33.252136,7.23158729 33.9917254,7.4674296 C37.7013159,8.65035406 33.74837,20.2335595 32.7750843,23.1596945 C32.3428369,24.4592248 31.9831293,25.5871545 31.6959617,26.5434836 Z" id="Path-2" stroke="#000000" stroke-width="0.7" transform="translate(32.975249, 16.936954) scale(-1, 1) rotate(-62.000000) translate(-32.975249, -16.936954) "></path>
                    <path d="M26.5777075,44.8842137 C26.537839,44.6358852 26.4953084,44.3855459 26.4506604,44.1333646 C25.4753977,38.6248859 24.614982,31.4228905 26.0240345,27.4241032 C26.7362633,25.4028502 28.1338819,25.5723174 28.8734713,25.8081597 C32.5830618,26.9910842 28.6301159,38.5742897 27.6568301,41.5004247 C27.2245827,42.7999549 26.8648752,43.9278846 26.5777075,44.8842137 Z" id="Path-2" stroke="#000000" stroke-width="0.7" transform="translate(27.856995, 35.277685) scale(-1, -1) rotate(-32.000000) translate(-27.856995, -35.277685) "></path>
                    <path d="M15.7156386,44.8842137 C15.67577,44.6358852 15.6332395,44.3855459 15.5885914,44.1333646 C14.6133287,38.6248859 13.752913,31.4228905 15.1619655,27.4241032 C15.8741943,25.4028502 17.2718129,25.5723174 18.0114023,25.8081597 C21.7209928,26.9910842 17.7680469,38.5742897 16.7947612,41.5004247 C16.3625138,42.7999549 16.0028062,43.9278846 15.7156386,44.8842137 Z" id="Path-2" stroke="#000000" stroke-width="0.7" transform="translate(16.994926, 35.277685) scale(1, -1) rotate(-32.000000) translate(-16.994926, -35.277685) "></path>
                    <path d="M15.7156386,22.3842137 C15.67577,22.1358852 15.6332395,21.8855459 15.5885914,21.6333646 C14.6133287,16.1248859 13.752913,8.92289046 15.1619655,4.92410319 C15.8741943,2.90285022 17.2718129,3.07231741 18.0114023,3.30815971 C21.7209928,4.49108418 17.7680469,16.0742897 16.7947612,19.0004247 C16.3625138,20.2999549 16.0028062,21.4278846 15.7156386,22.3842137 Z" id="Path-2" stroke="#000000" stroke-width="0.7" transform="translate(16.994926, 12.777685) rotate(-32.000000) translate(-16.994926, -12.777685) "></path>
                    <path d="M26.5777075,22.3842137 C26.537839,22.1358852 26.4953084,21.8855459 26.4506604,21.6333646 C25.4753977,16.1248859 24.614982,8.92289046 26.0240345,4.92410319 C26.7362633,2.90285022 28.1338819,3.07231741 28.8734713,3.30815971 C32.5830618,4.49108418 28.6301159,16.0742897 27.6568301,19.0004247 C27.2245827,20.2999549 26.8648752,21.4278846 26.5777075,22.3842137 Z" id="Path-2" stroke="#000000" stroke-width="0.7" transform="translate(27.856995, 12.777685) scale(-1, 1) rotate(-32.000000) translate(-27.856995, -12.777685) "></path>
                    <circle id="Oval" stroke="#030303" stroke-width="0.5" fill="#070707" cx="22.3917636" cy="23.8496288" r="2.44252874"></circle>
                </g>
                <g transform="translate(100.000000, 63.000000)">
                    <path d="M22.7066449,21.8494287 C22.8455525,15.3995701 22.3917636,2.77505613 22.3917636,1.47054767 C22.3917636,0.166039208 24.7642652,0.0676685082 24.7642652,0.0676685082 C24.8667844,0.0676685082 19.6352107,13.8999201 23.3089988,20.5234925 C23.7748696,21.3634237 24.9862155,19.4430141 25.4623191,18.6088407 C28.2274352,13.764126 28.2767312,8.31922055 31.137381,3.53029477 C31.3964646,3.09657082 33.7790706,4.55000184 33.5823521,5.01534326 C30.8701016,11.4312252 27.0781948,17.3582485 24.4235428,23.798176 C23.9604248,24.9216552 25.9146551,21.8181953 26.9306987,21.1516074 C29.9045723,19.2005609 33.4731914,18.1959445 36.2842311,16.0168249 C36.946112,15.5037345 38.8672418,14.7702189 39.7112078,13.666131 C40.9443134,12.0529656 40.9000347,10.0756499 39.7112078,10.3653147 C35.2899214,11.4425873 26.6260945,19.2718547 23.8014894,23.7443808 C23.5241361,24.1835465 24.3262496,24.7806847 24.8273851,24.9172661 C29.4390685,26.174152 41.8486569,17.8909286 44.4497248,24.8816552 C45.0624707,26.5284939 40.9301072,25.3835322 39.1861371,25.1688151 C35.1658474,24.6738383 31.3074526,23.1389987 27.2739267,22.7669765 C26.2768115,22.67501 23.7237541,23.1282269 24.4568807,23.8102988 C36.4341229,34.9534509 31.137381,23.5617805 39.7112078,33.2874232 C40.3763498,34.041921 40.0707514,37.0727789 39.1861371,36.5698695 C36.7765767,35.2000179 34.9151172,33.0307836 32.8027016,31.2362989 C16.4782431,17.368767 30.9640669,34.0912808 32.4698285,37.9703254 C33.7617046,41.2983721 34.4216974,48.2212063 32.8027016,45.0394314 C31.5649361,42.6068794 30.373693,42.7700962 29.6375596,40.4196629 C28.2226074,35.9017981 27.5491644,30.9654692 24.8667844,26.4568674 C24.0002948,25.0004532 16.4752782,57.2737436 23.8014894,43.5549143 C26.3881531,38.7112103 27.1804642,25.9189488 23.5984317,30.0808403 L23.0589651,24.5543384 C19.1039454,29.1495963 19.2777462,35.9132731 16.3221992,41.2319853 C15.7028616,42.3465263 13.0348878,43.6524789 12.1340089,43.2707842 C11.23313,42.8890896 11.0826886,40.4437013 11.5339281,39.6709404 C13.1910552,36.8330614 16.4632394,35.9724038 18.0923871,33.1183706 C19.6947236,30.311307 24.8346682,24.2706991 21.6080121,24.0815475 C17.3306283,23.8308005 15.6183527,30.2754423 12.1340089,32.7690811 C9.92102533,34.3528461 7.3051292,35.3430555 4.71331251,36.1725698 C4.22183326,36.3298684 3.5604955,36.0335806 3.27296701,35.6050692 C3.05647275,35.2824219 3.23575434,34.6646995 3.57755348,34.4799176 L9.72103797,29.0439869 C12.1044159,27.7554962 16.0849559,28.4699375 18.0817796,26.63871 C18.9912639,25.8046492 21.3657226,23.7079987 20.1403902,23.5617805 C15.2574809,22.9791056 10.3888227,25.0654844 5.47174799,25.1339619 C0.502542655,25.2031655 -1.4923869,21.0723724 3.34873479,21.5440845 C10.577463,22.2484416 14.700952,26.0739804 21.9580593,22.7525806 C41.9158667,13.6183823 14.9458353,27.7592321 5.13155065,15.4947849 C4.33699286,14.5018637 4.48341317,12.8770137 4.92697765,11.685181 C5.74157617,9.49640065 21.8151249,20.9827304 22.0148851,19.2286211 C22.544971,14.5738981 18.4579348,10.5551216 16.4406495,6.32688354 C15.9541207,5.30711723 15.4037802,4.24078812 14.52524,3.53029477 C14.1254154,3.20694842 12.7775165,3.05875468 12.982608,3.53029477 L13.0348878,6.94742166 C15.1435645,11.7956246 18.0416227,16.2607972 20.5449902,20.917485 L22.7066449,21.8494287 Z" id="Path-31" stroke="#FC94C7" stroke-width="10"></path>
                    <path d="M21.7304978,21.0455325 C21.6906293,20.797204 21.6480987,20.5468647 21.6034507,20.2946834 C20.628188,14.7862047 19.7677723,7.58420926 21.1768248,3.58542198 C21.8890536,1.56416901 23.2866722,1.7336362 24.0262616,1.9694785 C27.7358521,3.15240297 23.7829062,14.7356084 22.8096204,17.6617435 C22.377373,18.9612737 22.0176655,20.0892034 21.7304978,21.0455325 Z" id="Path-2" stroke="#000000" stroke-width="0.7" transform="translate(23.009785, 11.439003) rotate(-4.000000) translate(-23.009785, -11.439003) "></path>
                    <path d="M21.7304978,45.8731187 C21.6906293,45.6247902 21.6480987,45.3744509 21.6034507,45.1222696 C20.628188,39.6137909 19.7677723,32.4117955 21.1768248,28.4130082 C21.8890536,26.3917552 23.2866722,26.5612224 24.0262616,26.7970647 C27.7358521,27.9799892 23.7829062,39.5631947 22.8096204,42.4893297 C22.377373,43.7888599 22.0176655,44.9167896 21.7304978,45.8731187 Z" id="Path-2" stroke="#000000" stroke-width="0.7" transform="translate(23.009785, 36.266590) scale(1, -1) rotate(-4.000000) translate(-23.009785, -36.266590) "></path>
                    <path d="M9.19596166,34.0221448 C9.15609312,33.7738162 9.11356257,33.5234769 9.06891449,33.2712957 C8.09365185,27.7628169 7.23323612,20.5608215 8.64228861,16.5620342 C9.35451742,14.5407813 10.752136,14.7102484 11.4917254,14.9460907 C15.2013159,16.1290152 11.24837,27.7122207 10.2750843,30.6383557 C9.84283687,31.9378859 9.48312933,33.0658156 9.19596166,34.0221448 Z" id="Path-2" stroke="#000000" stroke-width="0.7" transform="translate(10.475249, 24.415616) scale(1, -1) rotate(-94.000000) translate(-10.475249, -24.415616) "></path>
                    <path d="M33.2476858,34.0221448 C33.2078173,33.7738162 33.1652867,33.5234769 33.1206386,33.2712957 C32.145376,27.7628169 31.2849603,20.5608215 32.6940127,16.5620342 C33.4062416,14.5407813 34.8038602,14.7102484 35.5434495,14.9460907 C39.2530401,16.1290152 35.3000941,27.7122207 34.3268084,30.6383557 C33.894561,31.9378859 33.5348535,33.0658156 33.2476858,34.0221448 Z" id="Path-2" stroke="#000000" stroke-width="0.7" transform="translate(34.526973, 24.415616) scale(-1, -1) rotate(-94.000000) translate(-34.526973, -24.415616) "></path>
                    <path d="M31.6959617,40.5090009 C31.6560931,40.2606723 31.6135626,40.010333 31.5689145,39.7581518 C30.5936519,34.249673 29.7332361,27.0476776 31.1422886,23.0488903 C31.8545174,21.0276373 33.252136,21.1971045 33.9917254,21.4329468 C37.7013159,22.6158713 33.74837,34.1990768 32.7750843,37.1252118 C32.3428369,38.424742 31.9831293,39.5526717 31.6959617,40.5090009 Z" id="Path-2" stroke="#000000" stroke-width="0.7" transform="translate(32.975249, 30.902472) scale(-1, -1) rotate(-62.000000) translate(-32.975249, -30.902472) "></path>
                    <path d="M10.7476858,40.5090009 C10.7078173,40.2606723 10.6652867,40.010333 10.6206386,39.7581518 C9.64537599,34.249673 8.78496026,27.0476776 10.1940127,23.0488903 C10.9062416,21.0276373 12.3038602,21.1971045 13.0434495,21.4329468 C16.7530401,22.6158713 12.8000941,34.1990768 11.8268084,37.1252118 C11.394561,38.424742 11.0348535,39.5526717 10.7476858,40.5090009 Z" id="Path-2" stroke="#000000" stroke-width="0.7" transform="translate(12.026973, 30.902472) scale(1, -1) rotate(-62.000000) translate(-12.026973, -30.902472) "></path>
                    <path d="M10.7476858,26.5434836 C10.7078173,26.2951551 10.6652867,26.0448158 10.6206386,25.7926345 C9.64537599,20.2841558 8.78496026,13.0821604 10.1940127,9.08337308 C10.9062416,7.06212011 12.3038602,7.23158729 13.0434495,7.4674296 C16.7530401,8.65035406 12.8000941,20.2335595 11.8268084,23.1596945 C11.394561,24.4592248 11.0348535,25.5871545 10.7476858,26.5434836 Z" id="Path-2" stroke="#000000" stroke-width="0.7" transform="translate(12.026973, 16.936954) rotate(-62.000000) translate(-12.026973, -16.936954) "></path>
                    <path d="M31.6959617,26.5434836 C31.6560931,26.2951551 31.6135626,26.0448158 31.5689145,25.7926345 C30.5936519,20.2841558 29.7332361,13.0821604 31.1422886,9.08337308 C31.8545174,7.06212011 33.252136,7.23158729 33.9917254,7.4674296 C37.7013159,8.65035406 33.74837,20.2335595 32.7750843,23.1596945 C32.3428369,24.4592248 31.9831293,25.5871545 31.6959617,26.5434836 Z" id="Path-2" stroke="#000000" stroke-width="0.7" transform="translate(32.975249, 16.936954) scale(-1, 1) rotate(-62.000000) translate(-32.975249, -16.936954) "></path>
                    <path d="M26.5777075,44.8842137 C26.537839,44.6358852 26.4953084,44.3855459 26.4506604,44.1333646 C25.4753977,38.6248859 24.614982,31.4228905 26.0240345,27.4241032 C26.7362633,25.4028502 28.1338819,25.5723174 28.8734713,25.8081597 C32.5830618,26.9910842 28.6301159,38.5742897 27.6568301,41.5004247 C27.2245827,42.7999549 26.8648752,43.9278846 26.5777075,44.8842137 Z" id="Path-2" stroke="#000000" stroke-width="0.7" transform="translate(27.856995, 35.277685) scale(-1, -1) rotate(-32.000000) translate(-27.856995, -35.277685) "></path>
                    <path d="M15.7156386,44.8842137 C15.67577,44.6358852 15.6332395,44.3855459 15.5885914,44.1333646 C14.6133287,38.6248859 13.752913,31.4228905 15.1619655,27.4241032 C15.8741943,25.4028502 17.2718129,25.5723174 18.0114023,25.8081597 C21.7209928,26.9910842 17.7680469,38.5742897 16.7947612,41.5004247 C16.3625138,42.7999549 16.0028062,43.9278846 15.7156386,44.8842137 Z" id="Path-2" stroke="#000000" stroke-width="0.7" transform="translate(16.994926, 35.277685) scale(1, -1) rotate(-32.000000) translate(-16.994926, -35.277685) "></path>
                    <path d="M15.7156386,22.3842137 C15.67577,22.1358852 15.6332395,21.8855459 15.5885914,21.6333646 C14.6133287,16.1248859 13.752913,8.92289046 15.1619655,4.92410319 C15.8741943,2.90285022 17.2718129,3.07231741 18.0114023,3.30815971 C21.7209928,4.49108418 17.7680469,16.0742897 16.7947612,19.0004247 C16.3625138,20.2999549 16.0028062,21.4278846 15.7156386,22.3842137 Z" id="Path-2" stroke="#000000" stroke-width="0.7" transform="translate(16.994926, 12.777685) rotate(-32.000000) translate(-16.994926, -12.777685) "></path>
                    <path d="M26.5777075,22.3842137 C26.537839,22.1358852 26.4953084,21.8855459 26.4506604,21.6333646 C25.4753977,16.1248859 24.614982,8.92289046 26.0240345,4.92410319 C26.7362633,2.90285022 28.1338819,3.07231741 28.8734713,3.30815971 C32.5830618,4.49108418 28.6301159,16.0742897 27.6568301,19.0004247 C27.2245827,20.2999549 26.8648752,21.4278846 26.5777075,22.3842137 Z" id="Path-2" stroke="#000000" stroke-width="0.7" transform="translate(27.856995, 12.777685) scale(-1, 1) rotate(-32.000000) translate(-27.856995, -12.777685) "></path>
                    <circle id="Oval" stroke="#030303" stroke-width="0.5" fill="#070707" cx="22.3917636" cy="23.8496288" r="2.44252874"></circle>
                </g>
                <g transform="translate(128.000000, 36.000000)">
                    <path d="M22.7066449,21.8494287 C22.8455525,15.3995701 22.3917636,2.77505613 22.3917636,1.47054767 C22.3917636,0.166039208 24.7642652,0.0676685082 24.7642652,0.0676685082 C24.8667844,0.0676685082 19.6352107,13.8999201 23.3089988,20.5234925 C23.7748696,21.3634237 24.9862155,19.4430141 25.4623191,18.6088407 C28.2274352,13.764126 28.2767312,8.31922055 31.137381,3.53029477 C31.3964646,3.09657082 33.7790706,4.55000184 33.5823521,5.01534326 C30.8701016,11.4312252 27.0781948,17.3582485 24.4235428,23.798176 C23.9604248,24.9216552 25.9146551,21.8181953 26.9306987,21.1516074 C29.9045723,19.2005609 33.4731914,18.1959445 36.2842311,16.0168249 C36.946112,15.5037345 38.8672418,14.7702189 39.7112078,13.666131 C40.9443134,12.0529656 40.9000347,10.0756499 39.7112078,10.3653147 C35.2899214,11.4425873 26.6260945,19.2718547 23.8014894,23.7443808 C23.5241361,24.1835465 24.3262496,24.7806847 24.8273851,24.9172661 C29.4390685,26.174152 41.8486569,17.8909286 44.4497248,24.8816552 C45.0624707,26.5284939 40.9301072,25.3835322 39.1861371,25.1688151 C35.1658474,24.6738383 31.3074526,23.1389987 27.2739267,22.7669765 C26.2768115,22.67501 23.7237541,23.1282269 24.4568807,23.8102988 C36.4341229,34.9534509 31.137381,23.5617805 39.7112078,33.2874232 C40.3763498,34.041921 40.0707514,37.0727789 39.1861371,36.5698695 C36.7765767,35.2000179 34.9151172,33.0307836 32.8027016,31.2362989 C16.4782431,17.368767 30.9640669,34.0912808 32.4698285,37.9703254 C33.7617046,41.2983721 34.4216974,48.2212063 32.8027016,45.0394314 C31.5649361,42.6068794 30.373693,42.7700962 29.6375596,40.4196629 C28.2226074,35.9017981 27.5491644,30.9654692 24.8667844,26.4568674 C24.0002948,25.0004532 16.4752782,57.2737436 23.8014894,43.5549143 C26.3881531,38.7112103 27.1804642,25.9189488 23.5984317,30.0808403 L23.0589651,24.5543384 C19.1039454,29.1495963 19.2777462,35.9132731 16.3221992,41.2319853 C15.7028616,42.3465263 13.0348878,43.6524789 12.1340089,43.2707842 C11.23313,42.8890896 11.0826886,40.4437013 11.5339281,39.6709404 C13.1910552,36.8330614 16.4632394,35.9724038 18.0923871,33.1183706 C19.6947236,30.311307 24.8346682,24.2706991 21.6080121,24.0815475 C17.3306283,23.8308005 15.6183527,30.2754423 12.1340089,32.7690811 C9.92102533,34.3528461 7.3051292,35.3430555 4.71331251,36.1725698 C4.22183326,36.3298684 3.5604955,36.0335806 3.27296701,35.6050692 C3.05647275,35.2824219 3.23575434,34.6646995 3.57755348,34.4799176 L9.72103797,29.0439869 C12.1044159,27.7554962 16.0849559,28.4699375 18.0817796,26.63871 C18.9912639,25.8046492 21.3657226,23.7079987 20.1403902,23.5617805 C15.2574809,22.9791056 10.3888227,25.0654844 5.47174799,25.1339619 C0.502542655,25.2031655 -1.4923869,21.0723724 3.34873479,21.5440845 C10.577463,22.2484416 14.700952,26.0739804 21.9580593,22.7525806 C41.9158667,13.6183823 14.9458353,27.7592321 5.13155065,15.4947849 C4.33699286,14.5018637 4.48341317,12.8770137 4.92697765,11.685181 C5.74157617,9.49640065 21.8151249,20.9827304 22.0148851,19.2286211 C22.544971,14.5738981 18.4579348,10.5551216 16.4406495,6.32688354 C15.9541207,5.30711723 15.4037802,4.24078812 14.52524,3.53029477 C14.1254154,3.20694842 12.7775165,3.05875468 12.982608,3.53029477 L13.0348878,6.94742166 C15.1435645,11.7956246 18.0416227,16.2607972 20.5449902,20.917485 L22.7066449,21.8494287 Z" id="Path-31" stroke="#FC94C7" stroke-width="10"></path>
                    <path d="M21.7304978,21.0455325 C21.6906293,20.797204 21.6480987,20.5468647 21.6034507,20.2946834 C20.628188,14.7862047 19.7677723,7.58420926 21.1768248,3.58542198 C21.8890536,1.56416901 23.2866722,1.7336362 24.0262616,1.9694785 C27.7358521,3.15240297 23.7829062,14.7356084 22.8096204,17.6617435 C22.377373,18.9612737 22.0176655,20.0892034 21.7304978,21.0455325 Z" id="Path-2" stroke="#000000" stroke-width="0.7" transform="translate(23.009785, 11.439003) rotate(-4.000000) translate(-23.009785, -11.439003) "></path>
                    <path d="M21.7304978,45.8731187 C21.6906293,45.6247902 21.6480987,45.3744509 21.6034507,45.1222696 C20.628188,39.6137909 19.7677723,32.4117955 21.1768248,28.4130082 C21.8890536,26.3917552 23.2866722,26.5612224 24.0262616,26.7970647 C27.7358521,27.9799892 23.7829062,39.5631947 22.8096204,42.4893297 C22.377373,43.7888599 22.0176655,44.9167896 21.7304978,45.8731187 Z" id="Path-2" stroke="#000000" stroke-width="0.7" transform="translate(23.009785, 36.266590) scale(1, -1) rotate(-4.000000) translate(-23.009785, -36.266590) "></path>
                    <path d="M9.19596166,34.0221448 C9.15609312,33.7738162 9.11356257,33.5234769 9.06891449,33.2712957 C8.09365185,27.7628169 7.23323612,20.5608215 8.64228861,16.5620342 C9.35451742,14.5407813 10.752136,14.7102484 11.4917254,14.9460907 C15.2013159,16.1290152 11.24837,27.7122207 10.2750843,30.6383557 C9.84283687,31.9378859 9.48312933,33.0658156 9.19596166,34.0221448 Z" id="Path-2" stroke="#000000" stroke-width="0.7" transform="translate(10.475249, 24.415616) scale(1, -1) rotate(-94.000000) translate(-10.475249, -24.415616) "></path>
                    <path d="M33.2476858,34.0221448 C33.2078173,33.7738162 33.1652867,33.5234769 33.1206386,33.2712957 C32.145376,27.7628169 31.2849603,20.5608215 32.6940127,16.5620342 C33.4062416,14.5407813 34.8038602,14.7102484 35.5434495,14.9460907 C39.2530401,16.1290152 35.3000941,27.7122207 34.3268084,30.6383557 C33.894561,31.9378859 33.5348535,33.0658156 33.2476858,34.0221448 Z" id="Path-2" stroke="#000000" stroke-width="0.7" transform="translate(34.526973, 24.415616) scale(-1, -1) rotate(-94.000000) translate(-34.526973, -24.415616) "></path>
                    <path d="M31.6959617,40.5090009 C31.6560931,40.2606723 31.6135626,40.010333 31.5689145,39.7581518 C30.5936519,34.249673 29.7332361,27.0476776 31.1422886,23.0488903 C31.8545174,21.0276373 33.252136,21.1971045 33.9917254,21.4329468 C37.7013159,22.6158713 33.74837,34.1990768 32.7750843,37.1252118 C32.3428369,38.424742 31.9831293,39.5526717 31.6959617,40.5090009 Z" id="Path-2" stroke="#000000" stroke-width="0.7" transform="translate(32.975249, 30.902472) scale(-1, -1) rotate(-62.000000) translate(-32.975249, -30.902472) "></path>
                    <path d="M10.7476858,40.5090009 C10.7078173,40.2606723 10.6652867,40.010333 10.6206386,39.7581518 C9.64537599,34.249673 8.78496026,27.0476776 10.1940127,23.0488903 C10.9062416,21.0276373 12.3038602,21.1971045 13.0434495,21.4329468 C16.7530401,22.6158713 12.8000941,34.1990768 11.8268084,37.1252118 C11.394561,38.424742 11.0348535,39.5526717 10.7476858,40.5090009 Z" id="Path-2" stroke="#000000" stroke-width="0.7" transform="translate(12.026973, 30.902472) scale(1, -1) rotate(-62.000000) translate(-12.026973, -30.902472) "></path>
                    <path d="M10.7476858,26.5434836 C10.7078173,26.2951551 10.6652867,26.0448158 10.6206386,25.7926345 C9.64537599,20.2841558 8.78496026,13.0821604 10.1940127,9.08337308 C10.9062416,7.06212011 12.3038602,7.23158729 13.0434495,7.4674296 C16.7530401,8.65035406 12.8000941,20.2335595 11.8268084,23.1596945 C11.394561,24.4592248 11.0348535,25.5871545 10.7476858,26.5434836 Z" id="Path-2" stroke="#000000" stroke-width="0.7" transform="translate(12.026973, 16.936954) rotate(-62.000000) translate(-12.026973, -16.936954) "></path>
                    <path d="M21.4702449,83.0789566 C21.4071465,82.6859361 21.3398349,82.2897333 21.269172,81.8906153 C19.7256597,73.1725484 18.3639114,61.774215 20.5939669,55.4454814 C21.7211853,52.2465186 23.9331449,52.5147281 25.1036658,52.887987 C30.9746984,54.7601581 24.7185162,73.0924717 23.1781326,77.723558 C22.4940306,79.7802768 21.9247347,81.5654096 21.4702449,83.0789566 Z" id="Path-2" fill="#FC94C7" transform="translate(23.494926, 67.875056) scale(1, -1) rotate(8.000000) translate(-23.494926, -67.875056) "></path>
                    <path d="M36.4702449,67.0789566 C36.4071465,66.6859361 36.3398349,66.2897333 36.269172,65.8906153 C34.7256597,57.1725484 33.3639114,45.774215 35.5939669,39.4454814 C36.7211853,36.2465186 38.9331449,36.5147281 40.1036658,36.887987 C45.9746984,38.7601581 39.7185162,57.0924717 38.1781326,61.723558 C37.4940306,63.7802768 36.9247347,65.5654096 36.4702449,67.0789566 Z" id="Path-2" fill="#FC94C7" transform="translate(38.494926, 51.875056) scale(1, -1) rotate(1.000000) translate(-38.494926, -51.875056) "></path>
                    <path d="M80.4702449,82.0789566 C80.4071465,81.6859361 80.3398349,81.2897333 80.269172,80.8906153 C78.7256597,72.1725484 77.3639114,60.774215 79.5939669,54.4454814 C80.7211853,51.2465186 82.9331449,51.5147281 84.1036658,51.887987 C89.9746984,53.7601581 83.7185162,72.0924717 82.1781326,76.723558 C81.4940306,78.7802768 80.9247347,80.5654096 80.4702449,82.0789566 Z" id="Path-2" fill="#FC94C7" transform="translate(82.494926, 66.875056) scale(1, -1) rotate(-5.000000) translate(-82.494926, -66.875056) "></path>
                    <path d="M31.6959617,26.5434836 C31.6560931,26.2951551 31.6135626,26.0448158 31.5689145,25.7926345 C30.5936519,20.2841558 29.7332361,13.0821604 31.1422886,9.08337308 C31.8545174,7.06212011 33.252136,7.23158729 33.9917254,7.4674296 C37.7013159,8.65035406 33.74837,20.2335595 32.7750843,23.1596945 C32.3428369,24.4592248 31.9831293,25.5871545 31.6959617,26.5434836 Z" id="Path-2" stroke="#000000" stroke-width="0.7" transform="translate(32.975249, 16.936954) scale(-1, 1) rotate(-62.000000) translate(-32.975249, -16.936954) "></path>
                    <path d="M26.5777075,44.8842137 C26.537839,44.6358852 26.4953084,44.3855459 26.4506604,44.1333646 C25.4753977,38.6248859 24.614982,31.4228905 26.0240345,27.4241032 C26.7362633,25.4028502 28.1338819,25.5723174 28.8734713,25.8081597 C32.5830618,26.9910842 28.6301159,38.5742897 27.6568301,41.5004247 C27.2245827,42.7999549 26.8648752,43.9278846 26.5777075,44.8842137 Z" id="Path-2" stroke="#000000" stroke-width="0.7" transform="translate(27.856995, 35.277685) scale(-1, -1) rotate(-32.000000) translate(-27.856995, -35.277685) "></path>
                    <path d="M22.5777075,75.8842137 C22.537839,75.6358852 22.4953084,75.3855459 22.4506604,75.1333646 C21.4753977,69.6248859 20.614982,62.4228905 22.0240345,58.4241032 C22.7362633,56.4028502 24.1338819,56.5723174 24.8734713,56.8081597 C28.5830618,57.9910842 24.6301159,69.5742897 23.6568301,72.5004247 C23.2245827,73.7999549 22.8648752,74.9278846 22.5777075,75.8842137 Z" id="Path-2" stroke="#000000" stroke-width="0.7" transform="translate(23.856995, 66.277685) scale(-1, -1) rotate(-32.000000) translate(-23.856995, -66.277685) "></path>
                    <path d="M36.5777075,63.8842137 C36.537839,63.6358852 36.4953084,63.3855459 36.4506604,63.1333646 C35.4753977,57.6248859 34.614982,50.4228905 36.0240345,46.4241032 C36.7362633,44.4028502 38.1338819,44.5723174 38.8734713,44.8081597 C42.5830618,45.9910842 38.6301159,57.5742897 37.6568301,60.5004247 C37.2245827,61.7999549 36.8648752,62.9278846 36.5777075,63.8842137 Z" id="Path-2" stroke="#000000" stroke-width="0.7" transform="translate(37.856995, 54.277685) scale(-1, -1) rotate(-13.000000) translate(-37.856995, -54.277685) "></path>
                    <path d="M79.5777075,77.8842137 C79.537839,77.6358852 79.4953084,77.3855459 79.4506604,77.1333646 C78.4753977,71.6248859 77.614982,64.4228905 79.0240345,60.4241032 C79.7362633,58.4028502 81.1338819,58.5723174 81.8734713,58.8081597 C85.5830618,59.9910842 81.6301159,71.5742897 80.6568301,74.5004247 C80.2245827,75.7999549 79.8648752,76.9278846 79.5777075,77.8842137 Z" id="Path-2" stroke="#000000" stroke-width="0.7" transform="translate(80.856995, 68.277685) scale(-1, -1) rotate(-13.000000) translate(-80.856995, -68.277685) "></path>
                    <path d="M15.7156386,44.8842137 C15.67577,44.6358852 15.6332395,44.3855459 15.5885914,44.1333646 C14.6133287,38.6248859 13.752913,31.4228905 15.1619655,27.4241032 C15.8741943,25.4028502 17.2718129,25.5723174 18.0114023,25.8081597 C21.7209928,26.9910842 17.7680469,38.5742897 16.7947612,41.5004247 C16.3625138,42.7999549 16.0028062,43.9278846 15.7156386,44.8842137 Z" id="Path-2" stroke="#000000" stroke-width="0.7" transform="translate(16.994926, 35.277685) scale(1, -1) rotate(-32.000000) translate(-16.994926, -35.277685) "></path>
                    <path d="M15.7156386,22.3842137 C15.67577,22.1358852 15.6332395,21.8855459 15.5885914,21.6333646 C14.6133287,16.1248859 13.752913,8.92289046 15.1619655,4.92410319 C15.8741943,2.90285022 17.2718129,3.07231741 18.0114023,3.30815971 C21.7209928,4.49108418 17.7680469,16.0742897 16.7947612,19.0004247 C16.3625138,20.2999549 16.0028062,21.4278846 15.7156386,22.3842137 Z" id="Path-2" stroke="#000000" stroke-width="0.7" transform="translate(16.994926, 12.777685) rotate(-32.000000) translate(-16.994926, -12.777685) "></path>
                    <path d="M26.5777075,22.3842137 C26.537839,22.1358852 26.4953084,21.8855459 26.4506604,21.6333646 C25.4753977,16.1248859 24.614982,8.92289046 26.0240345,4.92410319 C26.7362633,2.90285022 28.1338819,3.07231741 28.8734713,3.30815971 C32.5830618,4.49108418 28.6301159,16.0742897 27.6568301,19.0004247 C27.2245827,20.2999549 26.8648752,21.4278846 26.5777075,22.3842137 Z" id="Path-2" stroke="#000000" stroke-width="0.7" transform="translate(27.856995, 12.777685) scale(-1, 1) rotate(-32.000000) translate(-27.856995, -12.777685) "></path>
                    <circle id="Oval" stroke="#030303" stroke-width="0.5" fill="#070707" cx="22.3917636" cy="23.8496288" r="2.44252874"></circle>
                </g>
                <g transform="translate(67.000000, 41.000000)">
                    <path d="M24.7066449,21.8494287 C24.8455525,15.3995701 24.3917636,2.77505613 24.3917636,1.47054767 C24.3917636,0.166039208 26.7642652,0.0676685082 26.7642652,0.0676685082 C26.8667844,0.0676685082 21.6352107,13.8999201 25.3089988,20.5234925 C25.7748696,21.3634237 26.9862155,19.4430141 27.4623191,18.6088407 C30.2274352,13.764126 30.2767312,8.31922055 33.137381,3.53029477 C33.3964646,3.09657082 35.7790706,4.55000184 35.5823521,5.01534326 C32.8701016,11.4312252 29.0781948,17.3582485 26.4235428,23.798176 C25.9604248,24.9216552 27.9146551,21.8181953 28.9306987,21.1516074 C31.9045723,19.2005609 35.4731914,18.1959445 38.2842311,16.0168249 C38.946112,15.5037345 40.8672418,14.7702189 41.7112078,13.666131 C42.9443134,12.0529656 42.9000347,10.0756499 41.7112078,10.3653147 C37.2899214,11.4425873 28.6260945,19.2718547 25.8014894,23.7443808 C25.5241361,24.1835465 26.3262496,24.7806847 26.8273851,24.9172661 C31.4390685,26.174152 43.8486569,17.8909286 46.4497248,24.8816552 C47.0624707,26.5284939 42.9301072,25.3835322 41.1861371,25.1688151 C37.1658474,24.6738383 33.3074526,23.1389987 29.2739267,22.7669765 C28.2768115,22.67501 25.7237541,23.1282269 26.4568807,23.8102988 C38.4341229,34.9534509 33.137381,23.5617805 41.7112078,33.2874232 C42.3763498,34.041921 42.0707514,37.0727789 41.1861371,36.5698695 C38.7765767,35.2000179 36.9151172,33.0307836 34.8027016,31.2362989 C18.4782431,17.368767 32.9640669,34.0912808 34.4698285,37.9703254 C35.7617046,41.2983721 36.4216974,48.2212063 34.8027016,45.0394314 C33.5649361,42.6068794 32.373693,42.7700962 31.6375596,40.4196629 C30.2226074,35.9017981 29.5491644,30.9654692 26.8667844,26.4568674 C26.0002948,25.0004532 18.4752782,57.2737436 25.8014894,43.5549143 C28.3881531,38.7112103 29.1804642,25.9189488 25.5984317,30.0808403 L25.0589651,24.5543384 C21.1039454,29.1495963 21.2777462,35.9132731 18.3221992,41.2319853 C17.7028616,42.3465263 15.0348878,43.6524789 14.1340089,43.2707842 C13.23313,42.8890896 13.0826886,40.4437013 13.5339281,39.6709404 C15.1910552,36.8330614 18.4632394,35.9724038 20.0923871,33.1183706 C21.6947236,30.311307 26.8346682,24.2706991 23.6080121,24.0815475 C19.3306283,23.8308005 17.6183527,30.2754423 14.1340089,32.7690811 C11.9210253,34.3528461 9.3051292,35.3430555 6.71331251,36.1725698 C6.22183326,36.3298684 5.5604955,36.0335806 5.27296701,35.6050692 C5.05647275,35.2824219 5.23575434,34.6646995 5.57755348,34.4799176 L11.721038,29.0439869 C14.1044159,27.7554962 18.0849559,28.4699375 20.0817796,26.63871 C20.9912639,25.8046492 23.3657226,23.7079987 22.1403902,23.5617805 C17.2574809,22.9791056 12.3888227,25.0654844 7.47174799,25.1339619 C2.50254266,25.2031655 0.507613098,21.0723724 5.34873479,21.5440845 C12.577463,22.2484416 16.700952,26.0739804 23.9580593,22.7525806 C43.9158667,13.6183823 16.9458353,27.7592321 7.13155065,15.4947849 C6.33699286,14.5018637 6.48341317,12.8770137 6.92697765,11.685181 C7.74157617,9.49640065 23.8151249,20.9827304 24.0148851,19.2286211 C24.544971,14.5738981 20.4579348,10.5551216 18.4406495,6.32688354 C17.9541207,5.30711723 17.4037802,4.24078812 16.52524,3.53029477 C16.1254154,3.20694842 14.7775165,3.05875468 14.982608,3.53029477 L15.0348878,6.94742166 C17.1435645,11.7956246 20.0416227,16.2607972 22.5449902,20.917485 L24.7066449,21.8494287 Z" id="Path-31" stroke="#FC94C7" stroke-width="10"></path>
                    <path d="M23.7304978,21.0455325 C23.6906293,20.797204 23.6480987,20.5468647 23.6034507,20.2946834 C22.628188,14.7862047 21.7677723,7.58420926 23.1768248,3.58542198 C23.8890536,1.56416901 25.2866722,1.7336362 26.0262616,1.9694785 C29.7358521,3.15240297 25.7829062,14.7356084 24.8096204,17.6617435 C24.377373,18.9612737 24.0176655,20.0892034 23.7304978,21.0455325 Z" id="Path-2" stroke="#000000" stroke-width="0.7" transform="translate(25.009785, 11.439003) rotate(-4.000000) translate(-25.009785, -11.439003) "></path>
                    <path d="M23.7304978,45.8731187 C23.6906293,45.6247902 23.6480987,45.3744509 23.6034507,45.1222696 C22.628188,39.6137909 21.7677723,32.4117955 23.1768248,28.4130082 C23.8890536,26.3917552 25.2866722,26.5612224 26.0262616,26.7970647 C29.7358521,27.9799892 25.7829062,39.5631947 24.8096204,42.4893297 C24.377373,43.7888599 24.0176655,44.9167896 23.7304978,45.8731187 Z" id="Path-2" stroke="#000000" stroke-width="0.7" transform="translate(25.009785, 36.266590) scale(1, -1) rotate(-4.000000) translate(-25.009785, -36.266590) "></path>
                    <path d="M11.1959617,34.0221448 C11.1560931,33.7738162 11.1135626,33.5234769 11.0689145,33.2712957 C10.0936519,27.7628169 9.23323612,20.5608215 10.6422886,16.5620342 C11.3545174,14.5407813 12.752136,14.7102484 13.4917254,14.9460907 C17.2013159,16.1290152 13.24837,27.7122207 12.2750843,30.6383557 C11.8428369,31.9378859 11.4831293,33.0658156 11.1959617,34.0221448 Z" id="Path-2" stroke="#000000" stroke-width="0.7" transform="translate(12.475249, 24.415616) scale(1, -1) rotate(-94.000000) translate(-12.475249, -24.415616) "></path>
                    <path d="M35.2476858,34.0221448 C35.2078173,33.7738162 35.1652867,33.5234769 35.1206386,33.2712957 C34.145376,27.7628169 33.2849603,20.5608215 34.6940127,16.5620342 C35.4062416,14.5407813 36.8038602,14.7102484 37.5434495,14.9460907 C41.2530401,16.1290152 37.3000941,27.7122207 36.3268084,30.6383557 C35.894561,31.9378859 35.5348535,33.0658156 35.2476858,34.0221448 Z" id="Path-2" stroke="#000000" stroke-width="0.7" transform="translate(36.526973, 24.415616) scale(-1, -1) rotate(-94.000000) translate(-36.526973, -24.415616) "></path>
                    <path d="M33.6959617,40.5090009 C33.6560931,40.2606723 33.6135626,40.010333 33.5689145,39.7581518 C32.5936519,34.249673 31.7332361,27.0476776 33.1422886,23.0488903 C33.8545174,21.0276373 35.252136,21.1971045 35.9917254,21.4329468 C39.7013159,22.6158713 35.74837,34.1990768 34.7750843,37.1252118 C34.3428369,38.424742 33.9831293,39.5526717 33.6959617,40.5090009 Z" id="Path-2" stroke="#000000" stroke-width="0.7" transform="translate(34.975249, 30.902472) scale(-1, -1) rotate(-62.000000) translate(-34.975249, -30.902472) "></path>
                    <path d="M12.7476858,40.5090009 C12.7078173,40.2606723 12.6652867,40.010333 12.6206386,39.7581518 C11.645376,34.249673 10.7849603,27.0476776 12.1940127,23.0488903 C12.9062416,21.0276373 14.3038602,21.1971045 15.0434495,21.4329468 C18.7530401,22.6158713 14.8000941,34.1990768 13.8268084,37.1252118 C13.394561,38.424742 13.0348535,39.5526717 12.7476858,40.5090009 Z" id="Path-2" stroke="#000000" stroke-width="0.7" transform="translate(14.026973, 30.902472) scale(1, -1) rotate(-62.000000) translate(-14.026973, -30.902472) "></path>
                    <path d="M12.7476858,26.5434836 C12.7078173,26.2951551 12.6652867,26.0448158 12.6206386,25.7926345 C11.645376,20.2841558 10.7849603,13.0821604 12.1940127,9.08337308 C12.9062416,7.06212011 14.3038602,7.23158729 15.0434495,7.4674296 C18.7530401,8.65035406 14.8000941,20.2335595 13.8268084,23.1596945 C13.394561,24.4592248 13.0348535,25.5871545 12.7476858,26.5434836 Z" id="Path-2" stroke="#000000" stroke-width="0.7" transform="translate(14.026973, 16.936954) rotate(-62.000000) translate(-14.026973, -16.936954) "></path>
                    <path d="M33.6959617,26.5434836 C33.6560931,26.2951551 33.6135626,26.0448158 33.5689145,25.7926345 C32.5936519,20.2841558 31.7332361,13.0821604 33.1422886,9.08337308 C33.8545174,7.06212011 35.252136,7.23158729 35.9917254,7.4674296 C39.7013159,8.65035406 35.74837,20.2335595 34.7750843,23.1596945 C34.3428369,24.4592248 33.9831293,25.5871545 33.6959617,26.5434836 Z" id="Path-2" stroke="#000000" stroke-width="0.7" transform="translate(34.975249, 16.936954) scale(-1, 1) rotate(-62.000000) translate(-34.975249, -16.936954) "></path>
                    <path d="M28.5777075,44.8842137 C28.537839,44.6358852 28.4953084,44.3855459 28.4506604,44.1333646 C27.4753977,38.6248859 26.614982,31.4228905 28.0240345,27.4241032 C28.7362633,25.4028502 30.1338819,25.5723174 30.8734713,25.8081597 C34.5830618,26.9910842 30.6301159,38.5742897 29.6568301,41.5004247 C29.2245827,42.7999549 28.8648752,43.9278846 28.5777075,44.8842137 Z" id="Path-2" stroke="#000000" stroke-width="0.7" transform="translate(29.856995, 35.277685) scale(-1, -1) rotate(-32.000000) translate(-29.856995, -35.277685) "></path>
                    <path d="M17.7156386,44.8842137 C17.67577,44.6358852 17.6332395,44.3855459 17.5885914,44.1333646 C16.6133287,38.6248859 15.752913,31.4228905 17.1619655,27.4241032 C17.8741943,25.4028502 19.2718129,25.5723174 20.0114023,25.8081597 C23.7209928,26.9910842 19.7680469,38.5742897 18.7947612,41.5004247 C18.3625138,42.7999549 18.0028062,43.9278846 17.7156386,44.8842137 Z" id="Path-2" stroke="#000000" stroke-width="0.7" transform="translate(18.994926, 35.277685) scale(1, -1) rotate(-32.000000) translate(-18.994926, -35.277685) "></path>
                    <path d="M8.47024493,82.0789566 C8.40714646,81.6859361 8.33983492,81.2897333 8.26917205,80.8906153 C6.72565971,72.1725484 5.36391137,60.774215 7.59396694,54.4454814 C8.72118531,51.2465186 10.9331449,51.5147281 12.1036658,51.887987 C17.9746984,53.7601581 11.7185162,72.0924717 10.1781326,76.723558 C9.49403055,78.7802768 8.92473466,80.5654096 8.47024493,82.0789566 Z" id="Path-2" fill="#FC94C7" transform="translate(10.494926, 66.875056) scale(1, -1) rotate(-23.000000) translate(-10.494926, -66.875056) "></path>
                    <path d="M24.4702449,73.0789566 C24.4071465,72.6859361 24.3398349,72.2897333 24.269172,71.8906153 C22.7256597,63.1725484 21.3639114,51.774215 23.5939669,45.4454814 C24.7211853,42.2465186 26.9331449,42.5147281 28.1036658,42.887987 C33.9746984,44.7601581 27.7185162,63.0924717 26.1781326,67.723558 C25.4940306,69.7802768 24.9247347,71.5654096 24.4702449,73.0789566 Z" id="Path-2" fill="#FC94C7" transform="translate(26.494926, 57.875056) scale(1, -1) rotate(-15.000000) translate(-26.494926, -57.875056) "></path>
                    <path d="M8.71563856,77.8842137 C8.67577001,77.6358852 8.63323946,77.3855459 8.58859139,77.1333646 C7.61332875,71.6248859 6.75291302,64.4228905 8.1619655,60.4241032 C8.87419432,58.4028502 10.2718129,58.5723174 11.0114023,58.8081597 C14.7209928,59.9910842 10.7680469,71.5742897 9.79476117,74.5004247 C9.36251377,75.7999549 9.00280623,76.9278846 8.71563856,77.8842137 Z" id="Path-2" stroke="#000000" stroke-width="0.7" transform="translate(9.994926, 68.277685) scale(1, -1) rotate(-23.000000) translate(-9.994926, -68.277685) "></path>
                    <path d="M24.7156386,74.8842137 C24.67577,74.6358852 24.6332395,74.3855459 24.5885914,74.1333646 C23.6133287,68.6248859 22.752913,61.4228905 24.1619655,57.4241032 C24.8741943,55.4028502 26.2718129,55.5723174 27.0114023,55.8081597 C30.7209928,56.9910842 26.7680469,68.5742897 25.7947612,71.5004247 C25.3625138,72.7999549 25.0028062,73.9278846 24.7156386,74.8842137 Z" id="Path-2" stroke="#000000" stroke-width="0.7" transform="translate(25.994926, 65.277685) scale(1, -1) rotate(-13.000000) translate(-25.994926, -65.277685) "></path>
                    <path d="M17.7156386,22.3842137 C17.67577,22.1358852 17.6332395,21.8855459 17.5885914,21.6333646 C16.6133287,16.1248859 15.752913,8.92289046 17.1619655,4.92410319 C17.8741943,2.90285022 19.2718129,3.07231741 20.0114023,3.30815971 C23.7209928,4.49108418 19.7680469,16.0742897 18.7947612,19.0004247 C18.3625138,20.2999549 18.0028062,21.4278846 17.7156386,22.3842137 Z" id="Path-2" stroke="#000000" stroke-width="0.7" transform="translate(18.994926, 12.777685) rotate(-32.000000) translate(-18.994926, -12.777685) "></path>
                    <path d="M28.5777075,22.3842137 C28.537839,22.1358852 28.4953084,21.8855459 28.4506604,21.6333646 C27.4753977,16.1248859 26.614982,8.92289046 28.0240345,4.92410319 C28.7362633,2.90285022 30.1338819,3.07231741 30.8734713,3.30815971 C34.5830618,4.49108418 30.6301159,16.0742897 29.6568301,19.0004247 C29.2245827,20.2999549 28.8648752,21.4278846 28.5777075,22.3842137 Z" id="Path-2" stroke="#000000" stroke-width="0.7" transform="translate(29.856995, 12.777685) scale(-1, 1) rotate(-32.000000) translate(-29.856995, -12.777685) "></path>
                    <circle id="Oval" stroke="#030303" stroke-width="0.5" fill="#070707" cx="24.3917636" cy="23.8496288" r="2.44252874"></circle>
                </g>
                <text id="77-petals" font-family="Menlo-Regular, Menlo" font-size="12" font-weight="normal" fill="#000000">
                    <tspan x="0" y="112">77 petals </tspan>
                </text>
            </g>
        </g>
    </g>
</svg>