<?xml version="1.0" encoding="UTF-8"?>
<svg width="259px" height="169px" viewBox="0 0 259 169" version="1.1" xmlns="http://www.w3.org/2000/svg" xmlns:xlink="http://www.w3.org/1999/xlink">
    <!-- Generator: Sketch 62 (91390) - https://sketch.com -->
    <title>hive</title>
    <desc>Created with Sketch.</desc>
    <g id="Page-1" stroke="none" stroke-width="1" fill="none" fill-rule="evenodd">
        <g id="01_28" transform="translate(-504.000000, -244.000000)">
            <g id="hive" transform="translate(504.000000, 244.114376)">
                <path d="M66.4024484,1.64258644 C69.8375739,2.42568109 65.4559742,24.5352164 69.9471352,27.7481621 C70.7973064,28.3563687 75.3642526,28.5273392 80.7986643,28.6637254 C89.168474,28.8737806 99.5959658,29.0017995 101.671665,30.5188027 C101.884751,30.6745343 100.178087,50.3174948 103.030579,53.7730162 C104.739322,55.8429953 115.799854,54.538658 118.341701,59.9222695 C119.706317,62.8125134 118.341701,71.2858937 118.341701,74.8856235 C118.341701,86.7315153 118.341701,95.1203877 118.341701,105.142867 C118.341701,110.90209 108.283087,112.100495 103.030579,116.093192 C99.7024757,118.623052 104.356499,135.333107 101,138.177952 C98.6138398,140.200374 88.2642341,143.774415 87.1004533,145.796837 C85.9366726,147.819258 88.2642341,168.885624 82.5385827,168.885624 C75.4255557,168.885624 6.74055397,165.58564 4.78164547,165.58564 C-0.548310309,165.58564 0.317824083,152.100396 0.317824083,148.472677 C0.317824083,111.503926 0.262557447,100.865885 0.553513852,68.9961621 C0.75915343,46.4715632 2.77111667e-13,24.4629857 2.77111667e-13,1.42180492 C2.77111667e-13,-0.411854359 56.5231016,-0.609576889 66.4024484,1.64258644 Z" id="Path-10" fill="#FCE21E"></path>
                <circle id="Oval" stroke="#000000" fill="#FCE21E" cx="10.5" cy="100.385624" r="7.5"></circle>
                <circle id="Oval" stroke="#000000" fill="#FCE21E" cx="10.5" cy="118.385624" r="7.5"></circle>
                <circle id="Oval" stroke="#000000" fill="#FCE21E" cx="10.5" cy="82.3856235" r="7.5"></circle>
                <circle id="Oval" stroke="#000000" fill="#FCE21E" cx="10.5" cy="64.3856235" r="7.5"></circle>
                <circle id="Oval" stroke="#000000" fill="#FCE21E" cx="10.5" cy="46.3856235" r="7.5"></circle>
                <circle id="Oval" stroke="#000000" fill="#FCE21E" cx="10.5" cy="154.385624" r="7.5"></circle>
                <circle id="Oval" stroke="#000000" fill="#FCE21E" cx="10.5" cy="136.385624" r="7.5"></circle>
                <circle id="Oval" stroke="#000000" fill="#FCE21E" cx="26.5" cy="55.3856235" r="7.5"></circle>
                <circle id="Oval" stroke="#000000" fill="#FCE21E" cx="26.5" cy="73.3856235" r="7.5"></circle>
                <circle id="Oval" stroke="#000000" fill="#FCE21E" cx="26.5" cy="37.3856235" r="7.5"></circle>
                <circle id="Oval" stroke="#000000" fill="#FCE21E" cx="42.5" cy="46.3856235" r="7.5"></circle>
                <circle id="Oval" stroke="#000000" fill="#FCE21E" cx="42.5" cy="28.3856235" r="7.5"></circle>
                <circle id="Oval-3" stroke="#000000" fill="#FCE21E" cx="26.5" cy="19.3856235" r="7.5"></circle>
                <circle id="Oval-5" stroke="#000000" fill="#FCE21E" cx="91.5" cy="58.3856235" r="7.5"></circle>
                <circle id="Oval-5" stroke="#000000" fill="#FCE21E" cx="91.5" cy="40.3856235" r="7.5"></circle>
                <circle id="Oval" stroke="#000000" fill="#FCE21E" cx="42.5" cy="64.3856235" r="7.5"></circle>
                <circle id="Oval" stroke="#000000" fill="#FCE21E" cx="26.5" cy="109.385624" r="7.5"></circle>
                <circle id="Oval" stroke="#000000" fill="#FCE21E" cx="26.5" cy="127.385624" r="7.5"></circle>
                <circle id="Oval" stroke="#000000" fill="#FCE21E" cx="26.5" cy="91.3856235" r="7.5"></circle>
                <circle id="Oval" stroke="#000000" fill="#FCE21E" cx="26.5" cy="145.385624" r="7.5"></circle>
                <circle id="Oval" stroke="#000000" fill="#FCE21E" cx="58.5" cy="55.3856235" r="7.5"></circle>
                <circle id="Oval" stroke="#000000" fill="#FCE21E" cx="58.5" cy="37.3856235" r="7.5"></circle>
                <circle id="Oval" stroke="#000000" fill="#FCE21E" cx="42.5" cy="100.385624" r="7.5"></circle>
                <circle id="Oval" stroke="#000000" fill="#FCE21E" cx="42.5" cy="118.385624" r="7.5"></circle>
                <circle id="Oval-2" stroke="#000000" fill="#FCE21E" cx="42.5" cy="154.385624" r="7.5"></circle>
                <circle id="Oval" stroke="#000000" fill="#FCE21E" cx="42.5" cy="136.385624" r="7.5"></circle>
                <circle id="Oval-4" stroke="#000000" fill="#FCE21E" cx="58.5" cy="91.3856235" r="7.5"></circle>
                <circle id="Oval" stroke="#000000" fill="#FCE21E" cx="58.5" cy="127.385624" r="7.5"></circle>
                <circle id="Oval" stroke="#000000" fill="#FCE21E" cx="58.5" cy="109.385624" r="7.5"></circle>
                <circle id="Oval" stroke="#000000" fill="#FCE21E" cx="58.5" cy="145.385624" r="7.5"></circle>
                <circle id="Oval" stroke="#000000" fill="#FCE21E" cx="108.5" cy="83.3856235" r="7.5"></circle>
                <circle id="Oval" stroke="#000000" fill="#FCE21E" cx="74.5" cy="64.3856235" r="7.5"></circle>
                <circle id="Oval" stroke="#000000" fill="#FCE21E" cx="108.5" cy="101.385624" r="7.5"></circle>
                <circle id="Oval" stroke="#000000" cx="120.5" cy="125.385624" r="7.5"></circle>
                <circle id="Oval" stroke="#000000" fill="#FCE21E" cx="74.5" cy="100.385624" r="7.5"></circle>
                <circle id="Oval" stroke="#000000" fill="#FCE21E" cx="74.5" cy="82.3856235" r="7.5"></circle>
                <circle id="Oval" stroke="#000000" fill="#FCE21E" cx="74.5" cy="118.385624" r="7.5"></circle>
                <circle id="Oval" stroke="#000000" fill="#FCE21E" cx="74.5" cy="136.385624" r="7.5"></circle>
                <circle id="Oval" stroke="#000000" fill="#FCE21E" cx="74.5" cy="154.385624" r="7.5"></circle>
                <circle id="Oval" stroke="#000000" fill="#FCE21E" cx="58.5" cy="19.3856235" r="7.5"></circle>
                <circle id="Oval" stroke="#000000" fill="#FCE21E" cx="91.5" cy="76.3856235" r="7.5"></circle>
                <circle id="Oval" stroke="#000000" fill="#FCE21E" cx="74.5" cy="46.3856235" r="7.5"></circle>
                <circle id="Oval" stroke="#000000" fill="#FCE21E" cx="91.5" cy="112.385624" r="7.5"></circle>
                <circle id="Oval" stroke="#000000" fill="#FCE21E" cx="91.5" cy="94.3856235" r="7.5"></circle>
                <circle id="Oval" stroke="#000000" fill="#FCE21E" cx="91.5" cy="130.385624" r="7.5"></circle>
                <circle id="Oval" stroke="#000000" fill="#FCE21E" cx="108.5" cy="65.3856235" r="7.5"></circle>
                <circle id="Oval" stroke="#000000" fill="#FCE21E" cx="42.5" cy="10.3856235" r="7.5"></circle>
                <circle id="Oval" stroke="#000000" fill="#FCE21E" cx="10.5" cy="10.3856235" r="7.5"></circle>
                <circle id="Oval" stroke="#000000" fill="#FCE21E" cx="42.5" cy="82.3856235" r="7.5"></circle>
                <circle id="Oval" stroke="#000000" fill="#FCE21E" cx="58.5" cy="73.3856235" r="7.5"></circle>
                <circle id="Oval" stroke="#000000" fill="#FCE21E" cx="10.5" cy="28.3856235" r="7.5"></circle>
                <text id="--1000-households" font-family="Menlo-Regular, Menlo" font-size="12" font-weight="normal" fill="#000000">
                    <tspan x="137" y="129.885624">- 1000 households</tspan>
                </text>
            </g>
        </g>
    </g>
</svg>