<?xml version="1.0" encoding="UTF-8"?>
<svg width="32px" height="58px" viewBox="0 0 32 58" version="1.1" xmlns="http://www.w3.org/2000/svg" xmlns:xlink="http://www.w3.org/1999/xlink">
    <title>icecream</title>
    <g id="Page-1" stroke="none" stroke-width="1" fill="none" fill-rule="evenodd">
        <g id="01_28" transform="translate(-407.000000, -826.000000)">
            <g id="icecream" transform="translate(407.000000, 826.000000)">
                <g id="Group-9">
                    <path d="M3.21310496,23.3809524 C9.9047619,40.1428571 11.5101305,56.9047619 16,56.9047619 C18.9932463,56.9047619 23.4391735,45.7301587 29.3377814,23.3809524" id="Path-4" stroke="#030303"></path>
                    <path d="M15.7809517,28.9567832 C18.7313739,28.9567832 23.1391565,28.4674212 25.5121742,27.0746031 C30.246378,24.2959114 32,20.8847107 32,15 C32,12.2424668 29.1657279,9.16808423 27.9453744,7.4070254 C25.5902913,4.00846918 21.4279542,0.62835341 14.9764026,0.62835341 C8.51206202,0.62835341 3.21310496,4.69791026 1.26084414,8.64035733 C0.360340902,10.4588574 0,12.6277846 0,15 C0,18.7587723 0.2820284,20.310975 3.21310496,24 C6.14418153,27.689025 10.703168,28.9567832 15.7809517,28.9567832 Z" id="Oval" fill="#AFEEF7"></path>
                </g>
                <path d="M9.00351548,33.8565789 C12.9854403,37.6527731 16.967365,41.4489673 20.9492898,45.2451615" id="Path-5" stroke="#060606"></path>
                <path d="M11.8589625,43.9977113 C15.5215004,39.7599294 18.1584707,36.2956006 21.8210085,32.0578187 L11.8589625,43.9977113 Z" id="Path-6" stroke="#030203"></path>
                <path d="M14.9764026,48.3185563 C18.6389405,44.0807743 18.1584707,43.9146484 21.8210086,39.6768663 L14.9764026,48.3185563 Z" id="Path-6" stroke="#040504"></path>
                <path d="M15.9685677,32.7483711 C18.0003139,34.2721807 20.0320597,35.79599 22.0638058,37.3197997" id="Path-7" stroke="#191A19" transform="translate(19.016187, 35.034085) rotate(5.000000) translate(-19.016187, -35.034085) "></path>
            </g>
        </g>
    </g>
</svg>