<?xml version="1.0" encoding="UTF-8"?>
<svg width="822px" height="1423px" viewBox="0 0 822 1423" version="1.1" xmlns="http://www.w3.org/2000/svg" xmlns:xlink="http://www.w3.org/1999/xlink">
    <!-- Generator: Sketch 62 (91390) - https://sketch.com -->
    <title>intro</title>
    <desc>Created with Sketch.</desc>
    <g id="Page-1" stroke="none" stroke-width="1" fill="none" fill-rule="evenodd">
        <g id="INTRO-Copy" transform="translate(-30.000000, -103.000000)">
            <g id="intro" transform="translate(29.000000, 104.000000)">
                <text id="Temporary-block" font-family="Menlo-Regular, Menlo" font-size="16" font-weight="normal" line-spacing="14" fill="#000000">
                    <tspan x="485" y="328">Temporary block</tspan>
                </text>
                <text id="Center-of-the-slum" font-family="Menlo-Regular, Menlo" font-size="16" font-weight="normal" line-spacing="14" fill="#000000">
                    <tspan x="485" y="550">Center of the slum</tspan>
                </text>
                <text id="The-slum-frontier" font-family="Menlo-Regular, Menlo" font-size="16" font-weight="normal" line-spacing="14" fill="#000000">
                    <tspan x="485" y="169">The slum frontier</tspan>
                </text>
                <text id="29th-st." font-family="Menlo-Regular, Menlo" font-size="16" font-weight="normal" line-spacing="14" fill="#000000">
                    <tspan x="339" y="169">29th st.</tspan>
                </text>
                <text id="Story-1:-Time-is-rel" font-family="Menlo-Bold, Menlo" font-size="16" font-weight="bold" line-spacing="14">
                    <tspan x="0" y="168" fill="#FF642C">Story 1: </tspan>
                    <tspan x="86.6953125" y="168" fill="#000000"> Time is relative</tspan>
                </text>
                <text id="Story-2:-Affordable" font-family="Menlo-Bold, Menlo" font-size="16" font-weight="bold" line-spacing="14">
                    <tspan x="0" y="329" fill="#FF642C">Story 2: </tspan>
                    <tspan x="86.6953125" y="329" fill="#000000"> Affordable housing</tspan>
                </text>
                <text id="27th-st." font-family="Menlo-Regular, Menlo" font-size="16" font-weight="normal" line-spacing="14" fill="#000000">
                    <tspan x="339" y="329">27th st.</tspan>
                </text>
                <text id="24th-st." font-family="Menlo-Regular, Menlo" font-size="16" font-weight="normal" line-spacing="14" fill="#000000">
                    <tspan x="339" y="550">24th st.</tspan>
                </text>
                <text id="21st-st." font-family="Menlo-Regular, Menlo" font-size="16" font-weight="normal" line-spacing="14" fill="#000000">
                    <tspan x="339" y="775">21st st.</tspan>
                </text>
                <text id="18th-st." font-family="Menlo-Regular, Menlo" font-size="16" font-weight="normal" line-spacing="14" fill="#000000">
                    <tspan x="339" y="998">18th st.</tspan>
                </text>
                <text id="16th-st." font-family="Menlo-Regular, Menlo" font-size="16" font-weight="normal" line-spacing="14" fill="#000000">
                    <tspan x="339" y="1150">16th st.</tspan>
                </text>
                <text id="14th-st." font-family="Menlo-Regular, Menlo" font-size="16" font-weight="normal" line-spacing="14" fill="#000000">
                    <tspan x="339" y="1305">14th st.</tspan>
                </text>
                <text id="left-side-is-about-H" font-family="Menlo-Regular, Menlo" font-size="14" font-weight="normal" line-spacing="35" letter-spacing="-0.5" fill="#FF642C">
                    <tspan x="175.996094" y="114">left side is about High Line</tspan>
                </text>
                <text id="Story-3:-Overlord-of" font-family="Menlo-Bold, Menlo" font-size="16" font-weight="bold" line-spacing="35">
                    <tspan x="0" y="549" fill="#FF642C">Story 3: </tspan>
                    <tspan x="86.6953125" y="549" fill="#090808">Overlord of overload</tspan>
                </text>
                <text id="Story-4:-Matter-of-l" font-family="Menlo-Bold, Menlo" font-size="16" font-weight="bold" line-spacing="35">
                    <tspan x="0" y="774" fill="#FF642C">Story 4: </tspan>
                    <tspan x="86.6953125" y="774" fill="#090808">Matter of life and noise</tspan>
                </text>
                <text id="Story-5:-Adopting-fl" font-family="Menlo-Bold, Menlo" font-size="16" font-weight="bold" line-spacing="35">
                    <tspan x="0" y="995" fill="#FF642C">Story 5: </tspan>
                    <tspan x="86.6953125" y="995" fill="#090808">Adopting flowers</tspan>
                </text>
                <text id="Story-6:-Party-hard" font-family="Menlo-Bold, Menlo" font-size="16" font-weight="bold" line-spacing="35">
                    <tspan x="0" y="1149" fill="#FF642C">Story 6: </tspan>
                    <tspan x="86.6953125" y="1149" fill="#090808">Party hard work harder</tspan>
                </text>
                <text id="Story-7:-Counting-co" font-family="Menlo-Bold, Menlo" font-size="16" font-weight="bold" line-spacing="35">
                    <tspan x="0" y="1303" fill="#FF642C">Story 7: </tspan>
                    <tspan x="86.6953125" y="1303" fill="#090808">Counting coffee cups</tspan>
                </text>
                <text id="right---about-Tejgao" font-family="Menlo-Regular, Menlo" font-size="14" font-weight="normal" line-spacing="35" fill="#FF642C">
                    <tspan x="497" y="114">right - about Tejgaon</tspan>
                </text>
                <text id="On-the-railway-track" font-family="Menlo-Regular, Menlo" font-size="16" font-weight="normal" line-spacing="14" fill="#000000">
                    <tspan x="486" y="775">On the railway tracks</tspan>
                </text>
                <text id="Pop-up-gardens" font-family="Menlo-Regular, Menlo" font-size="16" font-weight="normal" line-spacing="14" fill="#000000">
                    <tspan x="485" y="998">Pop-up gardens</tspan>
                </text>
                <text id="Karwan-Bazar" font-family="Menlo-Regular, Menlo" font-size="16" font-weight="normal" line-spacing="14" fill="#000000">
                    <tspan x="485" y="1150">Karwan Bazar</tspan>
                </text>
                <text id="FDC-crossing" font-family="Menlo-Regular, Menlo" font-size="16" font-weight="normal" line-spacing="25" fill="#000000">
                    <tspan x="486" y="1294">FDC crossing</tspan>
                </text>
                <g id="28-copy-2" transform="translate(430.000000, 299.000000)" fill="#FCE21E">
                    <g id="26-copy-4">
                        <path d="M29.4061262,39.1448465 C33.9184807,39.1448465 40,29.5067015 40,22.6568765 C40,15.1414433 36.9742367,8.10540774 30.918914,5.07525713 C23.3135719,1.26945965 10.8972121,-0.372124273 5.42745124,3.04182558 C1.7775181,5.31993044 0.357115801,13.0090911 0.0337837406,17.682207 C-0.455194005,24.7493988 4.39542681,31.7047057 12.5312802,36.6133257 C19.3404901,40.7215394 27.3502253,39.1448465 29.4061262,39.1448465 Z" id="Oval"></path>
                    </g>
                    <ellipse id="Oval" stroke="#000000" cx="20" cy="19.5362319" rx="9.09090909" ry="8.69565217"></ellipse>
                </g>
                <g id="26-copy-2" transform="translate(430.000000, 142.000000)">
                    <path d="M29.2807112,39.2514107 C33.732901,39.2514107 39.7333333,29.3846931 39.7333333,22.3724216 C39.7333333,14.6787568 36.7479135,7.47585873 30.7733284,4.37384684 C23.2693909,0.477793289 11.0185826,-1.20272147 5.62175189,2.29219162 C2.02048452,4.62432268 0.619020924,12.495835 0.299999957,17.2797758 C-0.182458085,24.514569 4.60348779,31.6348238 12.6308631,36.6598538 C19.3492835,40.8654954 27.2522223,39.2514107 29.2807112,39.2514107 Z" id="Oval" fill="#AFEEF7"></path>
                    <path d="M18.5804908,20.9222464 C19.4095771,19.2191895 20.7597187,20.7467503 21.0207853,21.010422 C21.6912855,21.6876127 21.4548359,24.7108942 19.6083178,24.7507513 C18.8617822,24.7668653 17.8452344,25.0012002 16.896664,22.9277725 C14.272292,17.1913032 25.1784754,14.0807503 24.1996099,23.9329052 C24.0733071,25.2041261 23.8003037,27.4540949 22.1176464,28.0518932 C19.3228825,29.0447901 14.5062172,27.6644618 13.7315677,25.7236275 C8.80713194,13.3857723 23.4654462,8.77346494 29.7000794,17.5041464 C30.3526985,18.4180429 30.7052866,19.559454 30.8868994,20.6599777 C31.1335291,22.1544853 31.2522206,23.7147105 30.9636533,25.1610555 C28.900693,35.5009403 1.65350927,32.3123315 4.82358754,16.5214502 C6.7863126,6.74467001 22.4513219,3.22872199 29.4517255,10.3204721 C34.5606274,15.4960388 36.914628,21.8800673 34.8977744,28.5136796" id="Path-25" stroke="#0B0B0B" transform="translate(20.092150, 18.861862) rotate(29.000000) translate(-20.092150, -18.861862) "></path>
                </g>
                <g id="Group-6" transform="translate(430.000000, 526.000000)">
                    <g id="26-copy" fill="#97FDB8">
                        <path d="M29.2807112,39.2514107 C33.732901,39.2514107 39.7333333,29.3846931 39.7333333,22.3724216 C39.7333333,14.6787568 36.7479135,7.47585873 30.7733284,4.37384684 C23.2693909,0.477793289 11.0185826,-1.20272147 5.62175189,2.29219162 C2.02048452,4.62432268 0.619020924,12.495835 0.299999957,17.2797758 C-0.182458085,24.514569 4.60348779,31.6348238 12.6308631,36.6598538 C19.3492835,40.8654954 27.2522223,39.2514107 29.2807112,39.2514107 Z" id="Oval"></path>
                    </g>
                    <circle id="Oval-Copy-7" fill="#060606" cx="11.8787879" cy="15.8787879" r="1.33333333"></circle>
                    <circle id="Oval-Copy-6" fill="#060606" cx="15.8787879" cy="15.8787879" r="1.33333333"></circle>
                    <circle id="Oval-Copy-5" fill="#060606" cx="14.5454545" cy="19.8787879" r="1.33333333"></circle>
                    <circle id="Oval-Copy-4" fill="#060606" cx="18.5454545" cy="23.8787879" r="1.33333333"></circle>
                    <circle id="Oval-Copy-3" fill="#060606" cx="13.2121212" cy="29.2121212" r="1.33333333"></circle>
                    <circle id="Oval-Copy-2" fill="#060606" cx="27.8787879" cy="21.2121212" r="1.33333333"></circle>
                    <circle id="Oval-Copy" fill="#060606" cx="21.2121212" cy="9.21212121" r="1.33333333"></circle>
                </g>
                <g id="Group-7" transform="translate(430.000000, 750.000000)">
                    <g id="26-copy-5" fill="#FF642C">
                        <path d="M29.2807112,39.2514107 C33.732901,39.2514107 39.7333333,29.3846931 39.7333333,22.3724216 C39.7333333,14.6787568 36.7479135,7.47585873 30.7733284,4.37384684 C23.2693909,0.477793289 11.0185826,-1.20272147 5.62175189,2.29219162 C2.02048452,4.62432268 0.619020924,12.495835 0.299999957,17.2797758 C-0.182458085,24.514569 4.60348779,31.6348238 12.6308631,36.6598538 C19.3492835,40.8654954 27.2522223,39.2514107 29.2807112,39.2514107 Z" id="Oval"></path>
                    </g>
                    <g id="Group" transform="translate(10.290846, 12.779170)" stroke="#000000">
                        <path d="M0,0.652738458 C2.22222222,1.98607179 4.44444444,3.31940512 6.66666667,4.65273846" id="Path-27"></path>
                        <path d="M0.987842653,7.70306908 C2.30821451,5.22797105 4.43722125,2.47509803 5.7575931,-2.65861407e-13" id="Path-28"></path>
                    </g>
                    <g id="Group" transform="translate(10.290846, 12.779170)" stroke="#000000">
                        <path d="M0,0.652738458 C2.22222222,1.98607179 4.44444444,3.31940512 6.66666667,4.65273846" id="Path-27"></path>
                        <path d="M0.987842653,7.70306908 C2.30821451,5.22797105 4.43722125,2.47509803 5.7575931,-2.65861407e-13" id="Path-28"></path>
                    </g>
                    <g id="Group" transform="translate(20.957513, 12.779170)" stroke="#000000">
                        <path d="M0,0.652738458 C2.22222222,1.98607179 4.44444444,3.31940512 6.66666667,4.65273846" id="Path-27"></path>
                        <path d="M0.633624239,5.81380569 C1.9539961,3.33870766 4.43722125,2.47509803 5.7575931,0" id="Path-28"></path>
                    </g>
                    <g id="Group" transform="translate(11.624179, 22.112503)" stroke="#000000">
                        <path d="M0.3624862,0.652738458 C2.58470842,1.98607179 3.11111111,3.31940512 5.33333333,4.65273846 L0.3624862,0.652738458 Z" id="Path-27"></path>
                        <path d="M0.654690958,7.03010828 C1.97506281,4.55501025 3.10388791,2.47509803 4.42425977,0" id="Path-28"></path>
                    </g>
                    <g id="Group" transform="translate(20.957513, 22.112503)" stroke="#000000">
                        <path d="M0,0.652738458 C2.22222222,1.98607179 4.44444444,3.31940512 6.66666667,4.65273846" id="Path-27"></path>
                        <path d="M0.633624239,5.81380569 C1.9539961,3.33870766 4.43722125,2.47509803 5.7575931,0" id="Path-28"></path>
                    </g>
                </g>
                <g id="Group-8" transform="translate(430.000000, 974.000000)">
                    <g id="26" transform="translate(-0.000000, 0.000000)" fill="#FC94C7">
                        <path d="M28.7956748,38.6242088 C33.1431072,38.6242088 39.0023529,28.9896492 39.0023529,22.1423724 C39.0023529,14.6297349 36.0871783,7.59631686 30.2531717,4.56729349 C22.9257974,0.762911783 10.9632434,-0.878061456 5.69339694,2.53461839 C2.17686528,4.81187578 0.808377294,12.498176 0.496862704,17.1695535 C0.0257566153,24.2341163 4.699092,31.1868357 12.5375879,36.0936297 C19.0979279,40.2003151 26.8149151,38.6242088 28.7956748,38.6242088 Z" id="Oval"></path>
                    </g>
                    <g id="Group" transform="translate(12.024179, 10.112503)" stroke="#000000">
                        <path d="M0.81434847,18.6666667 C1.7709522,16.8734688 7.52690756,10.4419495 11.344256,5.39750931 C12.7958808,3.47925776 14.3028985,0.681900157 14.6666667,0" id="Path-28"></path>
                    </g>
                    <g id="Group" transform="translate(19.357513, 19.445836) scale(-1, 1) rotate(10.000000) translate(-19.357513, -19.445836) translate(12.024179, 10.112503)" stroke="#000000">
                        <path d="M0.81434847,18.6666667 C1.7709522,16.8734688 7.52690756,10.4419495 11.344256,5.39750931 C12.7958808,3.47925776 14.3028985,0.681900157 14.6666667,0" id="Path-28"></path>
                    </g>
                    <g id="Group" transform="translate(19.357513, 20.779170) scale(-1, -1) rotate(45.000000) translate(-19.357513, -20.779170) translate(12.024179, 11.445836)" stroke="#000000">
                        <path d="M0.81434847,18.6666667 C1.7709522,16.8734688 7.52690756,10.4419495 11.344256,5.39750931 C12.7958808,3.47925776 14.3028985,0.681900157 14.6666667,0" id="Path-28"></path>
                    </g>
                    <g id="Group" transform="translate(18.451780, 19.785113) scale(-1, -1) rotate(135.000000) translate(-18.451780, -19.785113) translate(11.118446, 10.451780)" stroke="#000000">
                        <path d="M0.81434847,18.6666667 C1.7709522,16.8734688 7.52690756,10.4419495 11.344256,5.39750931 C12.7958808,3.47925776 14.3028985,0.681900157 14.6666667,0" id="Path-28"></path>
                    </g>
                </g>
                <g id="Group-9" transform="translate(430.000000, 1121.000000)">
                    <g id="16" fill="#AFEEF7">
                        <path d="M28.715606,38.4934819 C33.0824007,38.4934819 38.9677419,28.8160126 38.9677419,21.9382399 C38.9677419,14.3921431 36.0395839,7.32740004 30.1795942,4.2848862 C22.8195857,0.463560785 10.8037536,-1.18472091 5.51043668,2.2431581 C1.97824332,4.53055779 0.603660453,12.2510908 0.290758459,16.9432733 C-0.182445811,24.0392998 4.51170337,31.0229848 12.3851098,35.9516323 C18.9746678,40.0766078 26.7260245,38.4934819 28.715606,38.4934819 Z" id="Oval"></path>
                    </g>
                    <g id="Group-4" transform="translate(3.152216, 3.689716)" stroke="#000000" stroke-linecap="round">
                        <path d="M14.9361437,5.99397033 C14.9367479,5.92126679 13.9827982,2.99154079 8.47169353,5.44524268 L7.69349897,17.846378 L14.9361437,5.99397033 Z" id="Path" stroke-width="0.5" fill="#000000" transform="translate(11.314821, 11.157007) scale(-1, 1) rotate(13.000000) translate(-11.314821, -11.157007) "></path>
                        <path d="M16.5806452,28 C17.7935196,28 18.96223,27.8109111 20.0589053,27.4606045 C24.6647499,25.9893779 28,21.6745062 28,16.5806452 C28,10.2739096 22.8873807,5.16129032 16.5806452,5.16129032 C10.2739096,5.16129032 5.16129032,10.2739096 5.16129032,16.5806452 C5.16129032,22.8873807 10.2739096,28 16.5806452,28 Z" id="Oval" stroke-width="1.5" stroke-dasharray="0,6" transform="translate(16.580645, 16.580645) rotate(31.000000) translate(-16.580645, -16.580645) "></path>
                    </g>
                </g>
                <g id="28-copy" transform="translate(430.000000, 1273.000000)">
                    <g id="26-copy-3">
                        <path d="M29.4061262,41.856528 C33.9184807,41.856528 40,31.5299441 40,24.1908459 C40,16.138596 36.9742367,8.59998647 30.918914,5.35339653 C23.3135719,1.27575637 10.8972121,-0.483083547 5.42745124,3.17471987 C1.7775181,5.61554651 0.357115801,13.8539329 0.0337837406,18.8608428 C-0.455194005,26.4328341 4.39542681,33.8849486 12.5312802,39.1441843 C19.3404901,43.5458418 27.3502253,41.856528 29.4061262,41.856528 Z" id="Oval" fill="#FCE21E"></path>
                        <g id="Group-5" transform="translate(5.333333, 9.333333)">
                            <circle id="Oval" fill="#000000" cx="3.33333333" cy="12.6666667" r="3.33333333"></circle>
                            <circle id="Oval" fill="#060606" cx="19" cy="7" r="1.66666667"></circle>
                            <circle id="Oval" fill="#060606" cx="13.6666667" cy="12.3333333" r="1.66666667"></circle>
                            <circle id="Oval" fill="#060606" cx="13.6666667" cy="23" r="1.66666667"></circle>
                            <circle id="Oval" fill="#060606" cx="24.3333333" cy="12.3333333" r="1.66666667"></circle>
                            <circle id="Oval" fill="#060606" cx="19" cy="17.6666667" r="1.66666667"></circle>
                            <circle id="Oval" fill="#060606" cx="30.3333333" cy="12.3333333" r="1"></circle>
                            <circle id="Oval" fill="#060606" cx="13.6666667" cy="1.66666667" r="1.66666667"></circle>
                        </g>
                    </g>
                </g>
                <g id="Scale" transform="translate(508.000000, 180.000000)" fill="#FF642C" font-family="Menlo-Regular, Menlo" font-size="14" font-weight="normal" letter-spacing="0.1" line-spacing="19">
                    <text id="Since-it’s-a-journey">
                        <tspan x="0" y="13">Since it’s a journey through two </tspan>
                        <tspan x="0" y="32">territories, stories are indexed with </tspan>
                        <tspan x="0" y="51">landmarks instead of page numbers </tspan>
                    </text>
                </g>
                <g id="Scale" transform="translate(324.700000, 1403.000000)" fill="#FF642C" font-family="Menlo-Bold, Menlo" font-size="16" font-weight="bold" letter-spacing="0.342857143" line-spacing="19">
                    <text id="click-or-tap-to-cont">
                        <tspan x="0.3" y="15">click or tap   to continue</tspan>
                    </text>
                </g>
                <path d="M441.100724,9.50939227 C438.330952,8.94782848 436.482544,8.94782848 435.555502,9.50939227 C428.496602,13.2444326 433.714824,24.2665354 428.939925,28.963332 C428.091747,29.7976363 423.145347,28.5975024 414.100724,25.3629305 C414.841406,25.6727292 426.459374,38.4767068 428.939925,41.6454185 C433.722845,47.7552283 426.696635,80.1916386 435.792763,86.5834433 C436.84239,87.2442678 438.61171,87.2562566 441.100724,86.6194096" id="Path-29" stroke="#FF642C" stroke-width="1.5"></path>
                <path d="M447.213878,145.715754 L447.20912,211.306598 C447.342097,217.84639 444.687307,222.385239 439.244751,224.923145 C435.306017,226.759807 432.027755,228.290616 429.410175,229.516023 C428.646991,229.873304 428.20844,225.60527 427.983772,226.398082 C427.389005,228.496909 426.572597,230.768301 426.776366,231.433706 C426.952652,232.009363 428.869883,231.587165 432.193122,231.200413" id="Path-26" stroke="#FF642C" stroke-width="1.5" stroke-linecap="round" transform="translate(436.979176, 188.715754) rotate(90.000000) translate(-436.979176, -188.715754) "></path>
                <path d="M500.413698,178.511176 C500.546675,185.050968 497.891885,189.589817 492.449328,192.127723 C488.510595,193.964384 485.232333,195.495194 482.614753,196.720601 C481.851569,197.077882 481.413018,192.809847 481.18835,193.60266 C480.593582,195.701487 479.777174,197.972878 479.980944,198.638284 C480.15723,199.213941 482.074461,198.791742 485.3977,198.404991" id="Path-26" stroke="#FF642C" stroke-width="1.5" stroke-linecap="round" transform="translate(490.183754, 188.715754) scale(-1, 1) rotate(90.000000) translate(-490.183754, -188.715754) "></path>
                <g id="Scale" transform="translate(164.000000, 2.000000)" fill="#FF642C" font-family="Menlo-Regular, Menlo" font-size="14" font-weight="normal" letter-spacing="0.8" line-spacing="16">
                    <text id="virtual-railway-line">
                        <tspan x="0" y="13">virtual railway line where </tspan>
                        <tspan x="0" y="29">distance between two marks </tspan>
                        <tspan x="0" y="45">resembles approx. </tspan>
                        <tspan x="166.116797" y="45" letter-spacing="0.5">200 feet </tspan>
                        <tspan x="0" y="61" letter-spacing="0.5">(or 1 New York city block)</tspan>
                    </text>
                </g>
                <text id="How-to-read:" font-family="Menlo-Bold, Menlo" font-size="18" font-weight="bold" line-spacing="17" letter-spacing="1" fill="#FF642C">
                    <tspan x="9.09494702e-13" y="17">How to read:</tspan>
                </text>
                <text id="Index:" font-family="Menlo-Bold, Menlo" font-size="18" font-weight="bold" line-spacing="17" letter-spacing="1" fill="#FF642C">
                    <tspan x="0" y="115">Index:</tspan>
                </text>
                <line x1="447.5" y1="9.5" x2="454.5" y2="9.5" id="Line-11" stroke="#0C0C0C" stroke-width="2" stroke-linecap="square"></line>
                <path d="M437.726869,105 C433.712291,107.377291 428.326917,110.327276 421.570746,113.849954 C420.548449,114.382981 419.961004,108.0155 419.660058,109.198298 C418.863358,112.329537 417.769766,115.718227 418.042719,116.710946 C418.278856,117.569768 420.847017,116.93989 425.298548,116.362896" id="Path-26" stroke="#FF642C" stroke-width="1.5" stroke-linecap="round" transform="translate(427.863434, 111.065866) rotate(27.000000) translate(-427.863434, -111.065866) "></path>
                <path d="M482.726869,105 C478.712291,107.377291 473.326917,110.327276 466.570746,113.849954 C465.548449,114.382981 464.961004,108.0155 464.660058,109.198298 C463.863358,112.329537 462.769766,115.718227 463.042719,116.710946 C463.278856,117.569768 465.847017,116.93989 470.298548,116.362896" id="Path-26" stroke="#FF642C" stroke-width="1.5" stroke-linecap="round" transform="translate(472.863434, 111.065866) scale(-1, 1) rotate(27.000000) translate(-472.863434, -111.065866) "></path>
            </g>
        </g>
    </g>
</svg>