<?xml version="1.0" encoding="UTF-8"?>
<svg width="73px" height="67px" viewBox="0 0 73 67" version="1.1" xmlns="http://www.w3.org/2000/svg" xmlns:xlink="http://www.w3.org/1999/xlink">
    <!-- Generator: Sketch 62 (91390) - https://sketch.com -->
    <title>lifetime</title>
    <desc>Created with Sketch.</desc>
    <g id="Page-1" stroke="none" stroke-width="1" fill="none" fill-rule="evenodd">
        <g id="01_28" transform="translate(-503.000000, -168.000000)">
            <g id="lifetime" transform="translate(503.893371, 169.056235)">
                <path d="M52.4394302,64.6822214 C60.3451191,64.6822214 71,48.4121846 71,36.8490774 C71,24.1623648 65.6988332,12.2849178 55.089849,7.16975694 C41.7652158,0.745235941 20.0116328,-2.02590215 10.4285587,3.73714558 C4.03384039,7.58278702 1.54528177,20.5627667 0.978800856,28.4513976 C0.122107096,40.3814391 8.62044189,52.1226091 22.874536,60.4087915 C34.8043379,67.3438176 48.8374718,64.6822214 52.4394302,64.6822214 Z" id="Oval" fill="#AFEEF7"></path>
                <path d="M39.6133821,35.2693598 C40.4005745,33.8189312 40.861938,34.4649129 41.0852959,34.6776952 C41.6589485,35.2241863 40.7428487,38.3533059 39.1046639,38.442505 C38.4423561,38.4785676 37.5339908,38.7054335 36.7566178,36.9987854 C34.605891,32.2770705 44.2093375,29.4895047 43.0396059,37.7647669 C42.6379924,40.6059801 34.4226863,41.4413066 33.4177791,38.8764888 C29.4303374,28.6993685 43.0137408,24.9538344 48.2732447,32.0723455 C48.8237907,32.8174858 49.1013822,33.7621154 49.228655,34.6776952 C49.4014911,35.9210496 49.4588941,37.2232747 49.158747,38.442505 C47.0130025,47.1587521 22.9557323,45.3140683 26.2500169,32.0021848 C28.2896432,23.7602535 42.2846441,21.3397823 48.2732447,27.0634488 C52.6437317,31.2405865 54.0951135,38.0882597 52.1038349,43.7011856 C50.3084565,48.7619173 39.5224232,49.0140836 37.5853197,48.7619173 C29.5880069,47.7208513 19.3670339,38.43575 22.4698835,29.44602 C23.7435599,25.7558614 29.5369094,19.400444 33.926069,18.159547 C54.9922467,12.2037472 61.7582208,43.7011856 50.3273215,51.7248565 C47.4219447,53.7642224 38.1565365,54.2202525 36.7672684,53.9182207 C24.0893278,51.1619921 16.9615865,38.9443456 17.8421146,27.0634488 C18.5362753,17.6971933 33.0831466,10.71355 41.5518747,13.6229693 C53.8962747,17.8638701 64.2575094,32.2878976 61.7582208,45.6878651 C59.1339631,59.757856 41.0465968,62.7241094 29.3893535,57.3558384 C16.1397056,51.2542501 7.05863204,36.6857716 11.3938231,21.9308666 C12.3719017,18.6019575 15.3606836,16.1722905 17.8421146,13.7329119 C26.9971105,4.73306431 35.6821368,4.06444031 47.4328914,9.06396909 C61.6587569,15.1165697 71.9269151,29.5456841 70.9336555,45.3225954 C69.9005247,61.7328183 57.5070948,66.1456424 43.0228571,64.2855192 C24.0703643,61.851565 -2.50333219,45.5433348 0.189597867,23.7890407 C3.84934142,-5.77546191 54.2888546,-9.00306476 66.9270697,21.0012428" id="Path-25" stroke="#0B0B0B"></path>
            </g>
        </g>
    </g>
</svg>