<?xml version="1.0" encoding="UTF-8"?>
<svg width="142px" height="106px" viewBox="0 0 142 106" version="1.1" xmlns="http://www.w3.org/2000/svg" xmlns:xlink="http://www.w3.org/1999/xlink">
    <!-- Generator: Sketch 62 (91390) - https://sketch.com -->
    <title>party</title>
    <desc>Created with Sketch.</desc>
    <g id="Page-1" stroke="none" stroke-width="1" fill="none" fill-rule="evenodd">
        <g id="01_28" transform="translate(-293.000000, -827.000000)">
            <g id="party" transform="translate(292.000000, 827.000000)">
                <g id="Group-7" transform="translate(72.000000, 0.000000)">
                    <g id="Group-9" fill="#AFEEF7">
                        <path d="M36.8336334,94 C43.5972204,94 53.7016799,92.3761888 59.1416172,87.7545101 C69.9943689,78.5341959 71.2569133,53.4325406 70.4648522,45.6688199 C69.672791,37.9050992 67.4397336,28.1751706 64.7195177,22.493134 C59.320694,11.2159723 49.7788969,0 34.9892745,0 C20.1703341,0 8.02293452,13.5036903 3.54754586,26.5856024 C1.48322026,32.619788 0.657169991,39.8167687 0.657169991,47.6883043 C0.657169991,60.1607429 1.30369564,65.3112948 8.02293452,77.5522963 C14.7421734,89.7932979 25.1932547,94 36.8336334,94 Z" id="Oval"></path>
                    </g>
                    <path d="M49.088109,12.0830659 C34.0177666,-5.23219158 4.92102747,10.6130159 10.764429,44.2429508 C14.0119432,62.933039 23.6457981,72.1802447 33.1498335,73.549388 C45.8095548,75.3731367 52.9486084,51.4052734 54.2142334,41.1933594 C54.4088135,39.3239651 56.994359,21.1670502 49.088109,12.0830659 Z" id="Path-5" stroke="#050505"></path>
                    <path d="M37.3675214,73.1677945 C31.0764043,88.2688362 44.1585621,91.3783141 37.3675214,97.322772 C32.2885765,101.768567 39.3140074,103.783468 39.9688427,104.974633" id="Path-6" stroke="#050505"></path>
                </g>
                <text id="1-balloon" font-family="Menlo-Regular, Menlo" font-size="12" font-weight="normal" fill="#000000">
                    <tspan x="0" y="84">1 balloon</tspan>
                </text>
            </g>
        </g>
    </g>
</svg>