<?xml version="1.0" encoding="UTF-8"?>
<svg width="216px" height="809px" viewBox="0 0 216 809" version="1.1" xmlns="http://www.w3.org/2000/svg" xmlns:xlink="http://www.w3.org/1999/xlink">
    <!-- Generator: Sketch 62 (91390) - https://sketch.com -->
    <title>trains</title>
    <desc>Created with Sketch.</desc>
    <g id="Page-1" stroke="none" stroke-width="1" fill="none" fill-rule="evenodd">
        <g id="01_28" transform="translate(-486.000000, -146.000000)">
            <g id="trains" transform="translate(487.792893, 148.000000)">
                <g>
                    <g id="train" stroke="#FF642C" stroke-linecap="square" stroke-width="2">
                        <g id="Group-4">
                            <g id="Group-3">
                                <line x1="8.2889251e-13" y1="3.45262654e-13" x2="5.20710676" y2="5.21034099" id="Line" transform="translate(2.603553, 2.605170) scale(-1, 1) translate(-2.603553, -2.605170) "></line>
                                <line x1="-8.06021916e-14" y1="3.45262654e-13" x2="5.20710676" y2="5.21034099" id="Line"></line>
                            </g>
                            <g id="Group-3" transform="translate(0.000000, 20.012422)">
                                <line x1="8.2889251e-13" y1="3.45262654e-13" x2="5.20710676" y2="5.21034099" id="Line" transform="translate(2.603553, 2.605170) scale(-1, 1) translate(-2.603553, -2.605170) "></line>
                                <line x1="-8.06021916e-14" y1="3.45262654e-13" x2="5.20710676" y2="5.21034099" id="Line"></line>
                            </g>
                            <g id="Group-3" transform="translate(0.000000, 34.021118)">
                                <line x1="8.2889251e-13" y1="3.45262654e-13" x2="5.20710676" y2="5.21034099" id="Line" transform="translate(2.603553, 2.605170) scale(-1, 1) translate(-2.603553, -2.605170) "></line>
                                <line x1="-8.06021916e-14" y1="3.45262654e-13" x2="5.20710676" y2="5.21034099" id="Line"></line>
                            </g>
                            <g id="Group-3" transform="translate(0.000000, 59.036646)">
                                <line x1="8.2889251e-13" y1="3.45262654e-13" x2="5.20710676" y2="5.21034099" id="Line" transform="translate(2.603553, 2.605170) scale(-1, 1) translate(-2.603553, -2.605170) "></line>
                                <line x1="-8.06021916e-14" y1="3.45262654e-13" x2="5.20710676" y2="5.21034099" id="Line"></line>
                            </g>
                            <g id="Group-3" transform="translate(0.000000, 76.047205)">
                                <line x1="8.2889251e-13" y1="3.45262654e-13" x2="5.20710676" y2="5.21034099" id="Line" transform="translate(2.603553, 2.605170) scale(-1, 1) translate(-2.603553, -2.605170) "></line>
                                <line x1="-8.06021916e-14" y1="3.45262654e-13" x2="5.20710676" y2="5.21034099" id="Line"></line>
                            </g>
                            <g id="Group-3" transform="translate(0.000000, 91.056522)">
                                <line x1="8.2889251e-13" y1="3.45262654e-13" x2="5.20710676" y2="5.21034099" id="Line" transform="translate(2.603553, 2.605170) scale(-1, 1) translate(-2.603553, -2.605170) "></line>
                                <line x1="-8.06021916e-14" y1="3.45262654e-13" x2="5.20710676" y2="5.21034099" id="Line"></line>
                            </g>
                            <g id="Group-3" transform="translate(0.000000, 121.075155)">
                                <line x1="8.2889251e-13" y1="3.45262654e-13" x2="5.20710676" y2="5.21034099" id="Line" transform="translate(2.603553, 2.605170) scale(-1, 1) translate(-2.603553, -2.605170) "></line>
                                <line x1="-8.06021916e-14" y1="3.45262654e-13" x2="5.20710676" y2="5.21034099" id="Line"></line>
                            </g>
                            <g id="Group-3" transform="translate(0.000000, 132.081988)">
                                <line x1="8.2889251e-13" y1="3.45262654e-13" x2="5.20710676" y2="5.21034099" id="Line" transform="translate(2.603553, 2.605170) scale(-1, 1) translate(-2.603553, -2.605170) "></line>
                                <line x1="-8.06021916e-14" y1="3.45262654e-13" x2="5.20710676" y2="5.21034099" id="Line"></line>
                            </g>
                            <g id="Group-3" transform="translate(0.000000, 148.091925)">
                                <line x1="8.2889251e-13" y1="3.45262654e-13" x2="5.20710676" y2="5.21034099" id="Line" transform="translate(2.603553, 2.605170) scale(-1, 1) translate(-2.603553, -2.605170) "></line>
                                <line x1="-8.06021916e-14" y1="3.45262654e-13" x2="5.20710676" y2="5.21034099" id="Line"></line>
                            </g>
                            <g id="Group-3" transform="translate(0.000000, 168.104348)">
                                <line x1="8.2889251e-13" y1="3.45262654e-13" x2="5.20710676" y2="5.21034099" id="Line" transform="translate(2.603553, 2.605170) scale(-1, 1) translate(-2.603553, -2.605170) "></line>
                                <line x1="-8.06021916e-14" y1="3.45262654e-13" x2="5.20710676" y2="5.21034099" id="Line"></line>
                            </g>
                        </g>
                        <g id="Group-4" transform="translate(0.000000, 176.109317)">
                            <g id="Group-3">
                                <line x1="8.2889251e-13" y1="3.45262654e-13" x2="5.20710676" y2="5.21034099" id="Line" transform="translate(2.603553, 2.605170) scale(-1, 1) translate(-2.603553, -2.605170) "></line>
                                <line x1="-8.06021916e-14" y1="3.45262654e-13" x2="5.20710676" y2="5.21034099" id="Line"></line>
                            </g>
                            <g id="Group-3" transform="translate(0.000000, 14.008696)">
                                <line x1="8.2889251e-13" y1="3.45262654e-13" x2="5.20710676" y2="5.21034099" id="Line" transform="translate(2.603553, 2.605170) scale(-1, 1) translate(-2.603553, -2.605170) "></line>
                                <line x1="-8.06021916e-14" y1="3.45262654e-13" x2="5.20710676" y2="5.21034099" id="Line"></line>
                            </g>
                            <g id="Group-3" transform="translate(0.000000, 25.015528)">
                                <line x1="8.2889251e-13" y1="3.45262654e-13" x2="5.20710676" y2="5.21034099" id="Line" transform="translate(2.603553, 2.605170) scale(-1, 1) translate(-2.603553, -2.605170) "></line>
                                <line x1="-8.06021916e-14" y1="3.45262654e-13" x2="5.20710676" y2="5.21034099" id="Line"></line>
                            </g>
                            <g id="Group-3" transform="translate(0.000000, 33.020497)">
                                <line x1="8.2889251e-13" y1="3.45262654e-13" x2="5.20710676" y2="5.21034099" id="Line" transform="translate(2.603553, 2.605170) scale(-1, 1) translate(-2.603553, -2.605170) "></line>
                                <line x1="-8.06021916e-14" y1="3.45262654e-13" x2="5.20710676" y2="5.21034099" id="Line"></line>
                            </g>
                            <g id="Group-3" transform="translate(0.000000, 46.028571)">
                                <line x1="8.2889251e-13" y1="3.45262654e-13" x2="5.20710676" y2="5.21034099" id="Line" transform="translate(2.603553, 2.605170) scale(-1, 1) translate(-2.603553, -2.605170) "></line>
                                <line x1="-8.06021916e-14" y1="3.45262654e-13" x2="5.20710676" y2="5.21034099" id="Line"></line>
                            </g>
                            <g id="Group-3" transform="translate(0.000000, 57.035404)">
                                <line x1="8.2889251e-13" y1="3.45262654e-13" x2="5.20710676" y2="5.21034099" id="Line" transform="translate(2.603553, 2.605170) scale(-1, 1) translate(-2.603553, -2.605170) "></line>
                                <line x1="-8.06021916e-14" y1="3.45262654e-13" x2="5.20710676" y2="5.21034099" id="Line"></line>
                            </g>
                            <g id="Group-3" transform="translate(0.000000, 68.042236)">
                                <line x1="8.2889251e-13" y1="3.45262654e-13" x2="5.20710676" y2="5.21034099" id="Line" transform="translate(2.603553, 2.605170) scale(-1, 1) translate(-2.603553, -2.605170) "></line>
                                <line x1="-8.06021916e-14" y1="3.45262654e-13" x2="5.20710676" y2="5.21034099" id="Line"></line>
                            </g>
                            <g id="Group-3" transform="translate(0.000000, 78.048447)">
                                <line x1="8.2889251e-13" y1="3.45262654e-13" x2="5.20710676" y2="5.21034099" id="Line" transform="translate(2.603553, 2.605170) scale(-1, 1) translate(-2.603553, -2.605170) "></line>
                                <line x1="-8.06021916e-14" y1="3.45262654e-13" x2="5.20710676" y2="5.21034099" id="Line"></line>
                            </g>
                            <g id="Group-3" transform="translate(0.000000, 86.053416)">
                                <line x1="8.2889251e-13" y1="3.45262654e-13" x2="5.20710676" y2="5.21034099" id="Line" transform="translate(2.603553, 2.605170) scale(-1, 1) translate(-2.603553, -2.605170) "></line>
                                <line x1="-8.06021916e-14" y1="3.45262654e-13" x2="5.20710676" y2="5.21034099" id="Line"></line>
                            </g>
                            <g id="Group-3" transform="translate(0.000000, 96.059627)">
                                <line x1="8.2889251e-13" y1="3.45262654e-13" x2="5.20710676" y2="5.21034099" id="Line" transform="translate(2.603553, 2.605170) scale(-1, 1) translate(-2.603553, -2.605170) "></line>
                                <line x1="-8.06021916e-14" y1="3.45262654e-13" x2="5.20710676" y2="5.21034099" id="Line"></line>
                            </g>
                        </g>
                        <g id="Group-4" transform="translate(0.000000, 281.174534)">
                            <g id="Group-3">
                                <line x1="8.2889251e-13" y1="3.45262654e-13" x2="5.20710676" y2="5.21034099" id="Line" transform="translate(2.603553, 2.605170) scale(-1, 1) translate(-2.603553, -2.605170) "></line>
                                <line x1="-8.06021916e-14" y1="3.45262654e-13" x2="5.20710676" y2="5.21034099" id="Line"></line>
                            </g>
                            <g id="Group-3" transform="translate(0.000000, 8.004969)">
                                <line x1="8.2889251e-13" y1="3.45262654e-13" x2="5.20710676" y2="5.21034099" id="Line" transform="translate(2.603553, 2.605170) scale(-1, 1) translate(-2.603553, -2.605170) "></line>
                                <line x1="-8.06021916e-14" y1="3.45262654e-13" x2="5.20710676" y2="5.21034099" id="Line"></line>
                            </g>
                            <g id="Group-3" transform="translate(0.000000, 16.009938)">
                                <line x1="8.2889251e-13" y1="3.45262654e-13" x2="5.20710676" y2="5.21034099" id="Line" transform="translate(2.603553, 2.605170) scale(-1, 1) translate(-2.603553, -2.605170) "></line>
                                <line x1="-8.06021916e-14" y1="3.45262654e-13" x2="5.20710676" y2="5.21034099" id="Line"></line>
                            </g>
                            <g id="Group-3" transform="translate(0.000000, 24.014907)">
                                <line x1="8.2889251e-13" y1="3.45262654e-13" x2="5.20710676" y2="5.21034099" id="Line" transform="translate(2.603553, 2.605170) scale(-1, 1) translate(-2.603553, -2.605170) "></line>
                                <line x1="-8.06021916e-14" y1="3.45262654e-13" x2="5.20710676" y2="5.21034099" id="Line"></line>
                            </g>
                            <g id="Group-3" transform="translate(0.000000, 32.019876)">
                                <line x1="8.2889251e-13" y1="3.45262654e-13" x2="5.20710676" y2="5.21034099" id="Line" transform="translate(2.603553, 2.605170) scale(-1, 1) translate(-2.603553, -2.605170) "></line>
                                <line x1="-8.06021916e-14" y1="3.45262654e-13" x2="5.20710676" y2="5.21034099" id="Line"></line>
                            </g>
                            <g id="Group-3" transform="translate(0.000000, 40.024845)">
                                <line x1="8.2889251e-13" y1="3.45262654e-13" x2="5.20710676" y2="5.21034099" id="Line" transform="translate(2.603553, 2.605170) scale(-1, 1) translate(-2.603553, -2.605170) "></line>
                                <line x1="-8.06021916e-14" y1="3.45262654e-13" x2="5.20710676" y2="5.21034099" id="Line"></line>
                            </g>
                            <g id="Group-3" transform="translate(0.000000, 48.029814)">
                                <line x1="8.2889251e-13" y1="3.45262654e-13" x2="5.20710676" y2="5.21034099" id="Line" transform="translate(2.603553, 2.605170) scale(-1, 1) translate(-2.603553, -2.605170) "></line>
                                <line x1="-8.06021916e-14" y1="3.45262654e-13" x2="5.20710676" y2="5.21034099" id="Line"></line>
                            </g>
                            <g id="Group-3" transform="translate(0.000000, 56.034783)">
                                <line x1="8.2889251e-13" y1="3.45262654e-13" x2="5.20710676" y2="5.21034099" id="Line" transform="translate(2.603553, 2.605170) scale(-1, 1) translate(-2.603553, -2.605170) "></line>
                                <line x1="-8.06021916e-14" y1="3.45262654e-13" x2="5.20710676" y2="5.21034099" id="Line"></line>
                            </g>
                            <g id="Group-3" transform="translate(0.000000, 64.039752)">
                                <line x1="8.2889251e-13" y1="3.45262654e-13" x2="5.20710676" y2="5.21034099" id="Line" transform="translate(2.603553, 2.605170) scale(-1, 1) translate(-2.603553, -2.605170) "></line>
                                <line x1="-8.06021916e-14" y1="3.45262654e-13" x2="5.20710676" y2="5.21034099" id="Line"></line>
                            </g>
                            <g id="Group-3" transform="translate(0.000000, 72.044720)">
                                <line x1="8.2889251e-13" y1="3.45262654e-13" x2="5.20710676" y2="5.21034099" id="Line" transform="translate(2.603553, 2.605170) scale(-1, 1) translate(-2.603553, -2.605170) "></line>
                                <line x1="-8.06021916e-14" y1="3.45262654e-13" x2="5.20710676" y2="5.21034099" id="Line"></line>
                            </g>
                        </g>
                        <g id="Group-4" transform="translate(0.000000, 361.224224)">
                            <g id="Group-3">
                                <line x1="8.2889251e-13" y1="3.45262654e-13" x2="5.20710676" y2="5.21034099" id="Line" transform="translate(2.603553, 2.605170) scale(-1, 1) translate(-2.603553, -2.605170) "></line>
                                <line x1="-8.06021916e-14" y1="3.45262654e-13" x2="5.20710676" y2="5.21034099" id="Line"></line>
                            </g>
                            <g id="Group-3" transform="translate(0.000000, 8.004969)">
                                <line x1="8.2889251e-13" y1="3.45262654e-13" x2="5.20710676" y2="5.21034099" id="Line" transform="translate(2.603553, 2.605170) scale(-1, 1) translate(-2.603553, -2.605170) "></line>
                                <line x1="-8.06021916e-14" y1="3.45262654e-13" x2="5.20710676" y2="5.21034099" id="Line"></line>
                            </g>
                            <g id="Group-3" transform="translate(0.000000, 16.009938)">
                                <line x1="8.2889251e-13" y1="3.45262654e-13" x2="5.20710676" y2="5.21034099" id="Line" transform="translate(2.603553, 2.605170) scale(-1, 1) translate(-2.603553, -2.605170) "></line>
                                <line x1="-8.06021916e-14" y1="3.45262654e-13" x2="5.20710676" y2="5.21034099" id="Line"></line>
                            </g>
                            <g id="Group-3" transform="translate(0.000000, 24.014907)">
                                <line x1="8.2889251e-13" y1="3.45262654e-13" x2="5.20710676" y2="5.21034099" id="Line" transform="translate(2.603553, 2.605170) scale(-1, 1) translate(-2.603553, -2.605170) "></line>
                                <line x1="-8.06021916e-14" y1="3.45262654e-13" x2="5.20710676" y2="5.21034099" id="Line"></line>
                            </g>
                            <g id="Group-3" transform="translate(0.000000, 32.019876)">
                                <line x1="8.2889251e-13" y1="3.45262654e-13" x2="5.20710676" y2="5.21034099" id="Line" transform="translate(2.603553, 2.605170) scale(-1, 1) translate(-2.603553, -2.605170) "></line>
                                <line x1="-8.06021916e-14" y1="3.45262654e-13" x2="5.20710676" y2="5.21034099" id="Line"></line>
                            </g>
                            <g id="Group-3" transform="translate(0.000000, 40.024845)">
                                <line x1="8.2889251e-13" y1="3.45262654e-13" x2="5.20710676" y2="5.21034099" id="Line" transform="translate(2.603553, 2.605170) scale(-1, 1) translate(-2.603553, -2.605170) "></line>
                                <line x1="-8.06021916e-14" y1="3.45262654e-13" x2="5.20710676" y2="5.21034099" id="Line"></line>
                            </g>
                            <g id="Group-3" transform="translate(0.000000, 48.029814)">
                                <line x1="8.2889251e-13" y1="3.45262654e-13" x2="5.20710676" y2="5.21034099" id="Line" transform="translate(2.603553, 2.605170) scale(-1, 1) translate(-2.603553, -2.605170) "></line>
                                <line x1="-8.06021916e-14" y1="3.45262654e-13" x2="5.20710676" y2="5.21034099" id="Line"></line>
                            </g>
                            <g id="Group-3" transform="translate(0.000000, 56.034783)">
                                <line x1="8.2889251e-13" y1="3.45262654e-13" x2="5.20710676" y2="5.21034099" id="Line" transform="translate(2.603553, 2.605170) scale(-1, 1) translate(-2.603553, -2.605170) "></line>
                                <line x1="-8.06021916e-14" y1="3.45262654e-13" x2="5.20710676" y2="5.21034099" id="Line"></line>
                            </g>
                            <g id="Group-3" transform="translate(0.000000, 64.039752)">
                                <line x1="8.2889251e-13" y1="3.45262654e-13" x2="5.20710676" y2="5.21034099" id="Line" transform="translate(2.603553, 2.605170) scale(-1, 1) translate(-2.603553, -2.605170) "></line>
                                <line x1="-8.06021916e-14" y1="3.45262654e-13" x2="5.20710676" y2="5.21034099" id="Line"></line>
                            </g>
                            <g id="Group-3" transform="translate(0.000000, 72.044720)">
                                <line x1="8.2889251e-13" y1="3.45262654e-13" x2="5.20710676" y2="5.21034099" id="Line" transform="translate(2.603553, 2.605170) scale(-1, 1) translate(-2.603553, -2.605170) "></line>
                                <line x1="-8.06021916e-14" y1="3.45262654e-13" x2="5.20710676" y2="5.21034099" id="Line"></line>
                            </g>
                        </g>
                        <g id="Group-4" transform="translate(0.000000, 441.273913)">
                            <g id="Group-3">
                                <line x1="8.2889251e-13" y1="3.45262654e-13" x2="5.20710676" y2="5.21034099" id="Line" transform="translate(2.603553, 2.605170) scale(-1, 1) translate(-2.603553, -2.605170) "></line>
                                <line x1="-8.06021916e-14" y1="3.45262654e-13" x2="5.20710676" y2="5.21034099" id="Line"></line>
                            </g>
                            <g id="Group-3" transform="translate(0.000000, 8.004969)">
                                <line x1="8.2889251e-13" y1="3.45262654e-13" x2="5.20710676" y2="5.21034099" id="Line" transform="translate(2.603553, 2.605170) scale(-1, 1) translate(-2.603553, -2.605170) "></line>
                                <line x1="-8.06021916e-14" y1="3.45262654e-13" x2="5.20710676" y2="5.21034099" id="Line"></line>
                            </g>
                            <g id="Group-3" transform="translate(0.000000, 16.009938)">
                                <line x1="8.2889251e-13" y1="3.45262654e-13" x2="5.20710676" y2="5.21034099" id="Line" transform="translate(2.603553, 2.605170) scale(-1, 1) translate(-2.603553, -2.605170) "></line>
                                <line x1="-8.06021916e-14" y1="3.45262654e-13" x2="5.20710676" y2="5.21034099" id="Line"></line>
                            </g>
                            <g id="Group-3" transform="translate(0.000000, 24.014907)">
                                <line x1="8.2889251e-13" y1="3.45262654e-13" x2="5.20710676" y2="5.21034099" id="Line" transform="translate(2.603553, 2.605170) scale(-1, 1) translate(-2.603553, -2.605170) "></line>
                                <line x1="-8.06021916e-14" y1="3.45262654e-13" x2="5.20710676" y2="5.21034099" id="Line"></line>
                            </g>
                            <g id="Group-3" transform="translate(0.000000, 32.019876)">
                                <line x1="8.2889251e-13" y1="3.45262654e-13" x2="5.20710676" y2="5.21034099" id="Line" transform="translate(2.603553, 2.605170) scale(-1, 1) translate(-2.603553, -2.605170) "></line>
                                <line x1="-8.06021916e-14" y1="3.45262654e-13" x2="5.20710676" y2="5.21034099" id="Line"></line>
                            </g>
                            <g id="Group-3" transform="translate(0.000000, 40.024845)">
                                <line x1="8.2889251e-13" y1="3.45262654e-13" x2="5.20710676" y2="5.21034099" id="Line" transform="translate(2.603553, 2.605170) scale(-1, 1) translate(-2.603553, -2.605170) "></line>
                                <line x1="-8.06021916e-14" y1="3.45262654e-13" x2="5.20710676" y2="5.21034099" id="Line"></line>
                            </g>
                            <g id="Group-3" transform="translate(0.000000, 48.029814)">
                                <line x1="8.2889251e-13" y1="3.45262654e-13" x2="5.20710676" y2="5.21034099" id="Line" transform="translate(2.603553, 2.605170) scale(-1, 1) translate(-2.603553, -2.605170) "></line>
                                <line x1="-8.06021916e-14" y1="3.45262654e-13" x2="5.20710676" y2="5.21034099" id="Line"></line>
                            </g>
                            <g id="Group-3" transform="translate(0.000000, 56.034783)">
                                <line x1="8.2889251e-13" y1="3.45262654e-13" x2="5.20710676" y2="5.21034099" id="Line" transform="translate(2.603553, 2.605170) scale(-1, 1) translate(-2.603553, -2.605170) "></line>
                                <line x1="-8.06021916e-14" y1="3.45262654e-13" x2="5.20710676" y2="5.21034099" id="Line"></line>
                            </g>
                            <g id="Group-3" transform="translate(0.000000, 64.039752)">
                                <line x1="8.2889251e-13" y1="3.45262654e-13" x2="5.20710676" y2="5.21034099" id="Line" transform="translate(2.603553, 2.605170) scale(-1, 1) translate(-2.603553, -2.605170) "></line>
                                <line x1="-8.06021916e-14" y1="3.45262654e-13" x2="5.20710676" y2="5.21034099" id="Line"></line>
                            </g>
                            <g id="Group-3" transform="translate(0.000000, 72.044720)">
                                <line x1="8.2889251e-13" y1="3.45262654e-13" x2="5.20710676" y2="5.21034099" id="Line" transform="translate(2.603553, 2.605170) scale(-1, 1) translate(-2.603553, -2.605170) "></line>
                                <line x1="-8.06021916e-14" y1="3.45262654e-13" x2="5.20710676" y2="5.21034099" id="Line"></line>
                            </g>
                        </g>
                        <g id="Group-4" transform="translate(0.000000, 521.323602)">
                            <g id="Group-3">
                                <line x1="8.2889251e-13" y1="3.45262654e-13" x2="5.20710676" y2="5.21034099" id="Line" transform="translate(2.603553, 2.605170) scale(-1, 1) translate(-2.603553, -2.605170) "></line>
                                <line x1="-8.06021916e-14" y1="3.45262654e-13" x2="5.20710676" y2="5.21034099" id="Line"></line>
                            </g>
                            <g id="Group-3" transform="translate(0.000000, 8.004969)">
                                <line x1="8.2889251e-13" y1="3.45262654e-13" x2="5.20710676" y2="5.21034099" id="Line" transform="translate(2.603553, 2.605170) scale(-1, 1) translate(-2.603553, -2.605170) "></line>
                                <line x1="-8.06021916e-14" y1="3.45262654e-13" x2="5.20710676" y2="5.21034099" id="Line"></line>
                            </g>
                            <g id="Group-3" transform="translate(0.000000, 16.009938)">
                                <line x1="8.2889251e-13" y1="3.45262654e-13" x2="5.20710676" y2="5.21034099" id="Line" transform="translate(2.603553, 2.605170) scale(-1, 1) translate(-2.603553, -2.605170) "></line>
                                <line x1="-8.06021916e-14" y1="3.45262654e-13" x2="5.20710676" y2="5.21034099" id="Line"></line>
                            </g>
                            <g id="Group-3" transform="translate(0.000000, 24.014907)">
                                <line x1="8.2889251e-13" y1="3.45262654e-13" x2="5.20710676" y2="5.21034099" id="Line" transform="translate(2.603553, 2.605170) scale(-1, 1) translate(-2.603553, -2.605170) "></line>
                                <line x1="-8.06021916e-14" y1="3.45262654e-13" x2="5.20710676" y2="5.21034099" id="Line"></line>
                            </g>
                            <g id="Group-3" transform="translate(0.000000, 32.019876)">
                                <line x1="8.2889251e-13" y1="3.45262654e-13" x2="5.20710676" y2="5.21034099" id="Line" transform="translate(2.603553, 2.605170) scale(-1, 1) translate(-2.603553, -2.605170) "></line>
                                <line x1="-8.06021916e-14" y1="3.45262654e-13" x2="5.20710676" y2="5.21034099" id="Line"></line>
                            </g>
                            <g id="Group-3" transform="translate(0.000000, 40.024845)">
                                <line x1="8.2889251e-13" y1="3.45262654e-13" x2="5.20710676" y2="5.21034099" id="Line" transform="translate(2.603553, 2.605170) scale(-1, 1) translate(-2.603553, -2.605170) "></line>
                                <line x1="-8.06021916e-14" y1="3.45262654e-13" x2="5.20710676" y2="5.21034099" id="Line"></line>
                            </g>
                            <g id="Group-3" transform="translate(0.000000, 48.029814)">
                                <line x1="8.2889251e-13" y1="3.45262654e-13" x2="5.20710676" y2="5.21034099" id="Line" transform="translate(2.603553, 2.605170) scale(-1, 1) translate(-2.603553, -2.605170) "></line>
                                <line x1="-8.06021916e-14" y1="3.45262654e-13" x2="5.20710676" y2="5.21034099" id="Line"></line>
                            </g>
                            <g id="Group-3" transform="translate(0.000000, 56.034783)">
                                <line x1="8.2889251e-13" y1="3.45262654e-13" x2="5.20710676" y2="5.21034099" id="Line" transform="translate(2.603553, 2.605170) scale(-1, 1) translate(-2.603553, -2.605170) "></line>
                                <line x1="-8.06021916e-14" y1="3.45262654e-13" x2="5.20710676" y2="5.21034099" id="Line"></line>
                            </g>
                            <g id="Group-3" transform="translate(0.000000, 64.039752)">
                                <line x1="8.2889251e-13" y1="3.45262654e-13" x2="5.20710676" y2="5.21034099" id="Line" transform="translate(2.603553, 2.605170) scale(-1, 1) translate(-2.603553, -2.605170) "></line>
                                <line x1="-8.06021916e-14" y1="3.45262654e-13" x2="5.20710676" y2="5.21034099" id="Line"></line>
                            </g>
                            <g id="Group-3" transform="translate(0.000000, 72.044720)">
                                <line x1="8.2889251e-13" y1="3.45262654e-13" x2="5.20710676" y2="5.21034099" id="Line" transform="translate(2.603553, 2.605170) scale(-1, 1) translate(-2.603553, -2.605170) "></line>
                                <line x1="-8.06021916e-14" y1="3.45262654e-13" x2="5.20710676" y2="5.21034099" id="Line"></line>
                            </g>
                        </g>
                        <g id="Group-4" transform="translate(0.000000, 601.373292)">
                            <g id="Group-3">
                                <line x1="8.2889251e-13" y1="3.45262654e-13" x2="5.20710676" y2="5.21034099" id="Line" transform="translate(2.603553, 2.605170) scale(-1, 1) translate(-2.603553, -2.605170) "></line>
                                <line x1="-8.06021916e-14" y1="3.45262654e-13" x2="5.20710676" y2="5.21034099" id="Line"></line>
                            </g>
                            <g id="Group-3" transform="translate(0.000000, 8.004969)">
                                <line x1="8.2889251e-13" y1="3.45262654e-13" x2="5.20710676" y2="5.21034099" id="Line" transform="translate(2.603553, 2.605170) scale(-1, 1) translate(-2.603553, -2.605170) "></line>
                                <line x1="-8.06021916e-14" y1="3.45262654e-13" x2="5.20710676" y2="5.21034099" id="Line"></line>
                            </g>
                            <g id="Group-3" transform="translate(0.000000, 16.009938)">
                                <line x1="8.2889251e-13" y1="3.45262654e-13" x2="5.20710676" y2="5.21034099" id="Line" transform="translate(2.603553, 2.605170) scale(-1, 1) translate(-2.603553, -2.605170) "></line>
                                <line x1="-8.06021916e-14" y1="3.45262654e-13" x2="5.20710676" y2="5.21034099" id="Line"></line>
                            </g>
                            <g id="Group-3" transform="translate(0.000000, 24.014907)">
                                <line x1="8.2889251e-13" y1="3.45262654e-13" x2="5.20710676" y2="5.21034099" id="Line" transform="translate(2.603553, 2.605170) scale(-1, 1) translate(-2.603553, -2.605170) "></line>
                                <line x1="-8.06021916e-14" y1="3.45262654e-13" x2="5.20710676" y2="5.21034099" id="Line"></line>
                            </g>
                            <g id="Group-3" transform="translate(0.000000, 32.019876)">
                                <line x1="8.2889251e-13" y1="3.45262654e-13" x2="5.20710676" y2="5.21034099" id="Line" transform="translate(2.603553, 2.605170) scale(-1, 1) translate(-2.603553, -2.605170) "></line>
                                <line x1="-8.06021916e-14" y1="3.45262654e-13" x2="5.20710676" y2="5.21034099" id="Line"></line>
                            </g>
                            <g id="Group-3" transform="translate(0.000000, 40.024845)">
                                <line x1="8.2889251e-13" y1="3.45262654e-13" x2="5.20710676" y2="5.21034099" id="Line" transform="translate(2.603553, 2.605170) scale(-1, 1) translate(-2.603553, -2.605170) "></line>
                                <line x1="-8.06021916e-14" y1="3.45262654e-13" x2="5.20710676" y2="5.21034099" id="Line"></line>
                            </g>
                            <g id="Group-3" transform="translate(0.000000, 50.031056)">
                                <line x1="8.2889251e-13" y1="3.45262654e-13" x2="5.20710676" y2="5.21034099" id="Line" transform="translate(2.603553, 2.605170) scale(-1, 1) translate(-2.603553, -2.605170) "></line>
                                <line x1="-8.06021916e-14" y1="3.45262654e-13" x2="5.20710676" y2="5.21034099" id="Line"></line>
                            </g>
                            <g id="Group-3" transform="translate(0.000000, 60.037267)">
                                <line x1="8.2889251e-13" y1="3.45262654e-13" x2="5.20710676" y2="5.21034099" id="Line" transform="translate(2.603553, 2.605170) scale(-1, 1) translate(-2.603553, -2.605170) "></line>
                                <line x1="-8.06021916e-14" y1="3.45262654e-13" x2="5.20710676" y2="5.21034099" id="Line"></line>
                            </g>
                            <g id="Group-3" transform="translate(0.000000, 72.044720)">
                                <line x1="8.2889251e-13" y1="3.45262654e-13" x2="5.20710676" y2="5.21034099" id="Line" transform="translate(2.603553, 2.605170) scale(-1, 1) translate(-2.603553, -2.605170) "></line>
                                <line x1="-8.06021916e-14" y1="3.45262654e-13" x2="5.20710676" y2="5.21034099" id="Line"></line>
                            </g>
                            <g id="Group-3" transform="translate(0.000000, 80.049689)">
                                <line x1="8.2889251e-13" y1="3.45262654e-13" x2="5.20710676" y2="5.21034099" id="Line" transform="translate(2.603553, 2.605170) scale(-1, 1) translate(-2.603553, -2.605170) "></line>
                                <line x1="-8.06021916e-14" y1="3.45262654e-13" x2="5.20710676" y2="5.21034099" id="Line"></line>
                            </g>
                        </g>
                        <g id="Group-4" transform="translate(0.000000, 692.429814)">
                            <g id="Group-3">
                                <line x1="8.2889251e-13" y1="3.45262654e-13" x2="5.20710676" y2="5.21034099" id="Line" transform="translate(2.603553, 2.605170) scale(-1, 1) translate(-2.603553, -2.605170) "></line>
                                <line x1="-8.06021916e-14" y1="3.45262654e-13" x2="5.20710676" y2="5.21034099" id="Line"></line>
                            </g>
                            <g id="Group-3" transform="translate(0.000000, 8.004969)">
                                <line x1="8.2889251e-13" y1="3.45262654e-13" x2="5.20710676" y2="5.21034099" id="Line" transform="translate(2.603553, 2.605170) scale(-1, 1) translate(-2.603553, -2.605170) "></line>
                                <line x1="-8.06021916e-14" y1="3.45262654e-13" x2="5.20710676" y2="5.21034099" id="Line"></line>
                            </g>
                            <g id="Group-3" transform="translate(0.000000, 22.013665)">
                                <line x1="8.2889251e-13" y1="3.45262654e-13" x2="5.20710676" y2="5.21034099" id="Line" transform="translate(2.603553, 2.605170) scale(-1, 1) translate(-2.603553, -2.605170) "></line>
                                <line x1="-8.06021916e-14" y1="3.45262654e-13" x2="5.20710676" y2="5.21034099" id="Line"></line>
                            </g>
                            <g id="Group-3" transform="translate(0.000000, 37.022981)">
                                <line x1="8.2889251e-13" y1="3.45262654e-13" x2="5.20710676" y2="5.21034099" id="Line" transform="translate(2.603553, 2.605170) scale(-1, 1) translate(-2.603553, -2.605170) "></line>
                                <line x1="-8.06021916e-14" y1="3.45262654e-13" x2="5.20710676" y2="5.21034099" id="Line"></line>
                            </g>
                            <g id="Group-3" transform="translate(0.000000, 45.027950)">
                                <line x1="8.2889251e-13" y1="3.45262654e-13" x2="5.20710676" y2="5.21034099" id="Line" transform="translate(2.603553, 2.605170) scale(-1, 1) translate(-2.603553, -2.605170) "></line>
                                <line x1="-8.06021916e-14" y1="3.45262654e-13" x2="5.20710676" y2="5.21034099" id="Line"></line>
                            </g>
                            <g id="Group-3" transform="translate(0.000000, 69.042857)">
                                <line x1="8.2889251e-13" y1="3.45262654e-13" x2="5.20710676" y2="5.21034099" id="Line" transform="translate(2.603553, 2.605170) scale(-1, 1) translate(-2.603553, -2.605170) "></line>
                                <line x1="-8.06021916e-14" y1="3.45262654e-13" x2="5.20710676" y2="5.21034099" id="Line"></line>
                            </g>
                            <g id="Group-3" transform="translate(0.000000, 89.055280)">
                                <line x1="8.2889251e-13" y1="3.45262654e-13" x2="5.20710676" y2="5.21034099" id="Line" transform="translate(2.603553, 2.605170) scale(-1, 1) translate(-2.603553, -2.605170) "></line>
                                <line x1="-8.06021916e-14" y1="3.45262654e-13" x2="5.20710676" y2="5.21034099" id="Line"></line>
                            </g>
                            <g id="Group-3" transform="translate(0.000000, 107.066460)">
                                <line x1="8.2889251e-13" y1="3.45262654e-13" x2="5.20710676" y2="5.21034099" id="Line" transform="translate(2.603553, 2.605170) scale(-1, 1) translate(-2.603553, -2.605170) "></line>
                                <line x1="-8.06021916e-14" y1="3.45262654e-13" x2="5.20710676" y2="5.21034099" id="Line"></line>
                            </g>
                        </g>
                    </g>
                    <text id="--train-passing-thro" font-family="Menlo-Regular, Menlo" font-size="12" font-weight="normal" fill="#000000">
                        <tspan x="48.9001395" y="495">- train passing through</tspan>
                    </text>
                </g>
                <g id="cross" transform="translate(30.207107, 487.000000)" stroke="#000000">
                    <path d="M0.6,1.04438153 C2.73333333,3.17771487 4.86666667,5.3110482 7,7.44438153" id="Path-27"></path>
                    <path d="M0.0137987826,9.6 C1.66298521,5.51301424 4.76461236,4.08698576 6.41379878,0" id="Path-28"></path>
                </g>
            </g>
        </g>
    </g>
</svg>