<?xml version="1.0" encoding="UTF-8"?>
<svg width="177px" height="94px" viewBox="0 0 177 94" version="1.1" xmlns="http://www.w3.org/2000/svg" xmlns:xlink="http://www.w3.org/1999/xlink">
    <!-- Generator: Sketch 62 (91390) - https://sketch.com -->
    <title>work</title>
    <desc>Created with Sketch.</desc>
    <g id="Page-1" stroke="none" stroke-width="1" fill="none" fill-rule="evenodd">
        <g id="01_28" transform="translate(-543.000000, -826.000000)">
            <g id="work" transform="translate(540.000000, 826.000000)">
                <g id="Group-7" transform="translate(2.000000, 0.000000)" fill="#AFEEF7">
                    <g id="Group-9" transform="translate(0.342830, 0.000000)">
                        <path d="M36.8336334,94 C43.5972204,94 53.7016799,92.3761888 59.1416172,87.7545101 C69.9943689,78.5341959 71.2569133,53.4325406 70.4648522,45.6688199 C69.672791,37.9050992 67.4397336,28.1751706 64.7195177,22.493134 C59.320694,11.2159723 49.7788969,0 34.9892745,0 C20.1703341,0 8.02293452,13.5036903 3.54754586,26.5856024 C1.48322026,32.619788 0.657169991,39.8167687 0.657169991,47.6883043 C0.657169991,60.1607429 1.30369564,65.3112948 8.02293452,77.5522963 C14.7421734,89.7932979 25.1932547,94 36.8336334,94 Z" id="Oval"></path>
                    </g>
                </g>
                <text id="--1-balloon" font-family="Menlo-Regular, Menlo" font-size="12" font-weight="normal" fill="#000000">
                    <tspan x="94" y="86"> - 1 balloon</tspan>
                </text>
                <path d="M13.0788421,12.965865 L18.0012444,12.965865 C24.6346532,3.8138338 49.1562644,8.65966233 55.3265315,16.643304 C70.4017606,36.1489792 77.947915,71.6563886 51.9422542,84.4426204 C17.8135434,101.222721 -7.21636169,42.9439767 13.5784846,22.8566829 C41.7900477,-4.39497115 77.1018221,53.3229709 55.8104182,75.2521907 C35.5978428,96.0702641 2.46357988,52.1583321 13.6385432,32.3947688 C32.1180663,-0.287327023 61.1822783,59.0888581 46.2381526,67.2941829 C21.9648174,80.6218677 12.5217015,9.51830396 32.0125667,34.3229915 L41.9556843,49.7155696 L43.493646,59.6960383 L37.2228468,61.7697688 L29.4647151,48.8474055 L28.197137,38.3195735" id="Path-7" stroke="#000000" stroke-width="3" stroke-linecap="round" stroke-dasharray="1,5" transform="translate(37.539421, 47.719268) scale(-1, -1) rotate(8.000000) translate(-37.539421, -47.719268) "></path>
                <circle id="Oval" fill="#060606" cx="86.5" cy="81.5" r="2.5"></circle>
            </g>
        </g>
    </g>
</svg>